<?xml version="1.0" standalone="no"?>
<!DOCTYPE svg PUBLIC "-//W3C//DTD SVG 20010904//EN"
 "http://www.w3.org/TR/2001/REC-SVG-20010904/DTD/svg10.dtd">
<svg version="1.0" xmlns="http://www.w3.org/2000/svg"
 width="480.000000pt" height="480.000000pt" viewBox="0 0 480.000000 480.000000"
 preserveAspectRatio="xMidYMid meet">
<metadata>
Created by potrace 1.16, written by Peter Selinger 2001-2019
</metadata>
<g transform="translate(0.000000,480.000000) scale(0.100000,-0.100000)"
fill="#000000" stroke="none">
<path d="M876 4791 c-4 -5 -19 -12 -35 -16 -16 -3 -37 -16 -47 -28 l-19 -22
23 20 c13 11 38 19 57 19 22 0 30 3 22 8 -12 8 904 3 1431 -8 284 -6 312 -3
312 29 0 5 -9 2 -19 -7 -18 -16 -43 -17 -298 -12 -153 4 -532 9 -842 12 -311
3 -568 7 -572 10 -4 2 -10 0 -13 -5z"/>
<path d="M4335 4765 c23 -206 90 -896 90 -935 0 -8 -11 -17 -25 -21 -20 -6
-21 -7 -5 -8 42 -2 45 9 34 114 -46 487 -82 826 -90 855 l-9 35 5 -40z"/>
<path d="M4387 4755 c3 -27 6 -65 6 -83 0 -24 3 -29 9 -18 5 9 3 42 -7 83 -12
53 -14 57 -8 18z"/>
<path d="M4426 4625 c2 -192 29 -479 69 -740 26 -166 59 -476 75 -698 5 -70
14 -135 20 -145 10 -15 11 -15 5 3 -3 10 -10 76 -15 145 -11 151 -58 619 -65
640 -17 54 -87 674 -83 737 1 19 3 14 8 -17 12 -78 10 5 -4 135 l-13 120 3
-180z"/>
<path d="M4446 4765 c2 -22 18 -188 35 -370 35 -390 35 -383 53 -555 17 -156
42 -398 57 -550 41 -435 48 -513 54 -600 3 -41 10 -113 15 -160 5 -47 12 -116
15 -155 3 -38 12 -133 20 -210 8 -77 22 -216 30 -310 9 -93 23 -235 32 -315 8
-80 17 -210 20 -290 3 -80 8 -148 11 -152 10 -11 -4 276 -22 442 -8 80 -22
222 -31 315 -8 94 -22 233 -30 310 -8 77 -17 172 -20 210 -3 39 -10 108 -15
155 -5 47 -12 119 -15 160 -6 87 -13 165 -54 600 -15 152 -40 394 -57 550 -19
175 -17 159 -53 560 -18 190 -36 359 -41 375 -8 27 -8 26 -4 -10z"/>
<path d="M4526 4720 c3 -47 9 -119 14 -160 18 -141 49 -415 54 -470 3 -30 19
-188 36 -350 28 -265 54 -515 66 -640 15 -152 34 -314 39 -318 7 -7 7 -8 -10
143 -8 72 -17 150 -19 175 -13 134 -38 378 -65 635 -17 160 -33 319 -36 355
-4 36 -15 135 -25 220 -10 85 -24 200 -30 255 -6 55 -15 132 -20 170 l-9 70 5
-85z"/>
<path d="M4777 4755 c3 -27 9 -72 13 -100 7 -38 7 -31 3 30 -3 44 -9 89 -14
100 -5 12 -6 0 -2 -30z"/>
<path d="M4065 4726 c-67 -23 -70 -25 -73 -59 l-3 -34 64 -7 c38 -4 74 -2 88
4 23 10 23 10 -3 5 -15 -3 -53 -2 -83 1 -53 6 -56 8 -53 32 3 21 13 29 68 48
81 29 197 33 207 8 21 -57 -64 -116 -171 -118 -33 0 -70 3 -81 8 -17 8 -18 7
-7 -5 20 -21 136 -16 197 8 55 22 77 51 73 98 l-3 30 -75 2 c-56 2 -92 -4
-145 -21z"/>
<path d="M4248 4703 c-14 -14 -22 -15 -43 -5 -35 16 -43 15 -55 -8 -7 -14 -7
-20 0 -20 5 0 10 7 10 15 0 18 14 19 41 4 23 -12 55 -4 63 16 7 19 4 19 -16
-2z"/>
<path d="M4095 4698 c11 -6 23 -16 27 -22 5 -7 8 -8 8 0 0 15 -22 34 -39 34
-12 -1 -11 -4 4 -12z"/>
<path d="M830 4291 c0 -24 13 -33 35 -25 23 9 14 38 -13 42 -16 3 -22 -2 -22
-17z m31 -4 c-1 -12 -15 -9 -19 4 -3 6 1 10 8 8 6 -3 11 -8 11 -12z"/>
<path d="M3350 4233 c-24 -3 -81 -22 -142 -45 -16 -6 -28 -15 -28 -20 0 -7 4
-7 13 -1 21 17 102 43 174 58 60 12 47 19 -17 8z"/>
<path d="M3150 4187 c-19 -32 -64 -60 -96 -60 -7 0 -15 -6 -18 -14 -6 -16 10
-18 20 -2 3 6 15 9 25 6 11 -3 19 -1 19 3 0 5 9 11 19 15 20 6 66 73 57 83 -3
2 -15 -11 -26 -31z"/>
<path d="M3697 4204 c-6 -7 144 -84 163 -84 5 0 13 -6 17 -13 13 -22 56 -47
79 -47 12 0 27 -7 34 -15 11 -13 9 -15 -13 -15 -13 0 -44 7 -67 15 -23 8 -60
15 -81 15 -22 0 -39 5 -39 10 0 6 -8 10 -17 10 -15 0 -14 -2 3 -15 10 -8 33
-15 50 -15 17 0 54 -7 83 -16 29 -8 62 -14 74 -12 23 3 63 -21 103 -61 13 -13
24 -19 24 -12 0 6 -8 18 -17 26 -10 8 -39 33 -64 55 -25 22 -54 40 -63 40 -24
0 -58 20 -74 42 -7 10 -19 18 -25 18 -17 0 -135 58 -142 70 -7 11 -19 13 -28
4z"/>
<path d="M3349 4156 c-36 -26 -115 -66 -131 -66 -4 0 -13 -11 -18 -25 -10 -26
-35 -33 -44 -12 -3 6 -4 3 -3 -7 1 -10 -4 -21 -12 -24 -10 -3 -11 1 -5 19 8
25 7 69 -1 77 -7 7 -35 -19 -35 -32 0 -6 7 -2 15 8 14 19 15 18 15 -13 0 -29
-2 -32 -15 -21 -10 9 -15 9 -15 1 0 -6 5 -11 11 -11 6 0 9 -6 6 -12 -2 -7 -13
-11 -23 -10 -10 2 -16 1 -12 -3 25 -26 122 0 131 35 2 9 26 24 53 34 27 10 55
26 62 34 10 14 12 12 12 -12 0 -23 3 -27 18 -21 9 4 51 10 92 12 41 3 80 9 86
14 6 5 22 8 35 7 13 -1 43 2 66 6 35 6 42 5 46 -11 4 -16 5 -16 6 0 1 23 33
22 49 -3 7 -11 23 -20 36 -20 13 0 40 -7 60 -15 20 -8 36 -13 36 -11 0 9 -64
36 -85 36 -12 0 -30 10 -41 21 -19 22 -48 22 -179 4 -16 -3 -67 -9 -112 -14
-45 -5 -87 -12 -94 -16 -7 -5 -10 -3 -7 5 2 7 12 14 22 16 10 1 23 7 29 13 7
7 1 8 -21 2 -17 -5 -34 -6 -37 -2 -7 12 44 32 68 26 12 -3 33 -7 47 -9 14 -3
36 -8 50 -11 l25 -6 -25 14 c-14 8 -48 17 -76 21 -44 5 -55 3 -85 -18z"/>
<path d="M3424 4088 c9 -6 -41 -11 -70 -7 -4 0 -10 -5 -14 -11 -4 -7 -34 -16
-66 -21 l-59 -8 58 3 c53 2 57 1 57 -20 0 -13 -4 -26 -10 -29 -5 -3 -9 -18 -9
-33 1 -21 2 -22 6 -7 7 29 17 36 51 37 17 1 29 5 26 10 -4 5 -17 7 -30 4 -20
-5 -24 -3 -24 18 0 13 6 29 14 35 21 18 346 32 366 16 31 -25 46 -29 27 -8 -9
11 -15 22 -13 24 2 2 -69 4 -159 4 -90 0 -158 -3 -151 -7z"/>
<path d="M2830 4055 c-23 -13 -23 -14 -4 -15 11 0 25 5 31 11 8 8 26 8 64 0
59 -11 114 -12 104 -2 -4 3 -23 6 -43 7 -21 0 -57 3 -82 7 -32 5 -52 3 -70 -8z"/>
<path d="M3041 4052 c-1 -13 3 -20 9 -17 6 3 10 1 10 -4 0 -15 -123 -14 -138
1 -8 8 -12 8 -12 1 0 -17 26 -23 91 -23 33 0 67 -4 77 -9 9 -5 32 -16 50 -23
18 -7 35 -21 38 -30 3 -10 9 -18 14 -18 5 0 4 11 -2 25 -6 14 -17 25 -25 25
-7 0 -21 4 -31 9 -9 5 -25 12 -34 15 -11 3 -18 15 -18 31 0 15 -4 24 -9 21 -5
-4 -12 0 -14 6 -3 7 -6 3 -6 -10z"/>
<path d="M2692 4054 c3 -3 25 -7 48 -9 23 -2 40 -1 36 2 -3 3 -24 7 -47 9 -23
2 -40 1 -37 -2z"/>
<path d="M2616 4035 c-11 -8 -32 -15 -47 -15 -44 0 -95 -27 -131 -70 -19 -22
-39 -40 -44 -40 -5 0 -22 -14 -38 -30 -28 -29 -56 -39 -56 -21 0 5 -11 11 -25
13 -14 3 -25 1 -25 -3 0 -5 9 -9 19 -9 25 0 37 -18 22 -33 -9 -9 -14 -9 -19 1
-8 11 -66 17 -265 26 -43 2 -79 0 -81 -3 -3 -3 57 -8 132 -9 75 -2 144 -8 153
-12 9 -5 19 -7 22 -3 3 3 14 2 24 -1 14 -6 9 -15 -34 -55 -54 -53 -65 -75 -51
-106 8 -19 8 -19 4 2 -5 28 18 60 79 113 28 24 52 47 53 51 2 5 9 9 16 9 7 0
26 13 42 30 16 16 33 30 38 30 5 0 25 18 44 40 39 46 86 74 112 67 10 -3 32 3
48 13 16 10 38 20 48 23 18 4 18 5 -1 6 -11 0 -29 -6 -39 -14z"/>
<path d="M2884 4032 c4 -7 -31 -9 -116 -8 -68 2 -97 1 -66 -1 55 -4 58 -6 68
-36 l10 -32 -5 31 -4 32 64 -6 c43 -3 65 -1 65 6 0 6 -5 14 -12 18 -6 4 -8 3
-4 -4z"/>
<path d="M3812 4025 c2 -12 14 -21 33 -26 17 -3 49 -17 72 -30 59 -33 193
-138 193 -150 0 -6 -5 -7 -11 -4 -28 18 44 -95 75 -116 42 -29 57 -63 60 -142
1 -32 6 -61 12 -65 21 -13 36 -54 29 -79 -7 -31 3 -83 16 -83 6 0 5 9 -2 21
-6 12 -8 36 -5 54 6 33 -9 83 -29 97 -6 4 -2 13 10 22 11 8 23 11 27 8 4 -4
12 -43 18 -87 6 -44 18 -101 26 -128 9 -26 14 -56 11 -67 -3 -11 -1 -23 4 -26
11 -6 12 -64 1 -64 -11 0 -42 138 -35 158 5 13 3 14 -6 6 -10 -9 -9 -27 5 -85
9 -41 20 -78 25 -84 4 -5 17 -46 28 -90 11 -44 27 -99 35 -121 10 -30 11 -45
4 -52 -6 -6 -13 -57 -15 -113 -6 -160 -35 -241 -115 -323 -15 -17 -28 -33 -28
-37 0 -4 -13 -4 -30 1 -18 5 -30 5 -30 -1 0 -5 11 -9 25 -9 17 0 25 -6 25 -16
0 -11 9 -4 23 17 13 19 34 46 48 61 57 61 88 163 93 308 1 47 7 95 14 106 6
12 9 23 7 25 -2 3 -16 45 -30 94 -18 62 -27 120 -30 185 -2 56 -9 110 -18 130
-9 19 -21 74 -27 122 -6 48 -17 99 -24 114 -8 14 -13 35 -11 46 2 10 -2 21
-10 24 -8 3 -17 22 -21 42 -4 21 -13 50 -21 66 -11 20 -12 31 -4 39 8 8 11 6
11 -8 0 -18 1 -18 13 -1 11 16 23 17 96 11 74 -7 83 -10 91 -31 9 -22 47 -392
70 -679 6 -71 15 -166 20 -210 14 -114 13 -121 -20 -152 l-30 -28 10 -85 c5
-47 11 -121 14 -165 3 -44 10 -131 15 -193 6 -62 12 -132 12 -155 1 -23 7 -67
15 -98 17 -70 18 -67 -3 -72 -14 -4 -12 -5 5 -6 26 -1 28 14 8 79 -7 25 -14
65 -14 90 -1 25 -6 97 -12 160 -6 63 -13 151 -16 195 -3 44 -9 116 -14 160 -7
68 -6 83 8 98 23 26 32 9 37 -71 3 -40 9 -112 15 -160 10 -96 26 -262 36 -392
8 -104 9 -108 17 -116 3 -4 4 4 2 17 -2 13 -6 58 -9 99 -14 175 -42 469 -52
534 -5 33 -4 38 10 33 21 -8 21 2 0 17 -10 8 -16 28 -16 57 -1 79 -73 891 -89
994 -5 38 -13 73 -17 77 -4 4 -56 10 -115 13 -94 5 -108 3 -114 -11 -3 -9 -1
-26 6 -37 7 -11 15 -31 17 -46 3 -14 14 -43 24 -63 14 -27 16 -38 7 -42 -9 -3
-9 -5 1 -5 6 -1 12 -10 12 -20 0 -13 -6 -18 -17 -17 -13 2 -18 13 -19 37 0 19
-6 47 -12 62 -7 16 -12 31 -12 35 -1 4 -21 22 -45 40 -25 18 -45 39 -45 46 0
13 20 26 45 31 6 1 14 3 18 3 4 1 3 11 -3 21 -8 16 -6 20 8 24 9 2 6 3 -7 2
-16 -2 -25 3 -28 16 -3 11 -8 19 -12 19 -3 0 -19 12 -36 28 -45 42 -97 82
-106 82 -5 0 -6 -7 -3 -15 4 -8 10 -13 14 -10 4 2 16 -5 26 -17 18 -20 18 -21
1 -15 -11 4 -16 3 -12 -4 4 -5 14 -7 24 -4 16 5 43 -18 111 -99 17 -20 20 -27
9 -23 -9 3 -26 -1 -37 -8 -24 -18 -32 -10 -26 24 4 22 -1 30 -33 50 -22 14
-32 26 -25 29 7 2 20 -2 30 -10 15 -12 16 -11 3 5 -10 12 -22 16 -37 13 -13
-4 -27 0 -35 10 -7 8 -33 27 -58 41 -91 51 -95 55 -80 64 10 6 8 8 -8 6 -12 0
-19 -5 -17 -9 3 -4 -2 -8 -10 -8 -8 0 -20 8 -26 18 -10 16 -11 15 -8 -3z"/>
<path d="M2546 3974 c-11 -8 -26 -14 -34 -14 -8 0 -25 -9 -39 -20 -29 -23 -17
-28 13 -5 10 8 26 15 35 15 18 0 56 26 49 33 -3 3 -14 -1 -24 -9z"/>
<path d="M145 3871 c-114 -5 -67 -7 193 -8 345 -2 411 -6 424 -27 4 -6 8 -46
8 -88 0 -68 2 -79 21 -89 16 -8 24 -8 33 1 8 8 7 10 -4 6 -29 -11 -38 9 -41
97 -3 58 -8 90 -17 96 -7 4 -97 9 -200 10 -103 1 -205 3 -227 4 -22 2 -107 1
-190 -2z"/>
<path d="M1870 3860 c-19 -5 -183 -7 -365 -4 -326 4 -521 -1 -544 -16 -7 -4
-18 -39 -25 -79 -6 -40 -15 -69 -19 -64 -5 4 -5 0 -1 -10 11 -29 21 -10 27 51
8 75 14 89 40 99 12 4 220 8 462 8 329 0 445 3 460 12 23 14 15 15 -35 3z"/>
<path d="M2381 3839 c-12 -19 -21 -37 -21 -40 0 -4 -13 -9 -30 -12 -16 -4 -30
-12 -30 -18 0 -7 -8 -21 -17 -32 -17 -19 -17 -20 5 -8 12 6 22 18 22 27 0 8
13 17 29 20 16 3 34 16 39 28 6 11 11 15 11 8 1 -7 6 -10 12 -6 8 4 7 9 -2 14
-10 7 -10 11 1 24 7 9 10 19 7 22 -3 4 -15 -9 -26 -27z"/>
<path d="M876 3824 c-3 -9 -6 -26 -6 -39 0 -17 -7 -25 -22 -28 -23 -4 -23 -4
1 -6 20 -1 21 -3 11 -16 -7 -8 -23 -15 -37 -15 -20 0 -22 -2 -11 -14 9 -10 15
-11 20 -2 5 8 11 7 20 -2 10 -10 10 -14 -1 -21 -9 -6 -10 -11 -3 -15 6 -4 16
2 21 13 14 26 14 34 -1 25 -8 -5 -9 -2 -4 12 4 10 10 30 12 44 10 61 15 72 29
66 8 -3 16 -2 19 2 2 4 -6 9 -19 10 -13 1 -26 -5 -29 -14z"/>
<path d="M4226 3815 c-26 -19 -6 -19 30 0 23 12 25 15 9 15 -11 -1 -29 -7 -39
-15z"/>
<path d="M4493 3760 c0 -25 2 -35 4 -22 2 12 2 32 0 45 -2 12 -4 2 -4 -23z"/>
<path d="M4175 3771 c19 -8 18 -9 -5 -13 -22 -5 -22 -5 -3 -7 12 0 24 -9 26
-18 3 -10 4 -4 3 12 -2 21 -8 31 -22 32 -18 3 -18 2 1 -6z"/>
<path d="M2226 3731 c-16 -16 -25 -34 -22 -39 4 -6 2 -13 -4 -17 -5 -3 -10
-11 -10 -17 0 -6 6 -6 15 2 9 7 14 18 12 24 -3 6 9 26 26 44 17 17 26 32 21
32 -6 0 -23 -13 -38 -29z"/>
<path d="M4496 3680 c22 -154 23 -159 17 -75 -3 44 -9 87 -14 95 -5 9 -6 2 -3
-20z"/>
<path d="M2139 3658 c-3 -47 -10 -63 -43 -97 -21 -21 -36 -45 -35 -52 4 -16
-23 -71 -57 -115 -61 -82 -133 -410 -102 -467 19 -37 49 -189 52 -269 1 -43 5
-80 8 -83 3 -3 4 31 2 77 -4 85 -33 238 -52 275 -20 38 13 254 57 368 19 49
69 133 110 187 12 14 21 34 21 42 0 24 41 77 68 87 12 5 22 14 22 20 0 8 -4 8
-15 -1 -19 -16 -40 -3 -25 15 8 9 8 15 0 20 -5 3 -10 0 -11 -7z m-58 -151 c-8
-8 -11 -7 -11 4 0 20 13 34 18 19 3 -7 -1 -17 -7 -23z"/>
<path d="M4155 3630 c-4 -6 5 -24 19 -41 14 -17 26 -38 27 -47 0 -14 2 -14 8
2 5 13 -1 27 -22 49 -26 29 -27 32 -10 38 16 7 16 8 1 8 -9 1 -20 -4 -23 -9z"/>
<path d="M2180 3591 c0 -5 -8 -12 -17 -14 -14 -4 -12 -5 5 -6 13 -1 22 5 22
14 0 8 -2 15 -5 15 -3 0 -5 -4 -5 -9z"/>
<path d="M2113 3490 c-13 -16 -23 -34 -23 -42 0 -7 6 -5 12 7 6 11 21 27 31
36 11 9 16 18 11 21 -5 3 -19 -7 -31 -22z"/>
<path d="M4522 3470 c0 -25 5 -88 12 -140 8 -52 14 -81 14 -65 0 17 -5 80 -12
140 -8 61 -14 90 -14 65z"/>
<path d="M799 3452 c-44 -5 -63 -36 -65 -104 -2 -33 -7 -65 -13 -71 -6 -6 -11
-18 -11 -26 0 -40 32 50 34 97 3 59 24 88 66 94 18 2 26 -2 28 -17 3 -10 17
-31 33 -46 33 -31 34 -42 19 -182 -14 -134 -18 -247 -9 -252 4 -3 6 6 5 20 -2
14 3 91 10 172 19 218 19 220 -16 253 -16 15 -30 35 -30 43 0 18 -16 24 -51
19z"/>
<path d="M4210 3415 c0 -25 4 -45 9 -45 4 0 6 11 3 25 -3 20 0 25 17 25 24 0
28 25 5 34 -29 11 -34 6 -34 -39z m40 19 c0 -2 -7 -4 -15 -4 -8 0 -15 4 -15
10 0 5 7 7 15 4 8 -4 15 -8 15 -10z"/>
<path d="M2020 3329 c-7 -11 -9 -27 -6 -34 2 -7 -2 -16 -11 -19 -9 -4 -13 -9
-10 -13 10 -10 36 17 31 32 -3 7 -1 23 6 34 6 12 8 21 6 21 -3 0 -10 -9 -16
-21z"/>
<path d="M4271 3300 c0 -15 -6 -31 -12 -37 -8 -8 -5 -17 10 -32 15 -15 21 -17
21 -7 0 8 -7 17 -16 20 -13 5 -14 9 -4 21 6 7 10 24 7 37 -4 22 -4 22 -6 -2z"/>
<path d="M4392 3155 c0 -16 2 -22 5 -12 2 9 2 23 0 30 -3 6 -5 -1 -5 -18z"/>
<path d="M230 3145 c0 -2 15 -11 34 -19 23 -9 35 -23 40 -42 12 -48 31 -69 64
-72 17 -1 43 -7 57 -12 15 -6 49 -10 76 -10 44 0 51 3 59 26 6 14 10 38 10 54
0 24 -7 33 -41 50 -23 12 -43 20 -45 17 -2 -2 13 -12 34 -23 40 -22 52 -56 32
-94 -13 -24 -57 -26 -143 -5 -87 20 -113 48 -57 60 16 4 32 10 35 15 3 5 -9 5
-27 -1 -45 -12 -48 -12 -48 11 0 11 -2 20 -4 20 -2 0 -20 7 -40 15 -20 8 -36
13 -36 10z"/>
<path d="M1946 3084 c-3 -26 -4 -49 -2 -52 3 -2 8 17 11 43 4 25 5 48 3 51 -3
2 -8 -17 -12 -42z"/>
<path d="M4320 3115 c0 -8 4 -15 10 -15 5 0 7 7 4 15 -4 8 -8 15 -10 15 -2 0
-4 -7 -4 -15z"/>
<path d="M4576 3025 c3 -11 8 -49 10 -85 4 -93 11 -177 45 -515 16 -165 36
-372 44 -460 8 -88 17 -173 20 -190 2 -16 9 -82 15 -145 5 -63 21 -236 35
-383 32 -339 32 -311 -4 -292 -16 8 -32 23 -35 32 -3 10 -12 97 -21 193 -48
568 -52 600 -71 593 -8 -3 -14 -11 -14 -18 0 -7 -8 -19 -19 -26 -10 -8 -22
-27 -26 -43 -5 -26 -4 -28 10 -16 8 7 14 19 13 26 -2 7 2 13 7 12 6 0 9 -4 8
-9 -2 -5 2 -9 8 -9 6 0 9 7 5 15 -3 8 -2 25 3 37 8 21 9 20 15 -12 6 -34 21
-196 52 -553 16 -197 22 -222 56 -232 13 -4 26 -12 30 -18 19 -30 17 65 -7
318 -14 154 -30 330 -36 390 -5 61 -12 124 -14 140 -3 17 -12 102 -20 190 -8
88 -28 295 -44 460 -31 313 -40 419 -45 520 -1 33 -8 69 -15 80 -12 20 -12 20
-5 0z"/>
<path d="M4351 3014 c0 -11 3 -14 6 -6 3 7 2 16 -1 19 -3 4 -6 -2 -5 -13z"/>
<path d="M4362 2949 c-1 -22 4 -42 13 -49 10 -9 15 -9 15 -1 0 6 -4 11 -9 11
-6 0 -12 17 -14 38 l-4 37 -1 -36z"/>
<path d="M1065 2924 c-85 -6 -148 -7 -160 -2 -14 6 -53 2 -120 -12 -55 -12
-119 -25 -143 -29 -47 -9 -59 -16 -43 -26 6 -3 11 -2 11 3 0 6 17 12 38 15 20
3 81 14 135 26 65 14 103 18 115 12 10 -5 73 -4 165 3 81 6 151 9 156 6 32
-21 40 -89 13 -113 -24 -22 -122 -61 -192 -77 -58 -13 -147 -54 -215 -99 -22
-14 -49 -31 -59 -36 -10 -6 -30 -42 -44 -80 -13 -38 -32 -80 -40 -94 -9 -13
-17 -32 -19 -42 -6 -40 36 -16 123 69 49 49 103 98 119 109 53 36 397 131 500
137 50 3 105 10 123 15 27 8 34 7 42 -9 14 -26 12 -83 -2 -103 -15 -20 -138
-71 -222 -93 -34 -9 -72 -22 -86 -29 -14 -8 -63 -31 -110 -53 -72 -33 -91 -47
-128 -95 -24 -30 -68 -74 -98 -98 -53 -40 -71 -79 -38 -79 17 0 151 113 192
162 24 29 61 50 92 53 19 2 79 34 65 34 -14 1 -83 -24 -91 -32 -4 -4 -15 -7
-25 -7 -10 0 -32 -17 -51 -38 -33 -39 -172 -162 -182 -162 -18 0 1 23 48 59
30 23 70 62 89 86 19 25 37 41 41 37 4 -4 6 0 4 8 -3 17 196 121 267 140 92
25 236 84 245 101 15 28 12 106 -5 123 -12 11 -22 12 -48 5 -17 -5 -72 -12
-122 -15 -67 -4 -138 -20 -280 -61 -104 -30 -206 -64 -225 -75 -20 -10 -76
-59 -124 -109 -49 -49 -93 -89 -98 -89 -5 0 1 19 13 43 13 23 32 69 44 101 20
55 27 63 86 99 99 61 170 94 235 111 81 21 166 55 187 73 30 27 14 127 -21
135 -9 2 -80 -1 -157 -8z"/>
<path d="M1010 2888 c-25 -5 -62 -7 -83 -4 -32 3 -36 2 -26 -10 9 -11 9 -17
-1 -29 -18 -21 6 -28 55 -15 l40 10 -42 -4 c-24 -2 -43 -1 -43 2 1 22 25 30
115 41 131 17 139 19 80 19 -27 0 -70 -4 -95 -10z"/>
<path d="M80 2870 l-85 -6 83 -2 c78 -2 87 -5 84 -33 -1 -3 -4 -42 -7 -85 -4
-43 -8 -81 -10 -84 -2 -3 -6 -37 -10 -75 -4 -39 -9 -72 -10 -75 -5 -10 -17
-155 -12 -150 3 3 8 34 12 70 3 36 8 72 10 80 2 8 7 44 10 80 4 36 8 67 10 70
5 8 18 161 16 189 -1 19 2 21 13 12 23 -19 75 -31 82 -19 4 6 3 9 -2 5 -5 -3
-27 3 -48 14 -22 10 -42 18 -45 17 -3 -1 -44 -5 -91 -8z"/>
<path d="M1870 2735 c-8 -77 -15 -196 -15 -265 -1 -69 -5 -156 -10 -195 -4
-38 -9 -88 -10 -110 -1 -36 -4 -40 -26 -38 -21 2 -22 1 -6 -8 9 -5 22 -7 28
-4 12 8 1 -145 -11 -159 -8 -8 -135 -10 -210 -3 -19 2 -55 0 -80 -4 -40 -6
-37 -7 25 -7 39 0 114 -1 169 -2 54 -1 102 2 107 7 5 5 11 74 14 153 3 80 8
163 12 185 3 22 7 105 8 185 1 80 8 198 15 262 6 64 10 123 8 130 -3 7 -11
-50 -18 -127z"/>
<path d="M461 2815 c-29 -17 -58 -25 -91 -25 -27 0 -51 -3 -54 -8 -10 -16 121
5 162 26 39 21 52 32 35 32 -5 0 -28 -11 -52 -25z"/>
<path d="M545 2830 c-2 -4 12 -7 31 -8 19 -2 34 1 34 5 0 9 -60 11 -65 3z"/>
<path d="M513 2800 c-13 -5 -23 -15 -23 -21 0 -7 -7 -21 -17 -31 -9 -10 -13
-21 -10 -24 3 -4 16 9 27 29 21 36 67 56 91 41 8 -4 9 -3 5 4 -8 14 -42 15
-73 2z"/>
<path d="M255 2776 c-2 -12 -6 -43 -8 -70 -3 -28 -12 -55 -20 -61 -8 -6 -18
-33 -21 -60 l-5 -50 10 45 c6 25 17 50 25 57 10 7 18 37 22 76 l7 65 27 -23
27 -23 -59 -115 c-32 -64 -61 -111 -64 -104 -3 7 -3 2 -1 -9 4 -14 -15 -65
-55 -144 -65 -133 -83 -203 -114 -465 -17 -139 -28 -453 -15 -420 4 11 8 85 8
165 1 146 17 297 51 488 15 83 30 127 78 225 139 286 182 376 182 382 0 4 -11
16 -25 27 -14 11 -23 23 -21 27 3 4 -2 8 -10 8 -8 0 -16 -10 -19 -21z"/>
<path d="M2322 2787 c-24 -11 -72 -93 -72 -122 0 -17 -16 -20 -25 -5 -8 14
-45 13 -45 -1 0 -6 11 -20 25 -31 14 -11 22 -24 19 -30 -4 -7 -2 -8 4 -4 12 7
80 -24 115 -53 10 -8 17 -10 17 -3 0 6 -5 14 -11 18 -8 4 -7 9 2 16 9 6 5 7
-12 2 -28 -6 -37 2 -44 38 -3 12 -9 26 -15 32 -8 8 -9 5 -4 -9 7 -17 6 -18 -8
-7 -26 21 8 104 61 149 29 25 27 27 -7 10z m-85 -153 c18 -14 37 -23 41 -20 5
3 9 -1 9 -9 0 -8 -3 -15 -7 -15 -8 0 -90 60 -90 66 0 9 15 2 47 -22z"/>
<path d="M448 2773 c-10 -2 -18 -10 -18 -17 0 -14 -58 -38 -74 -30 -6 3 -2 -2
8 -10 17 -13 22 -14 35 -2 9 7 24 16 34 19 10 4 15 11 12 17 -3 5 1 10 9 10 8
0 18 5 21 10 6 10 2 11 -27 3z"/>
<path d="M2324 2759 c-4 -7 0 -9 13 -5 11 3 38 -3 63 -15 24 -12 61 -23 83
-24 49 -4 80 -30 57 -46 -13 -9 -13 -10 1 -6 9 3 22 0 28 -6 7 -7 11 -7 11 0
0 15 -47 63 -62 64 -38 2 -76 12 -112 30 -45 21 -72 24 -82 8z"/>
<path d="M403 2693 c-24 -25 -17 -31 11 -10 11 8 17 18 15 23 -2 5 -14 -1 -26
-13z"/>
<path d="M348 2673 c-18 -23 -17 -55 2 -61 12 -4 13 -2 3 10 -10 11 -9 19 3
37 19 27 13 38 -8 14z"/>
<path d="M2761 2679 c-35 -5 -66 -11 -69 -14 -3 -3 24 -2 59 2 35 4 80 8 101
8 20 0 34 3 32 6 -5 8 -46 7 -123 -2z"/>
<path d="M1405 2670 c-25 -11 1 -11 35 0 20 6 21 8 5 8 -11 0 -29 -3 -40 -8z"/>
<path d="M1323 2663 c9 -2 25 -2 35 0 9 3 1 5 -18 5 -19 0 -27 -2 -17 -5z"/>
<path d="M598 2646 c-45 -16 -97 -56 -98 -76 0 -8 -6 -27 -14 -41 -8 -15 -10
-32 -6 -40 5 -7 4 -21 -2 -32 -16 -30 -3 -30 17 -1 25 39 65 74 84 74 18 0 45
36 36 49 -2 5 2 14 10 21 12 10 15 9 15 -6 0 -16 2 -16 9 -4 6 8 7 19 3 25 -4
5 -5 18 -4 28 4 20 -1 20 -50 3z m42 -6 c0 -5 -10 -18 -22 -30 -12 -11 -19
-23 -15 -26 8 -8 -10 -44 -22 -44 -5 0 -7 10 -4 23 4 17 1 15 -15 -9 -25 -39
-41 -49 -53 -37 -26 26 46 111 106 126 11 2 21 5 23 6 1 0 2 -3 2 -9z m-130
-139 c0 -6 -4 -13 -10 -16 -5 -3 -10 1 -10 9 0 9 5 16 10 16 6 0 10 -4 10 -9z"/>
<path d="M1278 2653 c7 -3 16 -2 19 1 4 3 -2 6 -13 5 -11 0 -14 -3 -6 -6z"/>
<path d="M2725 2651 c-11 -5 -23 -7 -27 -4 -5 2 -8 -3 -8 -12 0 -14 3 -14 31
1 24 12 51 15 105 12 40 -2 70 0 68 4 -7 10 -143 9 -169 -1z"/>
<path d="M2002 2633 c-7 -2 -17 -14 -23 -26 -12 -22 -12 -22 13 1 41 37 88 24
88 -25 0 -29 -7 -29 -29 -2 -21 26 -56 19 -68 -14 -4 -12 -8 -69 -8 -127 0
-58 -3 -152 -7 -210 -6 -98 -5 -99 3 -25 5 44 11 142 12 218 3 112 6 141 20
154 15 16 18 15 40 -5 13 -12 29 -22 35 -22 16 0 16 62 0 78 -12 12 -52 15
-76 5z"/>
<path d="M2571 2590 c-48 -46 -56 -50 -100 -50 -26 0 -52 5 -58 11 -19 19 -43
3 -41 -26 3 -27 8 -30 88 -43 31 -5 46 -13 48 -25 4 -20 -27 -23 -47 -4 -11
10 -13 9 -9 -3 3 -8 14 -16 25 -18 17 -3 22 -15 32 -72 11 -72 50 -171 77
-202 9 -9 13 -22 8 -30 -4 -7 -4 -10 1 -6 4 4 30 -9 57 -28 50 -37 135 -75
166 -73 9 0 -1 6 -22 12 -35 11 -27 12 75 12 102 0 119 3 159 25 25 14 60 24
80 24 27 -1 29 0 7 3 l-28 4 35 39 c39 43 90 134 63 112 -9 -8 -19 -22 -22
-31 -4 -15 -22 -19 -54 -12 -2 1 1 7 7 14 8 9 4 15 -13 23 -19 9 -22 9 -18 -2
3 -8 9 -14 15 -14 5 0 7 -4 3 -9 -3 -5 -1 -12 5 -16 6 -4 7 -12 3 -18 -4 -7 1
-6 10 2 10 8 20 11 23 8 10 -9 -66 -85 -114 -114 -44 -26 -54 -28 -152 -28
-96 1 -109 3 -151 28 -122 72 -189 187 -189 324 0 65 25 137 43 126 6 -3 7 -1
3 5 -7 12 12 35 54 65 l25 17 -30 -14 c-36 -17 -67 -49 -89 -94 -15 -28 -21
-33 -44 -28 -15 3 -44 8 -64 12 -43 7 -67 29 -51 45 8 8 13 7 17 0 4 -6 34
-11 66 -11 58 0 60 1 110 51 28 28 49 53 47 56 -3 2 -28 -19 -56 -47z m-8
-342 c36 -73 87 -131 150 -167 28 -17 46 -31 39 -31 -25 0 -102 52 -137 93
-68 79 -116 227 -98 300 6 26 9 15 14 -55 4 -64 13 -100 32 -140z"/>
<path d="M864 2603 c-3 -10 -10 -27 -16 -38 -10 -17 -9 -18 4 -7 9 7 18 24 21
37 5 29 -1 34 -9 8z"/>
<path d="M3980 2600 c-11 -11 -24 -20 -28 -20 -5 0 -17 -10 -28 -22 l-19 -22
37 22 c23 15 39 19 43 12 3 -6 10 -8 15 -5 10 6 95 -34 87 -41 -3 -3 -1 -21 3
-40 8 -35 4 -39 -24 -28 -14 5 -14 9 -4 23 11 14 11 14 -3 4 -9 -7 -18 -10
-21 -8 -13 13 -108 43 -113 35 -2 -4 9 -10 26 -14 17 -3 53 -17 80 -30 48 -25
99 -32 79 -12 -6 6 -10 24 -10 41 0 16 -4 35 -8 41 -7 10 -66 38 -87 40 -5 1
-14 2 -19 3 -5 0 -1 10 9 21 10 11 15 20 12 20 -4 0 -16 -9 -27 -20z"/>
<path d="M2205 2563 c-4 -10 -11 -94 -15 -188 -8 -170 -14 -210 -31 -199 -5 3
-9 1 -9 -4 0 -6 6 -12 14 -15 20 -8 36 92 36 219 0 132 7 174 29 167 13 -4 14
-3 1 6 -26 18 -2 24 31 7 18 -9 37 -16 43 -15 13 1 -64 38 -80 39 -7 0 -15 -8
-19 -17z"/>
<path d="M2615 2554 l-20 -17 20 9 c11 5 84 9 162 9 131 0 144 -2 172 -22 17
-13 35 -23 41 -23 6 0 16 -12 22 -26 10 -20 9 -27 -2 -34 -9 -5 -20 -4 -30 3
-13 11 -13 10 -1 -5 11 -15 11 -18 0 -22 -42 -13 -44 -14 -24 -15 11 -1 33 8
48 18 16 10 39 17 50 15 l22 -5 -21 10 c-12 5 -24 21 -28 34 -4 17 -23 34 -58
53 -50 27 -61 29 -193 31 -119 3 -143 1 -160 -13z"/>
<path d="M3164 2541 c20 -21 26 -35 21 -50 -4 -15 -2 -21 6 -19 17 4 32 -67
25 -122 -4 -37 -3 -41 5 -20 12 28 3 147 -12 155 -5 4 -9 14 -9 24 0 10 -10
27 -23 39 -35 33 -45 27 -13 -7z"/>
<path d="M2786 2538 c3 -4 -7 -8 -22 -8 -15 0 -24 -3 -21 -7 4 -3 2 -12 -4
-20 -16 -19 -4 -16 17 4 16 16 18 16 33 -7 33 -51 51 -63 89 -57 35 6 82 41
82 61 0 6 -11 -1 -25 -16 -47 -51 -100 -46 -130 12 -14 27 -14 30 3 39 15 9
15 10 -5 8 -12 0 -19 -5 -17 -9z"/>
<path d="M2570 2511 c0 -6 8 -12 18 -12 18 -1 34 -4 42 -8 3 -2 16 -4 28 -5
13 -2 27 -7 30 -12 14 -19 91 -64 86 -49 -5 13 -1 13 35 0 23 -8 41 -10 41 -6
0 7 -50 22 -85 25 -13 1 -52 24 -76 44 -10 9 -36 17 -58 18 -21 1 -44 4 -50 8
-6 4 -11 2 -11 -3z"/>
<path d="M3761 2506 c4 -4 35 -9 70 -11 68 -3 102 -12 94 -25 -2 -4 6 -5 19
-3 38 8 66 -13 67 -50 1 -53 13 -72 45 -72 18 0 28 -5 27 -12 -2 -7 2 -13 7
-13 6 0 10 6 10 14 0 8 10 16 23 18 12 2 -2 4 -32 5 -60 1 -71 10 -71 64 0 39
4 36 -90 68 -40 14 -178 27 -169 17z"/>
<path d="M1265 2444 c-49 -19 -92 -37 -95 -41 -8 -8 36 6 118 38 65 25 86 29
178 29 58 0 114 -5 125 -10 23 -13 25 -50 4 -90 -15 -30 -79 -60 -171 -80 -57
-13 -127 -48 -181 -92 -62 -49 -195 -224 -226 -298 -27 -61 -27 -65 -11 -77
10 -7 45 -13 81 -13 59 0 64 2 73 26 6 14 10 49 10 77 0 62 33 139 79 181 25
24 42 31 90 34 54 4 61 2 75 -19 26 -41 48 -158 41 -217 -10 -79 -109 -386
-152 -470 -40 -78 -130 -196 -191 -249 -20 -18 -62 -45 -92 -60 -30 -14 -74
-41 -96 -60 -45 -37 -171 -217 -171 -245 1 -40 125 -6 345 93 23 11 71 25 105
32 63 13 90 8 120 -22 14 -14 37 -14 37 0 0 5 -3 8 -8 5 -4 -2 -24 6 -45 18
-35 21 -41 22 -100 11 -34 -6 -90 -24 -125 -38 -143 -62 -180 -76 -229 -92
-51 -17 -89 -17 -87 -2 1 5 30 51 64 102 68 104 118 150 204 191 31 15 81 51
111 80 l54 54 18 -30 c9 -17 21 -30 26 -30 10 0 1 18 -24 45 -18 20 -17 22 20
69 48 60 91 147 127 254 28 83 32 86 81 85 7 -1 10 3 7 8 -3 5 -16 6 -30 3
-13 -3 -24 -2 -24 2 0 5 14 51 30 102 41 132 46 190 21 286 -12 43 -26 85 -32
92 -14 17 -96 19 -136 3 -69 -26 -123 -122 -123 -220 0 -77 -10 -89 -78 -89
-84 0 -88 6 -57 74 32 69 170 248 228 295 53 42 137 81 250 116 81 25 90 30
103 61 8 18 14 47 14 64 0 42 -26 50 -158 50 -98 -1 -114 -4 -197 -36z"/>
<path d="M4183 2445 c-29 -13 -53 -29 -53 -36 0 -9 3 -9 14 0 8 7 36 23 63 36
62 31 44 31 -24 0z"/>
<path d="M247 2453 c-16 -15 -3 -21 66 -32 89 -14 106 -23 88 -45 -10 -12 -10
-16 -1 -16 6 0 14 9 17 20 4 13 11 19 22 16 25 -8 136 -17 129 -11 -3 3 -25 7
-49 10 -24 2 -69 10 -99 16 -30 6 -73 14 -95 18 -23 4 -39 12 -37 19 2 13 -30
17 -41 5z"/>
<path d="M2021 2424 c-6 -15 -9 -29 -7 -32 3 -2 11 7 17 22 14 29 40 34 59 11
13 -15 13 -15 -32 -19 -23 -2 -49 -65 -50 -117 0 -59 22 -99 55 -99 29 0 69
-51 56 -71 -5 -8 -8 -21 -8 -29 0 -8 7 -1 16 16 15 30 14 33 -8 63 -13 18 -32
31 -44 31 -36 0 -57 33 -57 89 1 51 24 101 46 101 7 0 21 6 31 14 16 12 17 16
6 30 -22 26 -66 20 -80 -10z"/>
<path d="M3128 2414 l44 -26 -34 -29 c-18 -15 -38 -28 -45 -29 -6 0 -15 -5
-19 -11 -4 -8 0 -9 15 -4 15 4 21 2 21 -9 0 -8 4 -17 9 -20 4 -3 6 5 4 18 -4
18 4 30 31 51 20 15 33 31 30 36 -3 5 0 9 6 9 15 0 4 -73 -16 -113 -12 -22
-20 -26 -42 -22 -22 4 -24 4 -7 -4 11 -5 26 -10 32 -10 18 -1 40 47 48 106 l7
52 -30 -1 c-16 -1 -40 6 -53 16 -13 9 -28 16 -34 16 -5 0 10 -12 33 -26z"/>
<path d="M3681 2426 c4 -4 42 -8 86 -10 89 -4 149 -28 177 -70 16 -25 15 -26
-1 -26 -10 0 -31 -8 -48 -17 -17 -9 -55 -16 -86 -17 -39 -1 -52 -4 -45 -12 12
-13 95 0 143 22 17 7 38 14 46 14 8 0 23 12 32 28 18 27 18 27 -2 9 -14 -12
-23 -15 -28 -8 -3 6 -1 11 6 11 15 0 -25 32 -68 54 -31 16 -225 36 -212 22z"/>
<path d="M3257 2386 c2 -11 -7 -42 -21 -68 -20 -38 -22 -48 -11 -48 8 0 14 3
13 8 0 4 6 24 15 44 10 21 17 44 17 52 0 8 6 16 12 18 7 3 3 7 -8 10 -17 4
-20 1 -17 -16z"/>
<path d="M3535 2373 c-35 -83 -40 -119 -27 -209 21 -142 81 -217 204 -255 77
-24 130 -24 211 1 94 29 110 45 123 124 6 36 7 63 3 61 -3 -3 -10 -29 -13 -59
-8 -61 -20 -76 -90 -106 -185 -83 -389 21 -425 216 -10 51 -9 61 5 71 9 6 14
18 11 25 -4 10 -6 10 -6 1 -1 -7 -6 -13 -12 -13 -17 0 -3 72 25 130 13 28 20
50 15 50 -5 0 -16 -17 -24 -37z"/>
<path d="M4111 2394 c0 -11 3 -14 6 -6 3 7 2 16 -1 19 -3 4 -6 -2 -5 -13z"/>
<path d="M4152 2398 c-17 -17 14 -64 65 -99 49 -34 98 -93 89 -108 -4 -6 -22
-5 -49 3 -47 14 -67 11 -67 -10 0 -20 -43 -100 -80 -150 -20 -26 -31 -53 -32
-75 0 -19 -5 -39 -10 -46 -13 -16 -36 -130 -42 -211 -9 -110 -73 -296 -118
-346 -10 -11 -18 -25 -18 -31 0 -6 -9 -17 -20 -25 -11 -8 -20 -20 -20 -26 0
-7 -27 -41 -60 -76 -33 -35 -59 -70 -59 -78 0 -16 89 -80 111 -80 14 -1 48
-24 48 -33 0 -3 -10 -7 -22 -9 -19 -3 -17 -5 8 -9 25 -4 31 -2 26 9 -4 12 2
14 31 8 47 -9 81 -27 106 -57 28 -33 26 -15 -1 24 -13 18 -21 34 -20 37 2 2
-1 6 -7 8 -6 2 -8 -3 -5 -12 6 -17 -11 -23 -20 -7 -4 5 -25 12 -49 16 -42 7
-99 35 -160 78 -18 12 -34 23 -36 24 -2 1 24 33 58 70 33 37 61 73 61 80 0 6
4 13 8 15 17 7 75 101 101 166 15 37 36 99 45 137 10 39 21 77 25 85 5 8 5 24
1 35 -7 20 20 181 34 204 4 6 12 9 17 5 5 -3 8 0 7 7 -2 9 41 12 187 10 l190
-2 21 -27 c12 -15 24 -25 27 -22 3 3 -5 17 -16 32 l-22 27 -200 3 -200 3 3 24
c2 14 19 44 38 66 30 37 47 70 75 142 7 20 10 21 51 9 50 -15 68 -11 68 15 0
17 -19 38 -130 143 -29 28 -37 42 -28 47 7 4 10 10 7 13 -3 3 -10 1 -17 -6z"/>
<path d="M3420 2384 c0 -10 -6 -14 -15 -11 -8 4 -17 2 -20 -3 -4 -6 1 -10 9
-10 9 0 23 -23 36 -57 12 -32 27 -67 35 -79 7 -11 15 -31 18 -45 4 -21 4 -20
6 7 0 16 -5 36 -11 43 -7 6 -13 15 -13 19 -1 4 -11 29 -23 56 -13 29 -20 57
-16 72 3 13 3 24 0 24 -3 0 -6 -7 -6 -16z"/>
<path d="M3810 2345 c-28 -29 -89 -34 -114 -9 -14 13 -16 13 -16 1 0 -36 96
-38 138 -2 16 13 33 20 38 16 5 -5 20 -12 34 -16 21 -5 20 -3 -8 14 -41 26
-44 26 -72 -4z"/>
<path d="M2109 2298 c-8 -32 -8 -51 2 -80 7 -21 14 -36 17 -34 2 3 -1 20 -7
37 -6 18 -8 48 -5 66 7 36 24 55 24 26 0 -10 7 -36 16 -58 15 -41 15 -39 -2
53 -9 45 -31 40 -45 -10z"/>
<path d="M4026 2263 c5 -73 12 -104 29 -123 8 -8 15 -38 18 -65 l3 -50 2 53
c1 38 -3 60 -17 80 -10 15 -21 50 -24 78 l-6 50 52 -23 c29 -13 65 -30 80 -38
15 -8 25 -10 22 -5 -4 6 -35 23 -69 39 -35 16 -66 34 -70 40 -4 6 -6 11 -4 11
14 0 114 -44 119 -52 4 -6 10 -1 14 12 4 12 2 27 -3 32 -8 8 -9 4 -5 -10 5
-21 5 -21 -56 3 -87 36 -89 35 -85 -32z"/>
<path d="M3260 2279 c-7 -11 -35 -48 -64 -82 -55 -66 -70 -87 -62 -87 11 0
134 151 139 170 7 26 1 25 -13 -1z"/>
<path d="M3409 2257 c7 -9 10 -17 6 -17 -5 0 -1 -8 7 -17 21 -25 29 -51 18
-58 -6 -4 -10 -1 -10 4 0 6 -4 11 -9 11 -5 0 6 -39 26 -87 28 -72 44 -96 84
-131 27 -24 49 -47 49 -52 0 -15 -44 -20 -53 -5 -4 8 -13 15 -19 15 -7 0 -7
-4 1 -13 6 -8 8 -17 4 -20 -3 -4 0 -7 7 -7 7 0 23 -8 34 -17 12 -10 15 -11 9
-3 -18 20 -16 27 8 33 17 5 20 2 16 -15 -4 -14 -3 -18 4 -11 19 19 -3 64 -53
106 -44 38 -79 91 -78 121 1 6 9 1 19 -11 26 -31 36 -29 14 2 -10 13 -23 25
-30 25 -16 0 -27 38 -14 53 11 14 -18 89 -40 103 -12 6 -12 5 0 -9z"/>
<path d="M4240 2242 c6 -13 14 -21 18 -18 3 4 -2 14 -12 24 -18 16 -18 16 -6
-6z"/>
<path d="M4108 2170 c2 -41 6 -77 8 -79 7 -8 2 104 -6 129 -4 14 -5 -8 -2 -50z"/>
<path d="M145 2213 c-16 -3 -34 -8 -38 -13 -5 -4 11 -4 35 1 81 15 152 11 197
-13 41 -22 161 -134 161 -150 0 -4 7 -8 15 -8 12 0 12 3 -2 19 -140 150 -175
172 -274 170 -35 -1 -77 -4 -94 -6z"/>
<path d="M2013 2176 c9 -7 17 -19 17 -26 0 -8 -10 -4 -25 10 -14 13 -25 19
-25 13 0 -13 33 -43 48 -43 7 0 12 8 12 18 0 20 -18 42 -34 42 -6 0 -3 -7 7
-14z"/>
<path d="M3095 2160 c-14 -23 -98 -71 -147 -85 -43 -12 -46 -15 -15 -11 49 6
119 42 154 78 15 15 24 28 20 28 -3 0 -9 -4 -12 -10z"/>
<path d="M2060 2152 c0 -6 -3 -17 -6 -26 -3 -9 -1 -16 6 -16 6 0 9 4 5 9 -8
14 15 25 28 12 7 -7 5 -16 -8 -31 -10 -11 -14 -20 -9 -20 5 -1 -7 -9 -26 -20
-19 -11 -28 -19 -20 -20 9 0 25 7 37 15 20 14 22 13 26 -2 2 -10 5 -4 5 12 0
17 2 38 4 48 2 11 -6 25 -19 34 -13 9 -23 11 -23 5z"/>
<path d="M1932 2029 c-18 -17 -32 -35 -32 -41 0 -5 16 7 35 27 42 42 51 43 59
10 4 -14 13 -25 20 -25 13 0 26 -19 32 -47 1 -7 -2 -13 -7 -13 -5 0 -9 -8 -9
-17 0 -13 -3 -14 -8 -5 -6 9 -13 7 -29 -7 -21 -20 -21 -20 -49 12 -16 18 -27
37 -26 42 2 6 -2 5 -8 -2 -10 -9 -4 -20 24 -48 35 -34 39 -36 55 -21 27 25 33
19 27 -26 -6 -44 -17 -433 -20 -663 l-1 -130 44 -3 c73 -5 85 2 114 68 30 67
42 77 33 27 -5 -28 -5 -29 4 -9 5 13 7 36 4 50 -5 22 -3 24 6 12 10 -13 11
-13 7 1 -3 9 4 31 14 49 11 18 18 34 15 37 -6 6 -44 -57 -75 -122 -48 -104
-44 -100 -103 -100 l-53 0 2 125 c3 305 16 648 24 682 9 35 10 36 42 27 17 -5
41 -9 52 -8 11 0 0 6 -25 12 -42 11 -67 37 -36 37 21 0 86 40 86 52 0 6 -15
-1 -34 -16 -41 -30 -49 -32 -67 -10 -12 15 -11 16 10 9 17 -5 21 -4 16 4 -4 7
-14 11 -23 10 -32 -3 -39 1 -50 26 -15 33 -32 32 -70 -6z"/>
<path d="M2159 2000 c-3 -8 -2 -35 2 -60 4 -25 10 -85 13 -134 4 -49 11 -112
17 -140 11 -52 54 -173 69 -191 4 -5 11 -34 15 -63 5 -41 3 -59 -10 -78 -9
-14 -14 -28 -12 -31 3 -2 13 7 22 21 13 20 15 38 10 87 -4 35 -13 72 -20 83
-39 60 -71 181 -80 305 -12 150 -21 216 -26 201z"/>
<path d="M1110 1984 c0 -12 7 -27 15 -34 19 -16 19 -10 0 26 -13 25 -15 26
-15 8z"/>
<path d="M3650 1961 c0 -10 30 -24 37 -17 3 2 -5 9 -16 16 -12 6 -21 7 -21 1z"/>
<path d="M4034 1949 c-14 -24 -121 -61 -199 -69 l-80 -9 75 3 c89 4 169 28
201 62 12 13 20 24 16 24 -3 0 -9 -5 -13 -11z"/>
<path d="M4450 1910 c22 -15 -6 -30 -45 -24 l-30 4 28 -9 c16 -6 35 -7 43 -4
9 3 22 -3 30 -16 8 -11 25 -21 38 -21 30 0 60 23 53 41 -4 10 -6 10 -6 -3 -1
-23 -46 -34 -66 -18 -9 7 -13 15 -11 17 6 7 -27 43 -39 43 -5 0 -3 -5 5 -10z"/>
<path d="M3085 1893 c-12 -9 -14 -14 -5 -11 56 19 58 18 101 -18 24 -20 51
-45 60 -55 14 -17 18 -17 23 -4 3 9 0 15 -9 15 -8 0 -15 3 -15 8 -1 15 -81 73
-108 76 -15 2 -36 -3 -47 -11z"/>
<path d="M3001 1854 c10 -32 79 -107 79 -86 0 6 -6 15 -12 19 -7 4 -21 18 -32
30 -16 19 -17 25 -5 40 11 15 11 16 -1 6 -11 -10 -16 -9 -27 5 -11 14 -11 12
-2 -14z"/>
<path d="M765 1849 c-45 -5 -32 -6 55 -6 63 0 126 -4 140 -7 24 -7 24 -7 5 6
-21 14 -103 17 -200 7z"/>
<path d="M3470 1835 c-13 -14 -29 -25 -36 -25 -31 0 -18 -15 14 -17 54 -3 82
5 82 23 0 10 6 14 15 10 26 -9 16 10 -10 22 -35 16 -38 16 -65 -13z m53 9 c13
-14 -14 -44 -40 -44 l-26 0 23 25 c24 26 32 29 43 19z"/>
<path d="M4419 1668 c10 -13 28 -18 63 -18 l50 0 -37 -45 c-44 -55 -71 -127
-80 -215 -11 -123 -16 -151 -26 -148 -6 2 -10 7 -9 12 1 5 -10 16 -24 26 -15
9 -23 20 -19 25 5 4 -2 3 -13 -3 -31 -16 -102 -105 -97 -120 3 -7 26 -33 51
-57 l47 -44 -40 4 c-39 5 -39 4 -7 -4 18 -5 42 -7 52 -4 15 4 8 13 -35 51 -29
26 -54 52 -54 57 -1 6 18 32 40 58 l42 48 23 -22 c13 -12 24 -32 24 -43 0 -17
2 -18 10 -6 8 13 11 13 26 -2 17 -16 16 -20 -10 -74 -15 -31 -30 -81 -33 -113
-9 -85 -14 -87 -93 -34 -95 62 -203 84 -280 56 -8 -3 -37 -5 -65 -5 l-50 0 50
-7 c28 -3 55 -4 60 0 24 15 94 17 147 5 32 -7 86 -32 128 -59 95 -61 101 -58
114 55 3 26 18 71 32 99 23 42 25 55 15 70 -17 28 8 281 30 295 5 3 9 12 9 20
0 9 19 38 42 65 48 57 43 74 -23 70 -22 -1 -48 4 -57 11 -15 12 -16 11 -3 -4z"/>
<path d="M4055 1660 c-14 -5 -6 -8 25 -8 25 1 107 0 184 -1 76 -1 141 0 144 3
2 3 -58 6 -134 6 -77 1 -152 3 -169 4 -16 2 -39 0 -50 -4z"/>
<path d="M1765 1640 c11 -5 27 -9 35 -9 9 0 8 4 -5 9 -11 5 -27 9 -35 9 -9 0
-8 -4 5 -9z"/>
<path d="M1428 1603 c19 -3 36 -11 39 -21 8 -24 85 -102 100 -102 7 0 13 -3
13 -7 0 -5 14 -16 30 -25 17 -9 30 -14 30 -10 0 4 -14 16 -31 26 l-31 18 46
47 c25 26 46 52 46 59 0 10 19 12 72 10 85 -3 84 -2 73 -113 -8 -86 -14 -97
-53 -99 -20 -1 -27 -4 -21 -11 6 -6 20 -5 40 2 l30 12 -7 -32 c-3 -18 -11 -35
-16 -38 -5 -3 -2 -9 7 -13 14 -5 17 -15 12 -52 -2 -25 -3 -43 0 -40 8 8 21 75
15 80 -3 4 -4 43 -2 88 2 46 4 115 4 153 l1 70 -72 3 -73 3 -58 -62 -59 -63
-39 43 c-21 24 -43 52 -48 62 -7 14 -19 19 -45 17 l-36 -1 33 -4z"/>
<path d="M3405 1439 c17 -6 39 -14 50 -19 11 -5 36 -14 57 -20 20 -6 39 -17
42 -25 3 -8 10 -15 15 -15 6 0 22 -11 37 -25 28 -26 55 -35 35 -12 -6 8 -8 17
-4 21 4 4 0 4 -10 0 -11 -4 -19 0 -23 10 -3 9 -13 16 -20 16 -8 0 -17 6 -20
14 -3 8 -26 19 -52 26 -26 7 -51 16 -57 20 -5 4 -26 10 -45 14 -35 6 -35 6 -5
-5z"/>
<path d="M4451 1418 c0 -14 -4 -35 -7 -45 -5 -17 -5 -17 6 0 6 10 9 30 7 45
l-4 27 -2 -27z"/>
<path d="M2300 1401 c0 -6 16 -34 35 -62 19 -28 35 -57 35 -64 0 -7 7 -16 16
-19 10 -4 13 -13 9 -28 -5 -21 -5 -21 5 -5 9 14 9 22 -2 35 -8 9 -22 33 -32
52 -23 46 -66 106 -66 91z"/>
<path d="M4044 1382 c-33 -2 -43 -8 -47 -24 -5 -17 -11 -19 -34 -14 -23 5 -25
4 -10 -4 22 -14 57 -4 57 16 0 19 40 18 54 -2 10 -13 14 -13 35 5 13 11 28 18
33 15 6 -4 5 -9 -2 -14 -8 -5 -8 -9 -2 -11 6 -2 13 -38 17 -79 9 -121 14 -163
20 -168 3 -3 3 16 1 44 -3 27 -8 90 -12 139 -3 50 -8 92 -11 95 -5 6 -42 6
-99 2z m46 -17 c-7 -9 -15 -13 -17 -11 -7 7 7 26 19 26 6 0 6 -6 -2 -15z"/>
<path d="M2287 1315 c-4 -11 -10 -27 -13 -35 -3 -8 1 -5 11 8 9 12 15 28 13
34 -3 7 -7 4 -11 -7z"/>
<path d="M2233 1243 c-38 -88 -47 -153 -47 -318 l-1 -160 42 -118 c23 -64 60
-150 82 -190 21 -39 49 -101 61 -137 12 -36 25 -69 29 -75 4 -5 20 -50 35
-100 38 -122 47 -145 58 -145 5 0 4 9 -2 21 -6 11 -26 66 -45 122 -50 154 -92
259 -133 334 -21 38 -55 120 -77 183 l-40 115 1 160 c1 162 15 249 51 318 8
16 13 31 10 33 -2 3 -13 -17 -24 -43z"/>
<path d="M2252 1232 c-6 -14 -12 -37 -12 -51 0 -15 -7 -51 -15 -81 -8 -30 -14
-73 -13 -95 1 -31 2 -33 4 -10 6 46 34 186 46 223 12 41 7 50 -10 14z"/>
<path d="M2282 1175 c-1 -49 5 -139 14 -200 8 -60 16 -115 16 -122 1 -7 5 -10
10 -7 4 3 8 -1 8 -9 0 -8 9 -25 20 -38 15 -18 13 -10 -8 36 -30 61 -49 188
-55 360 -3 62 -3 60 -5 -20z"/>
<path d="M1959 1214 c-1 -5 -1 -17 0 -26 1 -10 -1 -18 -6 -18 -4 0 -6 -25 -5
-56 4 -50 2 -55 -15 -52 -15 3 -18 13 -18 65 -1 83 -11 90 -14 9 -1 -39 2 -67
9 -71 13 -8 -15 -45 -34 -45 -6 0 -24 -7 -41 -16 -16 -9 -47 -22 -67 -30 -36
-12 -40 -12 -64 11 l-26 24 30 31 c20 20 36 28 49 24 15 -5 15 -4 3 5 -8 6
-18 11 -22 11 -11 0 -68 -58 -68 -68 0 -12 -43 -28 -95 -37 -22 -4 -63 -18
-90 -31 -48 -22 -53 -23 -105 -9 -30 8 -56 12 -58 10 -5 -5 97 -35 121 -35 13
0 17 -5 13 -16 -3 -9 -2 -12 4 -9 6 4 9 13 8 22 -2 8 4 19 12 23 8 4 25 12 37
18 12 7 41 15 65 18 24 4 55 13 69 20 24 12 29 11 45 -8 19 -21 19 -21 -1 -14
-16 6 -18 5 -7 -5 10 -11 21 -11 60 0 26 7 52 14 58 15 7 1 18 6 25 12 8 5 31
18 52 28 20 11 37 23 37 28 0 5 8 8 17 6 16 -3 19 9 25 82 4 46 5 86 3 89 -3
2 -6 0 -6 -5z"/>
<path d="M4379 1184 c-5 -15 -8 -29 -5 -31 2 -2 8 10 14 26 13 38 5 41 -9 5z"/>
<path d="M1 1193 c6 -15 85 -83 97 -83 6 0 21 -13 34 -28 13 -15 48 -44 78
-64 30 -21 70 -51 88 -68 19 -16 39 -27 45 -23 7 4 6 8 -3 11 -8 3 -32 20 -52
38 -21 18 -55 45 -78 59 -22 14 -53 39 -69 55 -15 17 -33 30 -38 30 -14 0 -56
47 -46 52 4 3 3 4 -3 2 -7 -1 -22 5 -34 13 -13 9 -21 12 -19 6z"/>
<path d="M4131 1102 c-8 -15 -4 -20 22 -30 l32 -11 -23 19 c-13 11 -21 24 -17
30 3 5 4 10 1 10 -3 0 -10 -8 -15 -18z"/>
<path d="M3673 1073 c-31 -28 -43 -58 -43 -111 0 -107 -43 -346 -73 -407 -23
-45 -106 -269 -112 -300 -2 -11 -7 -42 -11 -70 -4 -27 -12 -54 -18 -58 -7 -6
-6 -7 3 -5 10 3 21 35 32 89 21 99 54 197 99 294 18 39 36 88 41 110 18 77 49
301 49 346 0 37 5 50 23 63 12 9 16 14 10 11 -20 -10 -15 6 9 26 11 11 19 21
16 24 -3 3 -14 -3 -25 -12z"/>
<path d="M2239 1053 c0 -10 -2 -34 -5 -54 -2 -20 3 -55 11 -78 8 -24 13 -55
10 -70 -4 -20 -3 -21 3 -7 7 17 10 16 21 -12 7 -17 22 -39 33 -49 11 -10 26
-30 34 -45 8 -16 21 -28 29 -28 8 0 15 -4 15 -8 0 -14 83 -92 96 -92 7 0 17
-6 21 -13 4 -7 31 -30 58 -50 28 -20 55 -40 60 -44 6 -5 28 -22 50 -39 22 -17
54 -36 70 -41 17 -5 30 -17 30 -26 0 -21 13 -32 53 -45 28 -10 32 -9 32 8 0
13 -21 29 -72 55 -61 30 -99 54 -153 97 -5 5 -32 25 -60 45 -27 20 -54 43 -58
50 -4 7 -14 13 -21 13 -14 0 -124 107 -171 167 -27 33 -42 64 -76 151 -5 13
-6 48 -3 78 4 29 4 54 0 54 -3 0 -6 -8 -7 -17z m606 -691 c-8 -8 -65 20 -59
29 3 5 18 2 34 -8 16 -9 27 -19 25 -21z"/>
<path d="M2104 1048 c-22 -34 -34 -62 -34 -80 0 -11 -5 -28 -10 -39 -7 -13 -7
-19 0 -19 5 0 10 5 10 11 0 5 4 8 8 5 5 -3 7 7 4 23 -2 16 5 43 18 65 19 35
23 64 4 34z"/>
<path d="M2123 1035 c-6 -14 -7 -25 -2 -25 11 0 22 25 17 39 -1 6 -8 -1 -15
-14z"/>
<path d="M4466 1018 c-40 -15 -83 -38 -70 -38 6 0 25 7 42 16 17 8 47 18 66
21 41 6 115 -5 98 -16 -6 -4 4 -7 23 -7 44 0 36 11 -19 25 -54 13 -101 13
-140 -1z"/>
<path d="M3544 935 c-50 -54 -76 -75 -94 -75 -14 0 -32 -4 -39 -9 -10 -6 1 -8
30 -4 39 5 52 15 111 77 59 62 77 86 65 86 -2 0 -35 -34 -73 -75z"/>
<path d="M4475 988 c-16 -12 -36 -23 -44 -23 -43 -4 -51 -6 -51 -15 0 -6 9 -6
26 0 14 6 29 8 34 5 4 -3 20 5 35 17 15 12 44 25 64 29 l36 7 -36 1 c-24 1
-46 -7 -64 -21z"/>
<path d="M2004 960 c-23 -38 -51 -48 -152 -53 -80 -4 -84 -5 -112 -38 -16 -19
-29 -39 -30 -45 0 -16 -34 -44 -52 -44 -8 0 -30 7 -47 16 -38 19 -93 20 -136
4 -17 -6 -31 -11 -32 -11 -17 5 -25 -1 -13 -9 13 -8 12 -10 -2 -10 -12 0 -18
8 -18 22 0 12 -3 19 -6 15 -4 -3 -3 -18 0 -32 l7 -26 43 26 c52 30 100 34 146
12 18 -10 45 -17 60 -17 25 0 60 26 60 46 1 5 14 25 30 44 28 32 35 35 100 38
54 3 70 1 70 -9 0 -9 3 -10 8 -3 4 5 21 16 39 23 17 7 34 19 37 28 3 8 10 11
16 8 6 -4 7 1 3 11 -4 10 -2 15 4 11 5 -3 10 0 10 8 0 24 -14 17 -33 -15z"/>
<path d="M3596 912 c-3 -26 -12 -57 -20 -67 -18 -27 -47 -115 -37 -115 4 0 13
19 20 43 7 23 19 52 26 63 14 22 32 124 23 124 -3 0 -8 -22 -12 -48z"/>
<path d="M4225 940 c7 -12 -39 -24 -60 -16 -8 3 -15 1 -15 -4 0 -12 67 -13 74
-2 6 10 73 8 83 -1 3 -4 13 -7 22 -6 27 1 -32 22 -61 22 -16 0 -28 4 -28 8 0
5 -5 9 -11 9 -5 0 -7 -4 -4 -10z"/>
<path d="M4356 918 c3 -5 10 -6 15 -3 13 9 11 12 -6 12 -8 0 -12 -4 -9 -9z"/>
<path d="M1153 902 c-28 -10 -55 -20 -58 -24 -4 -4 15 0 42 8 26 9 66 19 88
24 34 7 35 8 10 8 -16 0 -53 -7 -82 -16z"/>
<path d="M1122 860 c-35 -22 -62 -26 -62 -10 0 6 5 10 12 10 6 0 9 3 6 6 -3 3
-29 -5 -57 -17 -29 -12 -50 -24 -47 -26 2 -3 18 3 35 12 18 9 36 13 41 10 13
-8 -11 -34 -26 -28 -7 2 -15 -1 -20 -8 -4 -8 -3 -10 5 -5 6 4 18 2 26 -4 12
-10 15 -9 15 3 0 9 5 19 12 23 8 5 9 -2 5 -25 -4 -20 -3 -30 3 -26 6 3 10 16
10 28 0 15 12 28 35 39 19 10 37 13 40 9 6 -11 45 -2 45 11 0 5 -8 4 -19 -2
-12 -6 -22 -6 -25 -1 -4 5 0 12 6 14 7 3 9 6 3 6 -5 1 -25 -8 -43 -19z"/>
<path d="M865 789 c-46 -15 -51 -18 -20 -13 22 3 53 12 70 19 42 19 21 16 -50
-6z"/>
<path d="M765 744 c17 -13 29 -29 27 -35 -1 -6 2 -8 7 -5 5 3 14 -1 21 -9 10
-12 10 -15 -3 -15 -9 0 -19 -4 -22 -10 -9 -15 9 -12 31 5 18 15 17 17 -25 55
-24 22 -49 40 -55 40 -6 -1 3 -12 19 -26z"/>
<path d="M810 651 c0 -5 7 -12 16 -15 13 -5 9 -14 -22 -51 -20 -25 -34 -48
-31 -51 3 -3 21 16 41 41 28 38 34 51 25 66 -10 20 -29 26 -29 10z"/>
<path d="M3369 569 c-13 -18 -42 -43 -64 -57 -22 -14 -43 -31 -48 -38 -4 -7
-34 -32 -67 -55 -60 -42 -76 -69 -42 -69 10 0 33 14 52 30 l35 30 -39 -25
c-37 -24 -56 -31 -56 -21 0 3 29 26 64 51 36 25 66 49 68 54 2 4 19 18 39 32
40 27 106 99 92 99 -6 0 -21 -14 -34 -31z"/>
<path d="M2876 355 c4 -9 -27 -50 -85 -112 -91 -97 -189 -228 -179 -238 3 -3
22 20 42 51 55 83 195 235 209 228 7 -4 9 -3 4 1 -4 5 0 16 9 26 12 14 22 15
47 8 18 -5 41 -8 52 -8 20 1 20 1 0 6 -55 12 -85 26 -85 39 0 8 -4 14 -10 14
-5 0 -7 -7 -4 -15z"/>
<path d="M3051 353 c4 -28 -19 -57 -58 -74 -58 -25 -90 -24 -38 0 22 11 32 20
23 20 -9 1 -20 -4 -24 -10 -3 -6 -17 -9 -29 -7 -16 3 -22 1 -18 -8 3 -7 -8
-15 -26 -19 -17 -4 -34 -11 -38 -17 -4 -8 0 -9 13 -4 10 4 35 10 54 13 44 6
123 34 131 46 4 5 9 4 13 -2 5 -8 12 -7 22 4 22 21 61 19 74 -5 6 -11 16 -20
23 -20 15 0 116 -103 140 -142 9 -15 17 -41 17 -57 0 -16 4 -32 9 -35 13 -9 2
63 -16 97 -20 40 -122 147 -139 147 -7 0 -18 9 -24 20 -6 11 -21 20 -33 20
-13 0 -33 9 -45 20 -22 21 -33 25 -31 13z m24 -40 c-21 -15 -30 -10 -22 11 4
10 13 13 23 9 15 -6 15 -7 -1 -20z"/>
<path d="M2960 241 c-53 -22 -75 -56 -60 -95 8 -22 16 -26 50 -26 53 0 90 34
90 83 0 30 -15 58 -29 56 -4 0 -26 -8 -51 -18z m70 -38 c0 -57 -95 -99 -120
-53 -16 29 2 56 53 79 47 22 67 14 67 -26z"/>
<path d="M2990 230 c-9 -6 -10 -10 -3 -10 6 0 15 5 18 10 8 12 4 12 -15 0z"/>
</g>
</svg>
