<?xml version="1.0" standalone="no"?>
<!DOCTYPE svg PUBLIC "-//W3C//DTD SVG 20010904//EN"
 "http://www.w3.org/TR/2001/REC-SVG-20010904/DTD/svg10.dtd">
<svg version="1.0" xmlns="http://www.w3.org/2000/svg"
 width="600.000000pt" height="600.000000pt" viewBox="0 0 600.000000 600.000000"
 preserveAspectRatio="xMidYMid meet">
<metadata>
Created by potrace 1.16, written by Peter Selinger 2001-2019
</metadata>
<g transform="translate(0.000000,600.000000) scale(0.100000,-0.100000)"
fill="#000000" stroke="none">
<path d="M2156 5868 c-4 -73 -9 -169 -11 -213 -5 -93 -22 -505 -32 -752 -3
-95 -10 -170 -15 -167 -4 3 -8 1 -8 -5 0 -5 5 -13 11 -17 10 -6 8 -186 -6
-414 -2 -30 -6 -149 -10 -265 -4 -115 -9 -232 -11 -260 -3 -27 -7 -180 -11
-340 -3 -180 -10 -295 -16 -303 -8 -10 -7 -16 1 -21 8 -5 9 -44 2 -151 -5 -80
-12 -212 -15 -295 -7 -182 -14 -257 -26 -249 -5 3 -9 1 -9 -5 0 -5 4 -11 10
-13 8 -3 -2 -491 -15 -758 -12 -240 -18 -310 -26 -310 -5 0 -9 -9 -9 -20 0
-11 3 -20 8 -20 4 0 6 -48 4 -106 -2 -62 0 -104 6 -100 5 3 12 117 15 253 4
136 9 277 11 313 5 59 23 458 31 675 2 50 5 154 7 232 2 79 6 143 11 143 4 0
7 -7 7 -15 0 -8 4 -15 9 -15 4 0 6 11 3 25 -2 14 -9 22 -15 18 -9 -5 -7 95 8
357 4 64 17 466 32 965 4 138 9 232 11 210 1 -22 6 -47 9 -55 4 -8 6 -91 4
-185 -1 -93 2 -175 6 -181 5 -7 58 -13 133 -16 69 -3 114 -1 100 3 l-25 7 27
1 c23 1 28 -4 34 -34 3 -19 3 -42 0 -51 -5 -12 -2 -15 11 -10 17 6 17 5 1 -8
-10 -7 -18 -24 -18 -38 0 -33 -6 -38 -41 -28 -18 5 -27 5 -24 -1 4 -5 3 -19 0
-30 -5 -15 -13 -19 -28 -15 -12 2 -31 -2 -41 -9 -26 -19 -14 -30 13 -13 17 10
25 10 41 0 17 -10 20 -10 20 3 0 8 6 15 14 15 12 0 12 -4 0 -30 -16 -30 -38
-43 -28 -15 8 20 -19 29 -45 15 -12 -6 -27 -7 -34 -3 -6 4 -32 7 -57 8 l-45 0
0 75 c0 89 -3 87 155 89 58 1 100 5 93 9 -18 11 -241 -4 -258 -18 -10 -8 -15
-31 -15 -69 0 -31 -4 -71 -9 -89 -6 -20 -6 -32 0 -32 5 0 9 9 9 20 0 13 5 18
15 14 10 -4 12 -10 7 -18 -16 -19 -24 -131 -12 -161 7 -20 8 -31 0 -39 -18
-18 -12 -57 10 -63 21 -5 21 -6 1 -19 -16 -12 -19 -27 -20 -101 -1 -49 -5
-189 -11 -313 -5 -124 -12 -283 -15 -355 -3 -71 -10 -220 -15 -330 -5 -110
-12 -333 -15 -495 -3 -162 -8 -304 -10 -315 -2 -11 -7 -69 -10 -129 -3 -68
-10 -117 -19 -130 -20 -31 -175 -106 -260 -125 -71 -17 -120 -45 -155 -89 -25
-32 -145 -122 -162 -122 -8 0 9 372 31 695 5 77 14 255 20 395 6 140 12 271
15 290 10 82 45 774 49 980 2 82 1 94 -5 55 -5 -27 -6 -63 -3 -80 3 -16 0 -68
-6 -115 -12 -89 -13 -117 -30 -535 -5 -143 -12 -287 -15 -320 -14 -175 -26
-360 -30 -497 -3 -84 -10 -225 -15 -313 -6 -88 -15 -241 -20 -340 -6 -99 -12
-202 -14 -228 -4 -41 -2 -46 10 -36 8 6 14 17 14 23 0 6 30 29 66 50 36 22 79
56 96 77 42 52 95 85 148 93 25 4 63 15 85 26 67 31 168 81 200 99 79 44 103
56 135 68 19 7 47 13 61 13 14 0 34 9 44 20 10 11 25 20 34 20 9 0 28 11 43
25 16 15 39 25 57 25 16 0 31 4 33 9 2 5 15 7 30 4 23 -4 26 -8 17 -24 -8 -15
-14 -17 -29 -9 -29 15 -37 12 -12 -6 l22 -15 -23 -32 c-12 -17 -29 -37 -37
-44 -13 -10 -13 -14 -1 -25 11 -10 12 -10 7 0 -5 9 5 18 33 29 22 9 38 20 34
26 -3 6 -1 7 5 4 13 -9 44 2 37 14 -7 10 -34 1 -57 -19 -26 -22 -22 -6 7 32
13 18 26 43 27 57 3 20 -2 25 -25 27 -16 2 -34 -1 -40 -6 -7 -5 -25 -10 -41
-10 -17 0 -33 -7 -38 -16 -6 -10 -17 -15 -27 -11 -10 3 -25 -3 -35 -13 -11
-13 -25 -17 -41 -14 -16 3 -25 0 -25 -8 0 -7 7 -10 15 -6 8 3 15 1 15 -4 0 -6
-11 -10 -24 -10 -20 0 -87 -28 -189 -78 -5 -2 -6 27 -3 64 3 38 8 132 11 209
3 77 8 169 10 205 2 36 8 216 14 400 16 503 31 905 41 1091 8 160 9 167 34
192 33 33 33 63 1 93 -20 18 -25 32 -24 66 2 77 10 92 54 99 39 6 39 7 -7 4
-35 -1 -45 1 -41 12 4 9 26 13 84 11 79 -1 101 -10 54 -22 -14 -4 -25 -11 -25
-17 0 -6 5 -7 11 -3 7 4 25 7 40 6 19 0 34 7 43 20 15 21 15 21 12 -3 -1 -13
-6 -36 -10 -52 -5 -18 -4 -32 4 -42 10 -12 10 -18 1 -29 -7 -8 -18 -36 -24
-63 -11 -45 -14 -48 -48 -51 -38 -3 -54 13 -42 44 9 24 48 13 47 -13 0 -13 3
-23 7 -23 13 0 17 38 5 51 -8 9 -7 11 7 6 9 -4 17 -2 17 4 0 10 -73 4 -92 -8
-12 -6 -10 -63 2 -63 5 0 7 -7 4 -15 -5 -11 3 -17 26 -21 39 -8 50 -32 24 -51
-18 -14 -18 -15 4 -8 14 4 22 2 22 -6 0 -7 2 -10 5 -8 2 3 0 21 -5 39 -7 26
-7 38 4 48 11 11 13 5 13 -42 0 -31 -4 -56 -8 -56 -5 0 -9 -5 -9 -11 0 -5 4
-8 8 -5 5 3 14 -18 21 -46 9 -39 9 -54 -1 -65 -6 -8 -7 -13 -2 -12 24 4 32 -5
44 -56 7 -30 17 -55 21 -55 4 0 13 -17 20 -37 7 -21 24 -60 39 -88 14 -27 32
-76 39 -108 8 -36 17 -57 24 -54 7 2 17 -3 23 -12 9 -11 8 -18 -2 -29 -24 -24
-15 -31 11 -9 21 19 22 24 10 33 -8 6 -15 16 -15 23 0 6 -7 11 -15 11 -13 0
-35 55 -35 87 0 7 -16 43 -35 80 -19 37 -35 73 -35 79 0 7 -6 19 -13 26 -7 7
-18 42 -25 78 -7 36 -19 70 -26 75 -18 14 -26 67 -28 189 -1 86 2 110 16 124
9 10 16 25 17 33 0 8 4 6 9 -6 9 -21 9 -19 15 56 0 9 8 27 16 40 9 13 14 30
12 37 -3 7 -13 -4 -24 -24 -10 -20 -16 -40 -14 -44 7 -11 -22 -46 -31 -38 -4
5 -1 20 6 35 8 16 14 33 15 39 0 6 5 18 12 25 6 8 13 25 15 38 3 23 4 23 19 9
16 -17 18 -54 4 -98 -6 -21 -5 -23 6 -12 7 7 14 35 14 63 0 31 6 53 14 59 8 4
19 20 25 33 6 14 36 52 67 85 52 55 79 102 58 102 -5 0 -9 -10 -9 -22 -1 -22
-1 -23 -15 -4 -14 19 -15 19 -15 -8 0 -20 -16 -45 -55 -88 -30 -33 -53 -64
-50 -69 4 -5 -5 -14 -19 -20 -18 -9 -27 -8 -38 1 -18 17 -11 80 8 80 8 0 14 9
14 20 0 11 -4 20 -10 20 -5 0 -9 10 -9 23 0 12 -2 32 -6 43 -5 15 -2 23 10 28
27 10 33 0 29 -53 l-4 -50 40 39 c24 24 38 45 34 52 -5 8 -10 5 -15 -8 -8 -24
-37 -49 -45 -41 -11 10 5 39 17 31 7 -4 7 1 -1 16 -6 12 -9 24 -6 28 3 3 6 0
6 -7 0 -7 5 -9 10 -6 6 4 8 10 6 14 -9 14 14 81 27 78 7 -1 11 6 9 15 -1 9 2
19 8 23 19 12 10 -32 -10 -50 -11 -10 -20 -25 -20 -34 0 -12 5 -10 18 7 20 26
37 19 22 -9 -8 -14 -6 -19 9 -24 24 -7 61 26 60 53 0 13 -2 14 -6 2 -8 -22
-43 -53 -51 -45 -4 4 1 12 10 19 9 7 20 24 23 38 4 15 18 31 34 37 15 7 35 28
46 47 14 26 24 35 40 32 16 -4 26 7 50 55 18 35 39 63 52 68 13 5 23 13 23 18
0 15 33 22 42 9 5 -9 8 -7 8 8 0 25 36 39 44 19 3 -8 0 -15 -7 -18 -8 -2 -7
-6 2 -11 8 -5 14 -1 18 13 3 11 15 23 26 27 38 12 87 48 87 65 0 27 25 69 40
69 9 0 23 9 33 20 9 11 13 20 8 20 -5 0 -11 11 -15 23 -7 28 -33 31 -41 6 -8
-25 -56 -53 -85 -51 -21 1 -22 0 -6 -6 18 -8 18 -9 3 -15 -9 -3 -17 -11 -17
-17 0 -6 9 -4 23 4 22 15 22 15 18 -32 -4 -64 -32 -97 -44 -53 -3 12 3 27 14
37 21 19 27 43 6 25 -10 -8 -17 -7 -26 2 -11 10 -12 8 -6 -10 6 -21 3 -23 -36
-23 -36 0 -40 -2 -29 -15 7 -8 23 -15 36 -15 12 0 26 -4 29 -10 6 -9 -42 -15
-86 -11 -9 1 -19 -8 -22 -19 -5 -19 -8 -20 -26 -8 -26 16 -27 35 -3 41 13 4
11 5 -5 6 -17 1 -23 -5 -23 -18 0 -26 -16 -35 -24 -15 -11 28 -7 33 30 40 26
5 39 3 45 -7 7 -11 9 -11 9 3 0 25 -29 29 -90 12 -30 -8 -104 -17 -165 -20
-60 -3 -112 -8 -115 -11 -7 -7 222 4 248 12 18 6 22 4 22 -14 0 -12 -6 -21
-16 -21 -8 0 -12 -5 -9 -11 4 -6 13 -8 21 -5 12 4 12 2 4 -15 -6 -11 -15 -17
-20 -14 -5 3 -26 -6 -47 -20 -45 -31 -54 -40 -30 -32 46 17 -4 -44 -101 -122
-23 -19 -42 -39 -42 -44 0 -5 -9 -20 -20 -34 -11 -14 -20 -34 -20 -43 0 -10
-7 -21 -16 -24 -23 -9 -24 -8 -24 17 0 18 2 19 11 7 9 -13 10 -12 5 2 -7 24
56 134 76 130 20 -3 52 34 45 53 -4 8 -11 15 -16 15 -13 0 -68 -71 -86 -112
-9 -18 -25 -48 -35 -66 -11 -18 -18 -37 -15 -42 8 -13 -12 -22 -58 -25 -23 -1
-81 -6 -129 -10 l-88 -7 0 173 c0 96 3 184 6 195 7 28 33 33 195 39 99 4 129
2 138 -9 11 -13 57 -11 66 3 6 10 -34 13 -218 14 -157 2 -158 2 -164 26 -5 20
2 249 12 376 1 22 6 178 10 348 l8 307 46 2 c25 1 58 2 74 2 15 1 27 4 27 8 0
5 7 8 15 8 8 0 15 4 15 10 0 6 -10 6 -27 -1 -16 -6 -57 -12 -92 -14 -35 -2
-65 -5 -66 -7 -11 -11 -39 -1029 -30 -1059 4 -10 2 -19 -4 -19 -5 0 -12 -10
-14 -22 -4 -23 0 225 8 464 2 76 0 128 -6 130 -8 3 5 722 16 893 11 171 17
315 13 315 -3 0 -8 -60 -12 -132z m-16 -1110 c0 -19 -2 -20 -10 -8 -13 19 -13
30 0 30 6 0 10 -10 10 -22z m-1 -40 c-1 -7 -5 -24 -9 -38 -7 -22 -8 -21 -9 13
-1 20 4 37 9 37 6 0 10 -6 9 -12z m-17 -250 c-5 -5 -8 4 -7 22 1 16 3 60 5 98
4 67 4 67 7 -22 2 -49 0 -93 -5 -98z m-3 -100 c-1 -46 -4 -73 -7 -60 -7 23 -4
142 4 142 2 0 4 -37 3 -82z m991 32 c0 -11 -5 -20 -10 -20 -19 0 -60 -52 -60
-77 0 -13 -4 -22 -9 -18 -5 3 -8 22 -6 42 4 39 38 78 58 66 6 -4 8 0 4 10 -4
11 -1 17 8 17 8 0 15 -9 15 -20z m-173 -126 c-3 -3 -12 -4 -19 -1 -8 3 -5 6 6
6 11 1 17 -2 13 -5z m-119 -84 c3 -9 -2 -11 -17 -7 -11 3 -21 1 -21 -5 0 -5
-5 -6 -12 -2 -7 5 -5 11 8 21 21 15 36 13 42 -7z m-53 -30 c3 -5 1 -10 -4 -10
-6 0 -11 5 -11 10 0 6 2 10 4 10 3 0 8 -4 11 -10z m-50 -25 c-32 -26 -24 -35
9 -10 39 29 46 16 18 -30 -28 -47 -40 -53 -60 -33 -9 9 -12 9 -12 -3 0 -27
-31 -79 -46 -79 -18 0 -44 -24 -44 -39 0 -6 -4 -11 -10 -11 -5 0 -7 -7 -3 -16
4 -11 2 -15 -6 -13 -7 3 -12 8 -12 12 1 4 1 20 1 35 0 29 7 38 73 93 36 30 76
89 60 89 -14 0 32 29 47 30 9 0 3 -10 -15 -25z m-170 -95 c-10 -11 -20 -18
-23 -15 -7 6 18 35 31 35 5 0 2 -9 -8 -20z m-171 -406 c16 -6 21 -39 10 -69
-5 -13 -9 -14 -15 -4 -4 7 -3 21 2 31 5 10 6 18 2 17 -26 -4 -42 2 -37 16 7
16 14 18 38 9z m-214 -310 c0 -15 -6 -24 -15 -24 -21 0 -30 27 -15 45 16 19
30 10 30 -21z m132 -46 c-8 -8 -17 -8 -34 0 -22 10 -21 11 12 11 26 1 31 -2
22 -11z m38 -2042 c0 -3 -4 -8 -10 -11 -5 -3 -10 -1 -10 4 0 6 5 11 10 11 6 0
10 -2 10 -4z"/>
<path d="M1677 5848 c-4 -46 -9 -182 -13 -303 -3 -121 -7 -247 -9 -280 -2 -33
-9 -148 -15 -255 -6 -107 -13 -202 -16 -211 -5 -17 -51 -26 -179 -35 -32 -3
-62 -8 -65 -11 -3 -3 36 -2 85 2 50 4 104 7 120 6 17 0 35 3 41 7 11 7 29 247
40 542 2 58 8 155 14 215 9 111 14 405 7 405 -2 0 -7 -37 -10 -82z"/>
<path d="M623 5444 c-7 -19 21 -44 49 -44 12 0 18 8 18 24 0 35 -55 51 -67 20z
m55 -17 c2 -10 -3 -17 -11 -17 -18 0 -39 24 -30 34 12 12 38 2 41 -17z"/>
<path d="M5958 5218 c-2 -16 -9 -22 -23 -20 -20 3 -20 2 -1 -13 25 -19 36 -19
36 0 0 8 6 15 13 15 8 0 7 4 -3 10 -13 8 -12 10 3 10 10 0 15 5 12 10 -11 18
-34 10 -37 -12z"/>
<path d="M5140 5198 c0 -4 12 -8 26 -8 14 0 35 -5 46 -11 13 -7 24 -7 30 -1 6
6 -3 12 -24 17 -46 11 -78 12 -78 3z"/>
<path d="M5940 5160 c8 -5 11 -10 7 -10 -5 0 -1 -7 8 -16 9 -9 15 -28 14 -43
-3 -33 10 -91 21 -91 4 0 5 15 0 33 -4 18 -3 43 1 55 5 12 5 22 1 22 -4 0 -16
14 -25 30 -10 17 -24 30 -30 30 -7 0 -6 -4 3 -10z"/>
<path d="M4158 5111 c-8 -13 -17 -17 -27 -12 -9 5 -34 11 -56 14 -33 4 -36 4
-17 -5 25 -13 29 -28 7 -28 -8 0 -15 -4 -15 -10 0 -19 42 -10 47 9 5 21 27 18
51 -6 7 -7 22 -13 32 -13 10 0 27 -3 37 -6 16 -5 16 -4 -1 10 -11 9 -31 16
-44 16 -21 0 -23 2 -11 16 10 12 23 14 55 9 23 -3 45 -2 48 3 3 5 -5 7 -18 5
-13 -3 -27 0 -30 6 -11 18 -45 13 -58 -8z"/>
<path d="M3849 5099 c-13 -19 -26 -21 -164 -26 -83 -3 -161 -4 -174 -4 -13 1
-29 -3 -35 -8 -6 -4 -36 -11 -66 -15 -70 -9 -110 -26 -110 -48 0 -12 -5 -16
-17 -11 -16 6 -16 4 1 -16 18 -20 20 -37 19 -204 -1 -100 -5 -193 -11 -207 -5
-15 -6 -35 -1 -48 7 -19 4 -24 -17 -32 -14 -6 -31 -10 -38 -10 -7 0 -21 -9
-31 -20 -20 -23 -10 -27 14 -6 24 20 78 28 84 11 3 -7 -1 -16 -9 -19 -18 -7
-10 -45 14 -63 18 -14 16 -18 -14 -27 -18 -6 -20 -3 -16 25 3 22 1 30 -7 25
-6 -4 -11 -2 -11 5 0 7 -3 9 -7 6 -3 -4 -12 1 -19 11 -9 11 -13 13 -14 4 0 -7
-4 -11 -9 -8 -4 3 -6 -6 -3 -21 3 -16 1 -24 -5 -20 -16 10 -26 81 -31 222 -5
173 -3 258 9 270 5 5 9 16 9 25 0 12 -2 12 -9 2 -6 -10 -10 -9 -14 7 -3 12 -2
23 3 26 11 7 19 55 9 55 -4 0 -11 -10 -15 -22 -9 -26 -7 -469 2 -510 6 -30 -4
-36 -24 -16 -16 16 -15 6 3 -28 8 -16 15 -37 15 -46 0 -20 18 -33 45 -33 11 0
19 -6 17 -13 -3 -15 45 -6 68 13 8 6 23 15 33 18 10 4 16 11 12 16 -3 6 4 19
16 30 16 15 24 36 27 76 2 30 8 55 13 55 5 0 9 5 9 10 0 6 -6 10 -14 10 -8 0
-13 8 -12 17 0 12 -7 19 -21 21 -17 3 -21 0 -17 -12 4 -11 1 -16 -11 -16 -9 0
-14 -3 -12 -7 3 -5 1 -17 -4 -28 -6 -12 -7 9 -3 55 3 42 12 82 20 91 16 18 19
49 5 49 -5 0 -11 -10 -13 -22 -2 -13 -5 45 -6 127 -1 83 -2 158 -2 168 -1 29
29 45 103 52 37 4 70 11 73 16 7 12 34 11 34 -1 0 -5 -7 -10 -16 -10 -8 0 -12
-4 -9 -10 11 -17 37 -11 42 10 5 18 14 20 117 21 234 2 217 0 211 20 -5 14 -2
17 8 13 22 -8 167 -10 167 -2 0 4 -34 6 -75 6 -43 -1 -80 4 -88 11 -11 9 -17
7 -28 -10z m-484 -569 c-2 -16 -5 -51 -7 -79 -3 -57 -26 -81 -53 -55 -13 14
-13 17 0 30 11 11 12 20 5 34 -7 13 -6 21 5 30 8 7 15 20 15 29 0 17 18 41 31
41 4 0 6 -13 4 -30z m-115 -152 c0 -5 -4 -6 -10 -3 -5 3 -10 2 -10 -4 0 -5 8
-11 18 -13 15 -3 14 -6 -5 -16 -20 -11 -22 -10 -16 4 5 14 3 14 -15 3 -24 -15
-27 -13 -36 21 -6 21 -5 22 4 8 15 -24 40 -23 40 2 0 13 5 18 15 14 8 -4 15
-10 15 -16z m15 -48 c3 -5 -1 -10 -10 -10 -9 0 -13 5 -10 10 3 6 8 10 10 10 2
0 7 -4 10 -10z"/>
<path d="M1238 4839 c-19 -14 -28 -30 -28 -49 0 -31 -6 -33 -116 -45 -41 -5
-64 -4 -68 4 -4 6 -19 11 -34 11 -21 0 -24 -2 -12 -10 11 -7 7 -10 -17 -10
-30 0 -38 8 -34 34 2 9 -49 56 -61 56 -4 0 -23 -16 -44 -35 -24 -23 -47 -35
-65 -35 -15 0 -50 -4 -76 -9 -76 -15 -158 -23 -150 -15 11 12 -34 54 -58 54
-27 0 -60 -35 -60 -63 0 -17 -8 -23 -40 -28 -54 -9 -173 -18 -157 -12 6 3 12
9 12 15 0 7 -4 7 -13 0 -13 -11 -63 -20 -147 -28 -30 -3 -59 -9 -63 -13 -10
-10 100 -2 137 10 39 12 69 11 41 -2 -27 -12 89 -1 175 17 36 8 68 14 73 14
12 0 8 30 -5 30 -7 0 0 12 14 27 25 25 29 26 53 13 30 -16 32 -27 5 -35 -19
-6 -19 -7 -2 -31 12 -16 24 -22 38 -19 40 9 163 25 207 26 45 2 98 31 84 45
-4 4 -13 1 -20 -8 -11 -14 -73 -27 -167 -34 -19 -1 -54 -7 -77 -12 -25 -6 -43
-6 -43 -1 0 5 2 9 5 9 8 0 235 39 263 46 13 2 34 16 47 30 30 32 59 25 74 -16
8 -24 7 -30 -4 -30 -9 0 -12 6 -8 18 5 13 3 15 -7 5 -7 -6 -10 -19 -6 -28 5
-14 16 -16 64 -12 140 13 191 17 246 21 39 2 63 9 75 22 15 17 15 17 -1 5 -15
-11 -20 -10 -33 2 -21 22 -19 34 10 53 24 16 27 16 48 -2 12 -11 26 -25 30
-32 6 -10 11 -9 22 2 8 8 25 12 37 10 l23 -5 -23 10 c-12 6 -28 8 -36 5 -7 -3
-27 6 -44 20 -16 15 -31 26 -33 26 -2 0 -16 -10 -31 -21z"/>
<path d="M1525 4800 c-11 -5 -45 -9 -75 -9 -30 -1 -71 -6 -90 -11 -28 -8 -37
-7 -46 5 -10 14 -12 14 -17 0 -10 -24 30 -27 138 -9 55 9 116 16 135 16 28 0
31 2 15 8 -25 11 -35 11 -60 0z"/>
<path d="M140 4718 c-25 -4 -50 -6 -57 -3 -7 2 -15 0 -18 -5 -4 -6 -17 -10
-30 -10 -13 0 -27 -5 -31 -11 -4 -7 0 -9 12 -5 36 11 127 26 160 26 18 0 35 4
39 9 6 11 -9 11 -75 -1z"/>
<path d="M3675 4480 c-10 -11 -23 -20 -30 -20 -16 0 -93 -69 -77 -70 7 0 15 7
18 15 4 8 13 15 21 15 8 0 11 -4 8 -10 -8 -13 -8 -13 52 10 51 19 53 19 62 1
13 -23 5 -31 -29 -31 -18 0 -31 -9 -43 -30 -12 -20 -26 -30 -42 -30 -16 0 -26
-7 -31 -22 l-7 -22 -18 23 c-15 18 -17 27 -8 37 8 10 8 14 1 14 -6 0 -16 -8
-21 -17 -9 -15 -10 -15 -11 -2 0 8 5 20 12 27 9 9 9 12 0 12 -7 0 -12 -4 -12
-9 0 -5 -9 -11 -20 -14 -11 -3 -20 -12 -20 -21 0 -14 -4 -15 -22 -5 -13 7 -27
18 -31 25 -12 21 -34 17 -40 -7 -4 -16 -11 -20 -26 -16 -26 6 -51 -26 -50 -63
0 -22 2 -21 13 10 9 25 19 35 35 36 12 1 28 9 35 19 12 17 14 17 34 -3 26 -26
77 -31 69 -7 -4 8 -2 17 3 20 6 4 10 -9 10 -29 0 -28 4 -36 18 -36 13 0 14 2
3 9 -7 5 -10 14 -6 20 4 8 14 4 29 -13 27 -32 32 -32 40 0 5 17 12 24 21 20 9
-3 27 8 44 26 27 29 101 64 101 48 0 -5 9 -6 20 -3 28 8 15 17 -31 22 -4 1 -9
10 -12 21 -4 16 -11 18 -43 13 -22 -3 -45 -10 -51 -16 -9 -6 -13 -6 -13 2 0
12 47 35 67 32 7 -1 9 7 6 19 -7 25 -6 25 -28 0z"/>
<path d="M1318 4485 c-4 -5 -63 -9 -130 -11 -134 -3 -188 -10 -188 -24 0 -17
-185 -25 -410 -18 -86 3 -184 1 -240 -6 -52 -7 -152 -12 -222 -12 -69 1 -124
-3 -121 -8 3 -4 98 -5 212 -2 200 6 205 6 183 -11 -20 -17 -21 -20 -8 -38 9
-11 16 -14 16 -7 0 7 15 12 41 12 36 0 41 2 36 20 -3 10 0 21 7 23 6 2 -2 4
-17 4 -20 0 -25 -3 -18 -10 16 -16 14 -27 -3 -21 -8 3 -24 1 -35 -6 -12 -6
-21 -7 -21 -1 0 5 7 11 15 15 8 3 15 13 15 22 0 14 20 15 213 9 116 -4 214 -9
216 -11 3 -2 -4 -11 -15 -19 -15 -11 -16 -14 -3 -15 12 0 15 -13 13 -75 -1
-41 2 -73 6 -70 4 2 7 47 6 99 l-1 96 29 6 c36 8 174 -5 182 -17 7 -12 114
-12 114 0 0 9 54 20 125 26 23 2 52 9 65 15 22 9 21 10 -12 5 -20 -3 -39 -1
-43 5 -7 11 62 14 89 4 22 -9 10 -24 -20 -24 -13 0 -24 -4 -24 -10 0 -18 46
-11 65 10 20 22 46 25 76 9 16 -8 23 -7 33 6 7 10 22 15 36 13 18 -2 24 -10
24 -30 l2 -28 -22 27 -21 27 0 -27 c0 -15 2 -25 6 -23 3 2 15 -2 25 -10 17
-12 18 -23 13 -106 -5 -81 -9 -94 -29 -110 -13 -10 -38 -18 -56 -18 -20 0 -31
-4 -27 -10 3 -6 18 -7 32 -4 18 5 24 3 19 -5 -4 -6 -27 -11 -50 -11 -27 0 -52
-7 -66 -18 l-21 -17 26 -48 c15 -26 33 -47 40 -47 8 0 17 -5 21 -11 4 -8 0 -9
-15 -4 -29 9 -27 -13 3 -24 24 -10 43 -41 25 -41 -6 0 -9 -10 -6 -22 18 -79
19 -90 7 -83 -8 5 -11 4 -7 -2 7 -12 9 -169 2 -283 -3 -47 -6 -119 -8 -160 -2
-41 -8 -84 -14 -95 -6 -11 -15 -40 -21 -65 -6 -25 -13 -54 -16 -65 -4 -11 5 5
20 34 14 30 23 63 21 73 -3 10 -1 21 4 24 14 8 11 -49 -6 -96 -8 -23 -15 -55
-15 -71 0 -16 -5 -29 -11 -29 -5 0 -7 -5 -3 -12 5 -7 12 -5 22 8 13 17 14 16
8 -21 -12 -68 -21 -177 -21 -248 0 -47 -3 -66 -12 -63 -6 3 -14 -2 -17 -10 -3
-9 -11 -12 -18 -8 -8 5 -9 2 -5 -9 5 -14 0 -17 -31 -16 -21 1 -28 3 -17 6 28
7 43 23 22 23 -10 0 -30 -9 -45 -20 -15 -11 -51 -23 -80 -27 -28 -3 -52 -9
-52 -13 0 -7 75 4 115 17 11 3 37 5 58 4 30 -2 42 2 54 18 10 15 22 20 39 17
28 -5 31 6 8 28 -8 9 -13 20 -10 25 3 5 8 58 11 117 4 96 10 158 21 217 2 10
-1 15 -7 12 -5 -4 -9 -1 -9 4 0 6 6 11 13 11 9 0 8 3 -2 9 -10 7 -11 16 -3 42
6 19 11 81 11 139 0 90 6 254 10 270 1 3 11 6 24 6 18 1 22 -4 22 -27 0 -18
-3 -25 -9 -19 -6 6 -17 10 -25 10 -11 0 -11 -3 4 -13 12 -10 14 -16 7 -21 -7
-4 -12 -13 -12 -19 0 -7 5 -4 11 6 5 9 17 17 25 17 12 0 14 10 12 43 -3 36 -6
42 -24 40 -27 -3 -34 19 -34 115 0 45 4 72 11 72 7 0 8 11 3 33 -4 17 -8 48
-10 67 -5 72 -17 100 -39 100 -8 0 -24 19 -36 41 -26 52 -16 64 51 63 44 0 50
2 60 27 7 15 20 29 30 32 13 3 19 19 24 68 10 96 5 208 -10 224 -14 14 -92 18
-109 6 -19 -15 -63 -21 -67 -10 -4 13 -99 25 -110 14z m227 -15 c-3 -5 -15
-10 -26 -10 -11 0 -17 5 -14 10 3 6 15 10 26 10 11 0 17 -4 14 -10z m-225 -18
c0 -8 -38 -12 -115 -14 -11 0 -57 1 -102 2 -45 1 -88 -1 -95 -6 -9 -5 -10 -4
-3 4 6 5 19 12 30 15 35 8 285 7 285 -1z m-135 -32 c-3 -5 -26 -10 -50 -10
-24 0 -47 5 -50 10 -4 6 15 10 50 10 35 0 54 -4 50 -10z"/>
<path d="M5760 4470 c0 -5 -3 -9 -7 -8 -5 1 -33 -3 -63 -10 -79 -16 -281 -26
-289 -14 -3 5 -25 6 -51 2 -30 -5 -36 -8 -17 -9 21 -1 27 -6 28 -23 1 -17 2
-19 6 -5 2 9 11 17 19 17 11 0 12 -4 2 -19 -14 -24 -64 -33 -79 -14 -6 7 -18
13 -26 13 -8 0 -11 5 -8 10 3 6 1 10 -4 10 -17 0 -13 -20 4 -26 12 -5 13 -9 3
-21 -7 -9 -8 -17 -2 -21 5 -4 9 -57 9 -119 0 -61 3 -109 7 -105 11 11 13 54 4
113 -11 79 -4 96 39 95 25 -1 35 -5 34 -16 -3 -33 1 -60 10 -60 5 0 8 18 7 40
0 22 -4 40 -8 40 -5 0 -8 7 -8 16 0 12 5 14 18 9 9 -4 31 -9 47 -11 17 -2 21
-1 10 3 -11 3 -28 11 -38 18 -29 20 -2 31 118 44 151 16 234 32 247 48 7 9 7
13 -1 13 -6 0 -11 -4 -11 -10z m-440 -109 c0 -5 10 -7 23 -4 17 4 19 3 11 -6
-7 -7 -22 -9 -38 -5 -28 7 -36 24 -11 24 8 0 15 -4 15 -9z"/>
<path d="M5869 4451 c-2 -6 -22 -13 -44 -16 -22 -2 -98 -11 -170 -21 -71 -9
-156 -17 -187 -18 -38 -1 -51 -4 -41 -10 9 -5 51 -4 102 3 131 17 300 33 354
33 26 0 50 4 53 9 3 5 -5 9 -18 9 -13 0 -29 5 -35 11 -8 8 -12 8 -14 0z"/>
<path d="M170 4375 c-9 -11 -15 -12 -20 -5 -4 7 -15 8 -31 2 -13 -5 -35 -5
-49 -1 -38 11 -76 11 -64 0 5 -6 32 -11 59 -12 28 -1 59 -5 70 -9 13 -5 25 -2
34 7 7 8 20 12 28 9 9 -4 13 -1 11 6 -7 19 -24 20 -38 3z"/>
<path d="M340 4355 c0 -3 18 -16 40 -30 43 -27 72 -24 100 11 16 18 13 18 -32
-5 -24 -12 -31 -11 -63 8 -37 22 -45 24 -45 16z"/>
<path d="M5230 4315 c-11 -13 -10 -24 0 -58 8 -23 17 -46 22 -51 13 -15 10
-26 -8 -26 -8 0 -13 4 -9 9 3 5 0 13 -6 17 -9 5 -11 -3 -6 -29 3 -20 2 -39 -3
-42 -4 -3 -6 -14 -3 -24 7 -28 -26 -91 -48 -91 -10 0 -21 -5 -24 -10 -4 -7 2
-9 19 -4 24 6 25 5 22 -47 -1 -30 -7 -54 -14 -57 -17 -5 -15 -22 2 -22 8 0 16
12 18 28 4 23 5 25 13 8 10 -22 -11 -86 -33 -102 -13 -9 -15 -29 -12 -100 2
-49 5 -129 7 -179 1 -49 7 -151 12 -225 18 -230 19 -260 11 -260 -9 0 -6 -67
4 -77 4 -4 7 8 6 27 -3 48 -1 57 8 42 5 -7 5 -36 1 -65 -3 -29 -2 -60 3 -70
24 -46 -24 -96 -61 -63 -10 9 -21 16 -24 16 -14 0 -6 -16 18 -32 32 -24 68
-10 85 31 11 28 10 34 -5 51 -14 16 -16 23 -7 32 15 15 15 69 0 105 -6 15 -10
33 -9 38 7 24 1 87 -8 98 -5 7 -11 104 -14 220 -2 114 -7 210 -10 214 -12 11
-8 25 5 17 8 -5 9 -2 4 12 -5 10 -10 41 -12 67 -2 26 -6 52 -8 56 -3 4 2 17
10 27 9 10 12 13 8 5 -4 -8 -3 -12 3 -8 5 3 16 31 23 62 11 44 11 61 2 76 -15
24 -15 29 2 29 18 0 26 22 26 71 0 24 -4 38 -10 34 -5 -3 -10 -2 -10 4 0 5 5
13 11 16 6 4 8 13 5 21 -7 17 3 44 15 44 5 0 9 -24 9 -52 -1 -68 14 -131 25
-105 4 10 2 24 -5 33 -13 14 -13 36 -7 146 3 33 0 45 -9 41 -8 -3 -15 11 -19
42 -6 38 -4 48 11 60 16 12 17 14 3 15 -9 0 -22 -7 -29 -15z m-4 -331 c-3 -8
-11 -14 -18 -14 -9 0 -8 3 2 10 10 6 11 10 3 10 -7 0 -13 8 -13 18 0 10 6 24
13 31 10 10 13 7 15 -14 2 -15 1 -33 -2 -41z"/>
<path d="M1520 4193 c-55 -8 -68 -13 -74 -28 -5 -14 -4 -14 16 0 13 8 37 15
55 15 17 0 35 5 38 10 3 6 3 9 -2 9 -4 -1 -19 -3 -33 -6z"/>
<path d="M2618 4158 c-10 -12 -18 -26 -18 -31 0 -5 -9 -16 -21 -26 -17 -14
-19 -19 -7 -28 10 -9 19 -8 38 3 l25 15 -30 -6 c-25 -4 -28 -3 -15 7 8 7 21
25 27 41 7 15 17 27 23 27 5 0 10 5 10 10 0 16 -14 11 -32 -12z"/>
<path d="M175 4117 c-9 -5 -29 -7 -43 -4 -15 2 -52 1 -82 -3 -31 -4 16 -6 106
-3 138 4 162 3 173 -11 8 -9 22 -16 33 -16 24 0 71 -47 65 -65 -3 -7 0 -16 8
-19 10 -4 11 2 4 26 -11 39 -37 68 -61 68 -10 0 -30 7 -43 16 -27 18 -135 26
-160 11z"/>
<path d="M5306 4014 c3 -60 10 -143 14 -184 5 -43 5 -79 0 -84 -5 -5 -5 -16 0
-26 5 -10 10 -46 11 -81 0 -35 5 -93 9 -129 5 -36 12 -109 15 -162 4 -54 11
-98 17 -98 5 0 7 3 4 8 -2 4 -7 52 -11 107 -3 55 -10 125 -14 155 -5 30 -10
87 -10 125 -4 166 -9 247 -21 355 -6 63 -14 117 -16 119 -2 2 -1 -45 2 -105z"/>
<path d="M432 4083 c17 -37 46 -74 61 -79 9 -3 17 -9 17 -14 0 -8 78 -58 113
-72 9 -4 17 -14 17 -23 0 -8 6 -15 14 -15 8 0 22 -3 32 -7 12 -4 15 -3 10 5
-4 6 -2 21 4 32 14 26 5 25 -22 -2 -20 -20 -22 -20 -28 -4 -5 16 -66 59 -102
72 -10 4 -18 10 -18 15 0 13 14 11 36 -6 29 -22 43 -17 15 5 -13 11 -38 20
-56 20 -29 0 -37 6 -56 40 -13 22 -27 40 -32 40 -5 0 -7 -3 -5 -7z"/>
<path d="M5456 4058 c-3 -7 -7 -26 -11 -42 -3 -16 -17 -38 -31 -48 -13 -11
-24 -25 -24 -31 0 -7 7 -3 15 7 11 15 31 20 92 24 43 3 91 11 108 17 27 12 23
13 -40 9 -39 -3 -80 -6 -92 -8 -19 -3 -21 1 -17 28 3 17 7 37 10 44 2 6 1 12
-2 12 -2 0 -6 -6 -8 -12z"/>
<path d="M30 4045 c-7 -8 -16 -12 -21 -9 -11 6 -12 -10 -2 -20 5 -4 9 -12 9
-17 1 -5 2 -13 3 -19 0 -5 7 -10 15 -10 18 0 27 -25 15 -37 -5 -5 -11 -23 -13
-39 -2 -16 -11 -48 -19 -72 -8 -23 -11 -44 -7 -47 11 -7 29 42 35 94 3 24 10
50 17 58 8 10 8 20 0 38 -6 14 -9 32 -6 40 4 8 1 21 -5 29 -6 7 -8 16 -4 19 3
4 4 7 1 7 -3 0 -11 -7 -18 -15z m10 -15 c0 -5 -5 -10 -11 -10 -5 0 -7 5 -4 10
3 6 8 10 11 10 2 0 4 -4 4 -10z m4 -35 c-4 -8 -8 -15 -10 -15 -2 0 -4 7 -4 15
0 8 4 15 10 15 5 0 7 -7 4 -15z"/>
<path d="M385 4020 c-4 -6 -9 -8 -13 -6 -4 2 -16 -13 -26 -35 l-19 -39 28 -30
c16 -17 35 -28 42 -26 10 4 13 -8 13 -43 0 -26 -3 -51 -7 -54 -7 -8 -13 -125
-12 -230 0 -43 -4 -74 -13 -84 -11 -14 -11 -15 2 -11 16 5 32 128 16 128 -4 0
-5 8 -1 18 5 14 15 90 18 140 0 6 4 12 9 12 5 0 6 10 3 23 -3 12 -1 47 4 77 6
33 6 59 0 65 -6 5 -9 3 -9 -7 0 -28 -27 -27 -54 1 l-27 28 26 32 c15 17 33 31
41 31 8 0 14 5 14 10 0 13 -27 13 -35 0z"/>
<path d="M395 3990 c3 -5 8 -10 11 -10 2 0 4 5 4 10 0 6 -5 10 -11 10 -5 0 -7
-4 -4 -10z"/>
<path d="M5247 3963 c-2 -5 -3 -18 -2 -30 1 -13 -2 -23 -7 -23 -4 0 -8 -4 -8
-8 0 -4 9 -8 19 -8 11 0 17 4 15 8 -3 4 5 8 18 8 17 0 19 3 9 9 -11 7 -11 9 0
13 8 3 11 8 8 12 -4 4 -13 0 -22 -8 -19 -19 -29 -9 -16 15 9 18 -4 29 -14 12z"/>
<path d="M5370 3954 c0 -8 5 -12 10 -9 6 3 10 10 10 16 0 5 -4 9 -10 9 -5 0
-10 -7 -10 -16z"/>
<path d="M5920 3961 c0 -6 -31 -9 -77 -7 -43 1 -86 -1 -95 -6 -21 -10 -242
-12 -278 -3 -17 5 -21 4 -11 -3 10 -7 10 -11 1 -14 -12 -4 -19 -72 -8 -83 3
-3 14 -7 26 -10 11 -2 38 -15 61 -29 23 -15 41 -22 41 -17 0 12 -84 61 -104
61 -12 0 -16 10 -16 36 0 35 1 36 30 31 17 -4 30 -2 30 3 0 6 34 7 88 4 56 -4
101 -3 123 5 39 13 227 22 207 10 -7 -4 -9 -11 -5 -16 5 -4 11 -3 15 2 4 6 16
12 27 13 26 5 36 15 10 11 -11 -2 -30 2 -42 9 -14 8 -23 9 -23 3z"/>
<path d="M120 3921 c-6 -11 -6 -22 -1 -25 5 -3 11 4 14 15 5 20 7 21 22 5 11
-10 15 -26 12 -41 -5 -30 9 -33 18 -5 8 24 -18 70 -40 70 -8 0 -19 -9 -25 -19z"/>
<path d="M2752 3903 c0 -16 -7 -45 -16 -67 -19 -45 -19 -49 -6 -41 19 12 46
135 29 135 -4 0 -7 -12 -7 -27z"/>
<path d="M813 3866 c-24 -25 -30 -60 -13 -71 6 -4 7 -11 4 -17 -5 -7 -1 -9 9
-5 18 7 82 -16 92 -33 3 -5 11 -10 17 -10 23 0 -18 33 -69 56 -50 21 -66 45
-43 59 6 3 10 -3 10 -13 0 -13 9 -21 25 -24 29 -6 34 11 6 19 -15 4 -18 11
-14 34 5 35 4 35 -24 5z"/>
<path d="M5907 3810 c-29 -16 -57 -20 -129 -20 -51 0 -98 -4 -105 -8 -9 -6
-11 -45 -8 -145 2 -75 6 -141 10 -147 3 -5 17 -10 30 -10 13 0 27 -4 30 -10
10 -16 40 -11 66 11 17 14 32 19 54 15 16 -3 57 -1 90 3 52 7 46 8 -44 6 -57
-1 -106 -7 -110 -12 -19 -30 -71 -16 -72 20 0 21 -1 21 -11 -3 l-10 -25 -9 23
c-4 12 -6 58 -3 102 2 44 1 80 -4 80 -14 0 -14 80 0 81 141 6 189 11 220 25
32 15 40 15 55 3 17 -13 17 -13 3 6 -8 11 -15 21 -15 22 -1 2 -18 -6 -38 -17z"/>
<path d="M137 3774 c-18 -21 -38 -34 -53 -34 -13 0 -24 -4 -24 -9 0 -19 66 9
94 41 l29 32 31 -36 c44 -50 65 -58 101 -41 l30 14 -38 -6 c-34 -6 -41 -3 -74
34 -20 23 -43 41 -52 40 -9 0 -29 -16 -44 -35z"/>
<path d="M949 3778 c0 -7 -2 -23 -5 -35 -3 -16 11 -34 56 -73 33 -29 60 -47
60 -42 0 6 -4 14 -10 17 -5 3 -10 11 -10 16 0 6 18 -4 40 -21 34 -27 38 -35
29 -51 -5 -11 -7 -24 -4 -30 9 -14 14 -79 5 -79 -3 0 -7 -26 -9 -57 -3 -88 -8
-144 -16 -193 -5 -25 -9 -56 -9 -70 -1 -14 -5 -28 -11 -32 -6 -5 -5 -8 3 -8 6
0 12 -9 12 -20 0 -12 7 -35 16 -52 9 -16 13 -40 10 -53 -3 -12 -3 -25 1 -28 9
-10 9 -67 0 -67 -5 0 -6 -12 -3 -27 4 -19 0 -36 -12 -52 l-19 -23 4 53 c7 111
8 201 1 206 -9 5 -10 1 -13 -130 -2 -54 -6 -113 -9 -132 -4 -21 -2 -36 5 -40
8 -5 9 -1 4 14 -4 12 -2 21 4 21 6 0 14 0 19 0 4 0 8 -4 8 -10 1 -5 2 -15 3
-20 0 -6 13 -22 27 -35 26 -24 77 -34 88 -17 3 5 -8 6 -25 4 -24 -3 -36 2 -61
28 l-31 33 22 9 c17 6 21 13 16 26 -17 40 -23 81 -11 79 6 -1 10 4 8 12 -2 8
-5 37 -8 65 -3 28 -11 67 -19 87 -24 62 -20 179 5 179 5 0 5 -14 0 -31 -9 -31
-6 -49 8 -49 4 0 8 8 8 18 0 9 6 69 14 132 8 63 13 119 12 124 -2 4 2 14 8 21
6 7 7 15 3 18 -4 3 -16 -10 -25 -29 -11 -21 -13 -34 -7 -34 8 0 9 -18 4 -57
-9 -77 -15 -103 -26 -103 -8 0 -6 57 6 175 3 28 7 79 9 115 3 70 14 86 32 50
8 -14 14 -18 19 -10 7 12 -21 50 -38 50 -5 0 -26 14 -47 30 -21 17 -47 30 -58
30 -11 0 -34 11 -51 26 -25 21 -29 29 -21 49 6 15 6 27 0 30 -6 4 -10 0 -11
-7z m167 -985 c-11 -11 -19 6 -11 24 8 17 8 17 12 0 3 -10 2 -21 -1 -24z"/>
<path d="M5547 3734 c-16 -18 -41 -40 -55 -47 -25 -11 -27 -17 -28 -77 0 -36
4 -91 9 -122 7 -42 6 -62 -2 -72 -9 -11 -8 -23 3 -52 8 -22 17 -61 21 -89 4
-27 9 -61 11 -75 5 -24 5 -24 -10 -6 -11 13 -16 15 -16 6 0 -7 8 -22 17 -32
10 -12 13 -22 8 -26 -12 -9 -19 -136 -7 -128 5 3 7 20 4 38 -3 19 -1 29 4 25
5 -5 9 -36 9 -70 l0 -61 48 -23 c26 -13 47 -30 47 -38 0 -8 7 -15 16 -15 14 0
14 1 0 16 -9 8 -16 19 -16 24 0 4 -18 15 -41 24 l-40 16 1 53 c3 111 1 130
-16 123 -10 -4 -13 -2 -7 7 10 14 11 147 2 147 -11 0 -21 92 -18 165 4 103 3
125 -8 178 -9 41 -8 47 6 47 9 0 39 23 66 50 27 28 43 50 35 49 -8 0 -28 -16
-43 -35z m-60 -196 c-3 -7 -5 -2 -5 12 0 14 2 19 5 13 2 -7 2 -19 0 -25z"/>
<path d="M5927 3764 c-3 -3 -40 -6 -82 -6 -42 0 -74 -3 -71 -6 10 -9 151 -9
164 1 8 6 12 6 12 -2 0 -6 4 -11 10 -11 5 0 7 7 4 15 -6 15 -26 20 -37 9z"/>
<path d="M2416 3674 c-4 -10 -1 -14 6 -12 15 5 23 28 10 28 -5 0 -13 -7 -16
-16z"/>
<path d="M95 3651 c-11 -5 -24 -6 -28 -4 -11 6 -67 -17 -67 -28 0 -9 28 -1 48
14 8 6 12 5 12 -3 0 -10 3 -10 14 -1 11 9 33 10 90 2 42 -6 82 -10 88 -8 7 1
13 -2 13 -8 1 -5 5 -24 9 -42 4 -17 3 -40 -2 -50 -5 -10 -12 -38 -16 -63 -4
-34 -3 -40 4 -25 7 15 9 5 4 -35 -3 -30 -7 -75 -9 -100 -2 -25 -6 -65 -9 -90
-4 -25 -3 -39 0 -32 6 13 24 17 24 4 0 -5 -9 -18 -20 -30 -22 -23 -29 -115
-10 -127 15 -9 12 -19 -10 -45 -23 -27 -24 -32 -8 -48 9 -9 6 -12 -16 -12 -19
0 -41 14 -75 48 l-48 47 5 138 c2 75 9 137 13 137 5 0 9 9 9 20 0 11 -5 20
-12 20 -8 0 -9 3 -2 10 8 8 7 21 0 45 -13 43 -28 47 -16 4 5 -18 5 -40 0 -55
-8 -21 -13 -23 -30 -14 -11 6 -20 7 -20 2 0 -5 11 -14 24 -20 23 -10 24 -15
21 -74 -14 -207 -18 -248 -26 -248 -5 0 -9 -8 -9 -18 0 -10 -6 -26 -14 -37
-14 -21 -32 -114 -19 -102 4 4 9 20 10 35 2 15 11 45 20 68 15 37 20 41 50 39
25 0 40 -9 58 -31 l23 -29 -28 -32 c-16 -17 -41 -38 -57 -47 -20 -11 -23 -15
-10 -16 10 0 17 -8 18 -22 1 -21 2 -20 8 3 9 40 86 119 116 119 18 0 25 -5 25
-19 0 -11 -4 -22 -9 -25 -5 -4 -7 4 -3 16 3 15 2 19 -7 14 -7 -4 -11 -20 -10
-34 2 -15 -1 -44 -5 -65 -6 -25 -5 -42 2 -49 8 -8 5 -19 -9 -40 -18 -24 -19
-31 -7 -45 7 -9 13 -25 13 -36 0 -11 6 -22 13 -25 17 -5 5 46 -16 71 -8 9 -10
17 -5 17 15 0 43 63 42 92 -1 21 -2 21 -14 -7 -8 -16 -14 -23 -14 -15 -1 27
11 60 20 55 4 -3 6 4 4 15 -2 11 1 20 7 20 7 0 8 15 4 43 -12 71 -12 82 2 79
8 -1 11 2 8 7 -4 5 -2 13 4 16 8 5 6 14 -4 30 -12 18 -12 25 -3 28 9 4 9 6 0
6 -20 1 -15 59 7 81 24 24 27 60 5 60 -12 0 -14 7 -9 28 4 15 12 33 18 41 9
12 8 13 -2 7 -15 -9 -13 15 6 84 6 19 9 63 9 97 -1 35 1 63 5 63 8 0 -1 64
-13 98 -8 20 -15 22 -79 22 -40 0 -70 4 -70 10 0 12 -7 12 -35 1z m182 -173
c-3 -8 -6 -5 -6 6 -1 11 2 17 5 13 3 -3 4 -12 1 -19z m-177 -168 c0 -5 -4 -10
-10 -10 -5 0 -10 5 -10 10 0 6 5 10 10 10 6 0 10 -4 10 -10z"/>
<path d="M323 3628 c16 -66 18 -101 8 -149 -6 -30 -13 -101 -17 -159 -6 -105
-6 -105 22 -130 15 -14 25 -19 22 -10 -3 8 1 28 9 44 11 20 12 31 4 39 -8 8
-11 4 -11 -13 0 -30 -15 -56 -23 -42 -11 16 -10 62 2 212 8 86 17 148 24 153
8 6 6 7 -5 3 -15 -4 -18 1 -19 27 -1 18 -1 35 0 40 0 4 -4 7 -10 7 -7 0 -9 -9
-6 -22z"/>
<path d="M2213 3633 c-16 -6 -17 -39 -1 -49 8 -5 9 -2 4 11 -4 11 -2 22 6 26
15 9 8 18 -9 12z"/>
<path d="M4915 3543 c4 -21 9 -45 12 -53 11 -29 8 -95 -5 -123 -16 -33 -11
-45 9 -21 7 9 13 31 13 50 0 27 3 33 16 29 12 -5 13 -4 3 6 -7 7 -13 22 -13
34 0 12 -5 26 -12 33 -9 9 -9 15 -1 23 7 7 7 17 -1 35 -17 36 -28 29 -21 -13z"/>
<path d="M0 3560 c0 -5 5 -10 10 -10 14 0 12 -37 -3 -43 -7 -3 -5 -6 6 -6 9
-1 17 6 17 14 0 8 5 15 12 15 6 0 2 9 -10 20 -24 22 -32 25 -32 10z"/>
<path d="M113 3473 c2 -18 2 -33 1 -33 -13 0 -63 38 -57 43 3 4 -4 7 -17 7
-23 0 -23 0 -4 -15 15 -11 16 -14 3 -15 -8 0 -21 6 -28 13 -11 10 -13 9 -9 -3
3 -9 17 -15 34 -15 39 0 73 -26 76 -58 1 -17 10 -29 22 -33 15 -5 16 -8 5 -15
-8 -5 -9 -9 -3 -9 21 0 22 12 3 44 -11 19 -17 40 -14 47 3 8 0 28 -5 44 l-10
30 3 -32z"/>
<path d="M5692 3416 c-8 -14 -3 -71 8 -102 6 -15 6 -32 1 -42 -5 -10 -5 -41 0
-76 7 -40 6 -63 -1 -70 -13 -13 -13 -49 0 -62 5 -5 11 -41 14 -79 15 -238 20
-281 29 -293 7 -9 3 -26 -14 -58 l-23 -46 25 -22 c25 -21 27 -30 35 -157 4
-74 9 -152 9 -174 1 -22 5 -48 10 -58 4 -10 5 -44 2 -76 -5 -40 -2 -63 7 -77
9 -13 13 -47 12 -106 -1 -49 1 -88 4 -88 4 0 6 -39 5 -87 -1 -80 -3 -91 -27
-115 -14 -16 -30 -28 -36 -28 -5 0 -13 24 -17 53 -8 65 -14 87 -24 87 -4 0 -1
-47 7 -104 12 -86 18 -105 33 -109 23 -6 26 8 4 17 -16 6 -21 46 -7 46 5 0 26
-18 46 -41 46 -49 43 -74 -6 -64 -18 4 -39 12 -45 17 -9 7 -22 7 -42 -2 -33
-13 -71 0 -71 24 0 8 -7 17 -16 20 -14 5 -15 4 -5 -8 9 -11 9 -16 0 -22 -8 -4
8 -14 42 -25 30 -10 48 -18 41 -18 -7 -1 -10 -6 -6 -12 5 -8 9 -8 14 1 9 15
52 17 99 6 24 -6 32 -5 27 3 -4 6 -2 11 3 11 22 0 10 47 -19 75 -37 35 -37 40
-4 70 20 18 26 34 27 72 1 26 -2 59 -7 73 -8 22 -7 24 8 11 9 -8 14 -16 12
-19 -3 -2 1 -11 9 -18 8 -8 12 -21 9 -29 -4 -8 -2 -15 4 -15 11 0 4 -48 -9
-56 -13 -7 -11 -81 2 -89 6 -4 8 -13 5 -21 -3 -8 -2 -14 3 -14 17 0 20 14 6
34 -18 25 -19 58 -3 74 6 6 12 42 13 79 1 38 -1 59 -5 49 -5 -16 -10 -11 -28
28 -13 26 -22 52 -21 59 1 7 -1 28 -5 47 -11 57 -13 141 -4 147 5 3 7 11 4 18
-3 8 4 17 15 20 15 5 17 10 9 20 -6 7 -13 51 -15 97 -5 80 -4 85 17 97 22 11
22 11 -5 7 -22 -3 -27 0 -24 13 2 9 9 15 15 14 7 -2 12 4 12 13 0 8 3 13 8 11
4 -3 7 5 7 18 0 13 -3 21 -7 19 -4 -2 -9 0 -13 6 -3 5 -11 10 -17 10 -6 0 -3
-9 6 -19 16 -18 16 -20 -4 -34 -22 -15 -22 -11 -7 -241 1 -16 -4 -31 -10 -33
-10 -3 -13 11 -13 54 0 33 -5 64 -12 71 -7 7 -8 12 -2 12 5 0 6 41 1 107 -4
60 -9 134 -11 166 -3 42 -10 65 -26 82 -16 17 -19 29 -14 51 4 16 10 34 14 39
15 20 28 83 19 96 -6 10 -9 4 -9 -18 0 -18 -4 -33 -10 -33 -6 0 -10 35 -11 83
0 45 -2 97 -3 115 l-4 32 72 0 c39 0 95 3 125 7 37 4 52 3 48 -4 -4 -6 -51
-14 -105 -18 -55 -4 -105 -11 -113 -16 -10 -7 -6 -8 11 -4 14 3 70 7 125 8
l100 2 2 43 2 43 -134 -3 -134 -3 -7 40 c-3 22 -11 46 -16 52 -6 7 -7 21 -3
30 7 17 8 16 15 -2 13 -30 11 -8 -4 75 -10 52 -11 78 -4 87 6 7 7 21 3 30 -13
34 -22 103 -15 108 10 6 22 -24 14 -36 -9 -16 8 -10 21 7 8 11 19 14 33 10 19
-6 20 -9 8 -22 -8 -8 -23 -14 -33 -15 -12 -1 -10 -3 7 -8 15 -5 28 -3 32 4 7
12 34 12 104 0 26 -5 44 -3 48 4 4 6 21 8 39 5 30 -4 31 -4 7 6 -17 8 -31 8
-48 0 -23 -10 -72 -4 -82 10 -3 4 -34 15 -70 23 l-65 15 144 1 c79 1 141 4
137 9 -12 11 -297 9 -304 -2z m295 -451 c-4 -13 -73 -23 -154 -24 -54 -1 -63
2 -63 17 -1 16 -1 16 -11 0 -12 -22 -29 -23 -29 -4 0 19 15 21 147 21 71 0
112 -4 110 -10z m-177 -921 c0 -8 -4 -12 -10 -9 -5 3 -10 13 -10 21 0 8 5 12
10 9 6 -3 10 -13 10 -21z m7 -196 c-3 -8 -6 -5 -6 6 -1 11 2 17 5 13 3 -3 4
-12 1 -19z m-92 -358 c-3 -5 -11 -10 -16 -10 -6 0 -7 5 -4 10 3 6 11 10 16 10
6 0 7 -4 4 -10z"/>
<path d="M5681 3304 c0 -11 3 -14 6 -6 3 7 2 16 -1 19 -3 4 -6 -2 -5 -13z"/>
<path d="M2173 3256 c-13 -6 -23 -18 -23 -26 0 -9 -5 -21 -11 -27 -8 -8 -8
-13 0 -18 7 -4 14 5 17 23 4 20 16 34 37 45 18 9 25 15 17 15 -8 0 -25 -5 -37
-12z"/>
<path d="M5368 3215 c-6 -7 0 -159 8 -190 3 -11 7 -69 11 -130 3 -60 9 -117
15 -125 6 -10 7 -6 4 15 -5 28 -18 286 -20 387 -1 45 -5 55 -18 43z"/>
<path d="M5428 3088 c2 -10 0 -24 -6 -31 -7 -8 -7 -28 0 -62 6 -28 12 -99 14
-160 2 -60 6 -125 10 -142 7 -37 -2 -83 -16 -83 -6 0 -10 13 -10 29 0 17 -5
33 -11 37 -8 4 -9 0 -4 -15 9 -28 -8 -27 -39 4 -24 24 -86 36 -86 16 0 -4 10
-6 23 -4 15 3 36 -6 62 -27 51 -40 58 -54 51 -95 -7 -37 1 -85 15 -85 4 0 5
10 0 22 -8 23 12 121 26 125 9 3 9 59 0 88 -4 11 -9 84 -12 163 -2 79 -7 147
-10 152 -3 5 -1 26 3 48 7 28 6 39 -3 39 -7 0 -10 -8 -7 -19z"/>
<path d="M321 3051 c-39 -55 -56 -248 -24 -283 15 -17 43 -14 43 4 0 5 -5 6
-10 3 -6 -4 -18 -1 -26 6 -13 10 -14 29 -9 108 7 107 21 148 50 143 16 -3 17
-1 8 8 -6 7 -9 19 -6 26 9 23 -4 16 -26 -15z"/>
<path d="M33 3024 c-1 -19 3 -34 8 -34 11 0 12 57 1 64 -4 3 -9 -11 -9 -30z"/>
<path d="M5816 3023 c19 -14 184 -14 184 -1 0 4 -10 8 -22 9 -161 5 -178 4
-162 -8z"/>
<path d="M227 3013 c-4 -3 -7 -11 -7 -17 0 -6 5 -5 12 2 6 6 9 14 7 17 -3 3
-9 2 -12 -2z"/>
<path d="M4414 2954 c-21 -26 -54 -53 -71 -61 -18 -7 -33 -19 -33 -26 0 -25
-68 -89 -92 -87 -43 4 -58 0 -77 -19 -32 -32 -59 -43 -79 -32 -10 5 -24 6 -31
1 -9 -5 0 -10 28 -15 26 -4 47 -3 55 4 7 6 21 9 30 5 17 -7 46 11 46 29 0 7
-4 7 -12 -1 -7 -7 -18 -12 -26 -12 -12 0 -12 3 -2 16 10 11 23 14 52 9 34 -6
41 -3 65 24 15 17 34 31 42 31 12 0 12 -3 3 -12 -7 -7 -12 -18 -12 -25 0 -6
11 -1 25 13 14 14 25 29 25 34 0 4 18 11 40 15 22 4 43 12 47 18 4 6 0 8 -10
4 -28 -11 -19 7 12 26 28 16 103 19 118 3 14 -13 25 -5 12 10 -7 9 -21 13 -32
10 -11 -3 -29 0 -39 5 -14 8 -26 5 -47 -11 -16 -11 -33 -20 -38 -20 -4 0 -14
-9 -21 -20 -7 -11 -21 -20 -31 -20 -11 0 -21 -7 -23 -15 -2 -8 -8 -11 -14 -7
-18 11 2 52 26 52 22 0 65 42 76 73 4 12 12 16 25 12 20 -7 24 2 10 23 -6 10
-18 2 -47 -34z"/>
<path d="M4805 2900 c-5 -15 -1 -31 14 -51 12 -15 21 -33 21 -39 0 -6 7 -13
15 -16 8 -4 15 -11 15 -16 0 -5 14 -30 32 -54 17 -24 28 -47 25 -51 -12 -12
-60 31 -81 73 -11 21 -27 46 -35 54 -13 13 -14 10 -7 -25 4 -22 9 -53 12 -70
3 -16 10 -34 15 -40 11 -11 12 -25 2 -25 -15 0 -41 86 -46 148 -4 42 -11 70
-23 84 -18 19 -19 19 -34 0 -25 -31 -42 -30 -72 2 -15 17 -28 25 -28 18 0 -7
7 -15 15 -18 8 -4 15 -12 15 -20 0 -11 -7 -13 -27 -8 -16 4 -32 11 -37 15 -13
11 -26 11 -26 0 0 -4 21 -14 48 -21 58 -16 59 -17 39 -33 -12 -8 -14 -16 -7
-27 6 -10 10 -11 10 -3 0 17 41 63 56 63 6 0 15 8 18 17 12 29 25 0 40 -84 8
-44 19 -90 25 -102 7 -12 9 -26 6 -31 -3 -6 5 -10 19 -10 14 0 26 5 26 11 0 7
9 9 21 6 12 -3 19 -1 16 6 -2 6 -14 12 -27 12 -19 0 -23 6 -26 35 l-4 35 33
-39 33 -39 102 -1 c61 -1 104 3 106 9 3 6 8 4 14 -4 5 -7 15 -11 21 -7 6 4 26
4 46 0 26 -5 35 -11 35 -26 0 -11 7 -27 16 -36 15 -15 16 -13 9 19 -10 47 -10
47 -63 54 -26 3 -55 10 -64 16 -24 13 -28 12 -28 -7 0 -12 -3 -14 -12 -6 -8 6
-32 7 -59 3 -29 -5 -52 -3 -60 3 -20 15 -79 102 -79 115 0 6 -6 11 -14 11 -7
0 -16 10 -19 23 -2 12 -8 31 -13 42 -7 18 -6 18 9 6 10 -8 17 -9 17 -3 0 6 -5
14 -10 17 -6 4 -7 11 -4 17 5 7 2 8 -6 3 -7 -4 -16 -2 -20 5 -6 9 -10 6 -15
-10z m23 -155 c-3 -3 -9 2 -12 12 -6 14 -5 15 5 6 7 -7 10 -15 7 -18z"/>
<path d="M37 2878 c-2 -18 -2 -58 1 -89 3 -37 1 -59 -7 -64 -9 -5 -11 4 -8 34
2 23 0 41 -5 41 -5 0 -6 -42 -3 -97 4 -58 3 -117 -4 -143 -6 -28 -6 -49 0 -55
5 -5 9 -1 9 13 0 12 0 23 -1 25 0 1 4 14 10 29 5 15 13 93 16 174 3 80 8 150
11 155 3 5 1 9 -4 9 -5 0 -12 -15 -15 -32z"/>
<path d="M3675 2859 c-22 -22 -56 -50 -75 -62 -19 -11 -38 -26 -42 -31 -5 -8
-13 -7 -26 0 -13 8 -24 9 -37 2 -13 -8 -20 -7 -27 6 -5 9 -19 16 -32 16 -13 0
-34 9 -48 20 -24 18 -26 18 -49 2 -13 -9 -25 -16 -26 -14 -8 7 -33 0 -33 -8 0
-7 6 -8 17 -2 17 10 50 -2 65 -23 5 -6 8 -6 8 2 0 7 -8 16 -17 22 -32 18 -3
25 32 8 20 -9 42 -17 51 -17 8 0 17 -6 20 -13 3 -9 22 -14 51 -14 27 0 49 -5
51 -11 2 -7 8 -12 14 -12 7 0 7 5 -1 13 -8 11 -1 20 37 45 50 33 133 112 116
112 -5 0 -28 -18 -49 -41z"/>
<path d="M4450 2880 c0 -5 17 -12 38 -15 56 -10 60 -12 64 -36 2 -18 10 -22
41 -23 25 -1 37 3 37 13 0 9 -10 12 -35 9 -28 -3 -35 0 -37 16 -3 16 -47 35
-105 46 -2 0 -3 -4 -3 -10z"/>
<path d="M2955 2870 c-3 -5 -1 -10 4 -10 6 0 11 -8 11 -19 0 -26 46 -54 77
-46 17 4 23 2 17 -6 -4 -7 -2 -10 5 -8 21 7 7 24 -19 24 -34 0 -70 22 -64 39
6 17 -22 41 -31 26z"/>
<path d="M2919 2825 c-3 -2 -14 -6 -25 -8 -25 -3 -59 -37 -60 -59 -2 -47 -5
-58 -15 -58 -6 0 -9 7 -5 15 3 8 1 15 -4 15 -6 0 -10 -7 -10 -16 0 -9 -9 -27
-20 -41 -29 -37 -27 -103 5 -141 14 -17 25 -37 25 -46 0 -9 -27 16 -61 56 -60
72 -85 89 -83 57 1 -13 -7 -15 -45 -11 -57 5 -71 -8 -79 -73 -3 -34 1 -57 21
-97 35 -74 44 -108 61 -225 12 -77 24 -120 51 -172 19 -39 35 -76 35 -84 0
-22 66 -84 96 -89 16 -3 38 -8 49 -12 18 -7 18 -6 -1 6 -22 14 -22 38 1 38 7
0 15 8 17 18 2 9 16 -23 32 -73 15 -49 34 -104 42 -122 8 -17 14 -37 14 -43 0
-15 68 -169 83 -188 23 -29 16 -1 -16 64 -52 105 -137 352 -137 396 0 15 -9
51 -19 80 -16 44 -23 68 -36 118 0 3 -7 35 -14 73 -7 37 -17 70 -22 73 -5 3
-9 20 -9 37 0 58 -28 178 -46 198 -9 10 -15 21 -12 24 6 6 74 -85 82 -111 3
-11 22 -35 40 -53 28 -27 43 -34 78 -34 24 -1 55 2 70 7 25 7 27 6 43 -51 9
-32 23 -74 32 -93 19 -42 140 -166 175 -179 13 -5 82 -8 154 -8 120 2 133 4
184 30 30 16 72 45 93 65 23 22 46 36 58 34 14 -3 19 2 18 20 -1 17 -3 18 -6
6 -2 -10 -9 -18 -14 -18 -12 0 -3 33 17 70 l14 25 -1 -25 c-1 -14 -1 -38 0
-55 1 -24 3 -27 11 -15 6 8 9 29 8 46 -1 20 5 38 20 54 12 13 22 31 22 40 0
36 29 124 44 132 9 5 16 14 16 20 0 20 -31 -15 -51 -56 -10 -23 -20 -56 -22
-74 -4 -31 -33 -79 -42 -70 -3 2 0 22 6 43 12 42 7 186 -6 219 -8 18 -7 18 18
1 30 -19 35 -61 17 -125 -9 -30 -8 -32 5 -19 21 21 32 114 15 134 -10 12 -10
15 4 15 19 0 19 1 7 33 -9 23 -7 25 41 35 63 15 161 15 175 1 19 -19 3 -39
-32 -39 -41 0 -53 15 -22 25 21 7 21 8 -6 12 -37 6 -38 4 -24 -37 15 -42 39
-80 89 -141 23 -28 38 -57 38 -73 0 -15 4 -25 9 -21 17 10 -7 67 -54 126 -25
31 -43 63 -42 71 2 7 2 10 0 5 -6 -9 -23 1 -23 13 0 5 19 10 43 12 39 3 42 5
43 33 l1 31 -71 2 c-64 2 -119 -4 -198 -24 -18 -4 -28 -2 -28 4 0 19 80 34
185 36 82 1 105 -2 127 -17 26 -18 26 -19 12 -59 -16 -45 -19 -134 -5 -142 5
-4 7 3 4 14 -3 12 0 20 7 20 8 0 11 -11 7 -32 -6 -42 16 -114 43 -143 12 -13
19 -28 15 -34 -3 -6 -1 -11 6 -11 7 0 27 -11 45 -25 49 -38 130 -63 225 -70
79 -7 90 -5 142 19 72 32 158 119 196 196 17 33 27 60 23 60 -4 0 -21 -25 -36
-57 -40 -77 -130 -166 -191 -187 -63 -21 -82 -20 -30 2 89 38 195 136 195 182
0 9 6 22 13 30 10 12 9 12 -5 1 -10 -7 -18 -19 -18 -26 0 -46 -158 -179 -224
-189 -85 -13 -120 -16 -115 -11 4 3 26 10 50 15 l44 9 -47 -4 c-71 -7 -209 40
-193 65 4 6 -3 6 -19 1 -22 -9 -28 -5 -60 36 -20 26 -36 57 -36 69 0 13 -4 26
-10 29 -13 8 18 55 37 55 8 0 11 5 8 10 -4 7 -13 6 -27 -1 -15 -8 -19 -8 -13
1 9 14 -2 60 -15 60 -5 0 -7 -7 -4 -15 4 -8 1 -15 -5 -15 -17 0 -13 47 9 88
36 68 37 70 56 44 14 -21 24 -23 73 -22 100 4 115 2 102 -14 -10 -12 -6 -14
21 -11 80 8 159 48 158 79 0 6 -6 4 -13 -5 -27 -35 -147 -76 -147 -50 0 7 4
10 8 7 5 -3 19 12 33 34 l24 39 65 -4 c36 -2 75 -6 87 -10 16 -5 23 -2 28 15
10 31 -12 50 -59 51 -22 0 -59 3 -81 7 -22 4 -62 5 -90 1 -32 -4 -53 -2 -57 5
-13 19 7 27 93 36 117 12 224 -6 254 -43 11 -15 26 -27 33 -27 7 0 10 -5 7
-10 -5 -8 -11 -7 -21 1 -18 15 -20 13 -28 -38 -4 -26 -2 -43 4 -43 13 0 24 46
15 61 -5 7 -3 10 6 7 8 -3 15 -15 17 -29 6 -53 13 -69 30 -69 13 0 14 2 3 9
-13 9 -33 86 -23 95 2 3 12 1 21 -4 20 -10 26 -116 13 -217 -5 -34 -5 -60 -1
-57 4 2 10 46 14 98 4 51 11 100 16 107 13 22 33 -6 32 -46 -1 -19 3 -35 8
-35 5 0 9 7 9 15 0 10 10 15 34 15 72 0 126 39 79 57 -15 6 -14 8 7 15 20 6
19 7 -8 3 -20 -3 -31 -1 -27 5 3 6 18 10 33 10 25 0 25 1 6 15 -18 14 -44 21
-31 9 3 -3 -3 -15 -13 -27 -17 -18 -24 -19 -55 -10 -19 6 -37 8 -40 3 -2 -4
-15 -7 -27 -6 -17 1 -22 6 -20 22 2 16 -7 28 -35 45 -21 13 -45 32 -54 43 -11
13 -39 23 -90 32 l-74 12 54 1 c66 1 118 -22 179 -79 24 -22 42 -34 40 -26 -5
23 -100 96 -143 109 -55 17 -277 16 -337 -2 -26 -7 -53 -20 -59 -27 -8 -10 3
-8 32 5 29 13 76 20 138 23 52 2 85 1 75 -3 -10 -4 -37 -8 -60 -8 -95 -2 -196
-36 -164 -56 5 -3 10 -1 10 4 0 6 7 11 15 11 27 0 16 -19 -20 -34 -23 -10 -35
-22 -35 -35 0 -11 -4 -23 -10 -26 -5 -3 -10 -11 -10 -17 0 -6 6 -5 16 2 13 11
19 10 37 -8 l21 -22 -46 0 c-45 0 -81 21 -58 35 5 3 10 11 10 18 0 8 -3 8 -11
0 -6 -6 -17 -9 -24 -6 -8 2 -19 -5 -25 -17 -9 -17 -14 -19 -26 -9 -8 6 -14 17
-14 24 0 17 -112 27 -180 16 -87 -15 -142 -29 -149 -38 -3 -5 -13 -9 -21 -8
-24 0 -100 49 -100 63 0 7 -5 10 -11 7 -6 -4 -8 -13 -5 -21 6 -17 2 -17 -44
-4 -19 6 -75 10 -125 11 -172 1 -328 -72 -382 -180 -38 -76 -35 -141 8 -229
39 -80 97 -145 164 -183 27 -16 45 -29 39 -29 -22 0 -101 59 -148 111 -50 56
-78 109 -98 186 l-11 45 -36 -8 c-67 -15 -99 -9 -132 22 -42 39 -52 62 -51
105 1 23 -4 42 -14 50 -44 36 -40 121 7 148 16 9 29 24 29 34 0 30 32 90 40
77 5 -8 9 -7 14 5 9 25 52 16 48 -10 -2 -15 -1 -17 6 -6 6 7 14 11 20 7 6 -3
13 -2 17 4 3 5 -1 10 -10 10 -8 0 -18 7 -21 15 -6 14 -26 20 -35 10z m1631
-165 c0 -15 -8 -17 -57 -13 -32 2 -62 8 -67 13 -7 7 -5 10 3 10 7 0 11 6 8 13
-4 11 7 11 54 4 45 -8 59 -14 59 -27z m-135 -5 c-3 -74 -84 -103 -139 -48 -15
14 -25 31 -23 36 4 14 94 45 132 46 29 1 31 -1 30 -34z m165 18 c0 -5 -5 -15
-10 -23 -8 -12 -10 -11 -10 8 0 12 5 22 10 22 6 0 10 -3 10 -7z m25 -24 c-10
-15 -25 -10 -19 6 4 8 10 12 15 9 5 -3 7 -10 4 -15z m-1003 -37 c46 -12 94
-42 133 -82 28 -29 29 -34 26 -113 -1 -45 -4 -84 -6 -86 -3 -2 -11 2 -20 9
-18 15 -20 63 -3 93 15 27 16 50 3 59 -18 14 -28 8 -15 -7 10 -12 10 -21 1
-41 -18 -40 -14 -98 8 -118 11 -10 25 -15 31 -11 16 10 2 -60 -21 -107 -60
-118 -184 -190 -322 -187 -45 1 -48 2 -22 9 l30 8 -35 1 c-20 0 -62 15 -94 32
-37 19 -62 26 -66 20 -8 -13 -78 59 -111 114 -13 22 -32 67 -41 100 -16 57
-16 62 3 114 11 32 35 72 56 94 40 41 145 96 184 98 13 0 44 6 69 12 46 12
140 7 212 -11z m94 -18 c21 -15 42 -32 46 -38 6 -8 8 -7 8 2 0 6 6 12 14 12 9
0 12 -8 8 -26 l-5 -25 -31 29 c-17 16 -46 37 -63 46 -18 9 -33 19 -33 21 0 11
19 4 56 -21z m-976 -52 c-4 -2 -6 -13 -4 -25 4 -19 3 -18 -6 3 -6 14 -17 28
-25 32 -7 5 -11 17 -8 27 5 18 7 18 28 -7 13 -15 20 -28 15 -30z m2213 35 l22
-15 -28 -11 c-59 -23 -94 -13 -110 32 -6 15 -1 17 43 13 28 -2 60 -11 73 -19z
m-2281 -17 c7 -11 18 -20 24 -20 20 0 34 -52 36 -138 1 -54 6 -87 15 -94 7 -6
13 -18 13 -28 0 -10 9 -20 20 -23 22 -6 27 8 7 20 -14 8 -29 38 -32 63 -16
126 -17 162 -4 158 17 -6 25 -31 40 -138 6 -47 15 -89 19 -95 9 -13 18 -51 25
-107 3 -23 10 -47 15 -52 6 -6 10 -19 10 -30 0 -12 7 -41 16 -65 9 -26 12 -56
8 -75 -7 -34 -40 -76 -61 -76 -25 0 -78 69 -102 132 -13 35 -30 71 -38 80 -9
10 -18 54 -23 110 -8 90 -45 217 -76 263 -19 26 -18 85 2 113 20 29 69 30 86
2z m1178 -19 c0 -26 -17 -36 -35 -21 -18 15 -8 40 16 40 12 0 19 -7 19 -19z
m-53 -123 c-3 -8 -6 -5 -6 6 -1 11 2 17 5 13 3 -3 4 -12 1 -19z m0 -70 c-3 -8
-6 -5 -6 6 -1 11 2 17 5 13 3 -3 4 -12 1 -19z m494 -162 c19 -13 55 -29 80
-34 33 -8 37 -10 16 -11 -33 -1 -88 20 -124 49 -36 28 -15 25 28 -4z m232 -63
c-7 -2 -19 -2 -25 0 -7 3 -2 5 12 5 14 0 19 -2 13 -5z m-1183 -77 c19 -8 28
-15 20 -15 -17 -1 -100 35 -100 43 0 6 21 -2 80 -28z"/>
<path d="M3315 2565 c-65 -16 -145 -52 -145 -64 0 -5 28 5 63 22 52 25 77 31
155 35 85 4 92 3 92 -14 0 -29 -41 -72 -76 -79 -25 -5 -37 0 -62 22 -18 15
-32 33 -32 41 0 8 -9 3 -22 -11 -34 -36 -88 -61 -101 -48 -6 6 -20 11 -31 11
-16 -1 -13 -4 12 -15 23 -10 40 -12 58 -5 32 13 47 13 39 1 -3 -5 -1 -12 5
-16 6 -3 10 4 10 17 0 44 14 51 44 21 39 -39 109 -39 142 0 28 32 29 32 55 6
16 -16 18 -23 8 -35 -8 -10 -8 -14 0 -14 6 0 11 4 11 9 0 6 11 22 25 37 13 14
22 31 19 36 -3 5 0 16 8 25 11 15 11 16 -4 10 -10 -3 -33 0 -52 8 -43 18 -151
18 -221 0z m233 -21 c25 -17 29 -42 8 -50 -14 -5 -66 39 -66 56 0 15 33 12 58
-6z"/>
<path d="M3145 2500 c-3 -5 -1 -10 4 -10 6 0 11 5 11 10 0 6 -2 10 -4 10 -3 0
-8 -4 -11 -10z"/>
<path d="M3110 2473 c0 -6 7 -19 16 -27 14 -15 14 -16 0 -16 -9 0 -16 -4 -16
-10 0 -13 6 -13 29 2 15 9 35 9 90 -2 39 -7 73 -12 77 -11 3 1 12 -6 20 -16 7
-10 14 -13 14 -6 0 15 -18 27 -50 31 -13 2 -30 7 -36 13 -6 5 -14 6 -17 2 -4
-3 -7 -2 -7 3 0 5 -20 8 -44 6 -36 -3 -46 0 -60 19 -9 13 -16 18 -16 12z"/>
<path d="M3721 2222 c-30 -73 -141 -154 -248 -182 l-38 -10 35 4 c68 8 144 44
194 93 50 50 80 96 74 115 -2 6 -10 -3 -17 -20z"/>
<path d="M2580 2555 c-8 -9 -8 -15 -2 -15 12 0 26 19 19 26 -2 2 -10 -2 -17
-11z"/>
<path d="M2566 2493 c4 -21 18 -58 31 -82 12 -24 23 -55 23 -68 0 -38 23 -22
32 22 5 21 13 44 18 50 5 7 7 15 3 18 -3 4 0 7 7 7 8 0 -6 20 -30 45 -27 28
-53 45 -68 45 -21 0 -22 -3 -16 -37z m71 -14 c29 -25 30 -28 20 -62 -7 -21
-17 -37 -23 -37 -11 0 -44 68 -44 93 0 9 -4 19 -10 22 -5 3 -10 10 -10 15 0
14 33 -1 67 -31z m0 -141 c-3 -8 -6 -5 -6 6 -1 11 2 17 5 13 3 -3 4 -12 1 -19z"/>
<path d="M2669 2375 c-10 -19 -9 -133 1 -181 8 -35 8 -49 -1 -54 -16 -11 -2
-48 26 -66 27 -18 40 -13 48 16 4 17 2 20 -13 15 -12 -4 -22 1 -29 12 -10 17
-10 17 -11 -2 0 -16 -2 -17 -9 -5 -14 21 -2 32 28 25 14 -4 32 -8 40 -8 22 -1
60 -49 61 -77 1 -14 4 -32 8 -40 8 -17 32 -25 32 -10 0 6 -4 10 -10 10 -5 0
-10 14 -10 32 0 19 -9 41 -22 55 -12 13 -16 23 -10 23 7 0 12 8 12 18 -1 16
-1 16 -11 -1 -16 -28 -29 -10 -28 41 l1 47 14 -35 14 -35 -6 35 c-7 41 -12 50
-25 50 -5 0 -9 -20 -9 -44 0 -49 -10 -61 -43 -52 -19 4 -25 16 -35 75 -7 41
-8 80 -4 93 9 24 0 80 -9 63z m61 -297 c0 -13 -23 -5 -28 10 -2 7 2 10 12 6 9
-3 16 -11 16 -16z"/>
<path d="M2846 1966 c3 -8 0 -25 -6 -38 -11 -22 -10 -22 4 -4 18 22 21 56 6
56 -5 0 -7 -6 -4 -14z"/>
<path d="M2780 1892 c0 -5 14 -7 30 -4 17 2 30 6 30 8 0 2 -13 4 -30 4 -16 0
-30 -4 -30 -8z"/>
<path d="M3108 2823 c-19 -5 -22 -12 -10 -29 13 -19 36 -22 71 -8 25 10 37 11
47 3 23 -19 85 -48 82 -38 -2 6 -25 22 -51 37 -40 22 -51 24 -67 14 -24 -15
-67 -16 -75 -2 -6 10 15 14 44 11 7 -2 10 2 6 8 -6 11 -17 12 -47 4z"/>
<path d="M4626 2674 c9 -64 14 -68 14 -11 0 25 -5 49 -11 52 -7 5 -8 -8 -3
-41z"/>
<path d="M4170 2687 c-28 -24 -60 -67 -60 -79 0 -19 19 -5 30 21 6 16 18 32
25 35 11 4 42 47 33 46 -2 0 -14 -11 -28 -23z"/>
<path d="M1039 2654 c-1 -16 -1 -35 0 -42 1 -8 -3 -19 -9 -27 -8 -9 -7 -14 5
-19 19 -7 19 -53 -1 -91 -10 -19 -13 -42 -9 -62 4 -20 2 -33 -5 -33 -5 0 -10
-5 -10 -11 0 -5 5 -7 10 -4 6 4 10 -8 10 -29 0 -19 -4 -37 -10 -41 -6 -3 -6
-15 0 -29 5 -13 6 -34 3 -46 -4 -16 -3 -21 5 -16 7 4 12 16 12 27 0 10 5 19
10 19 6 0 10 8 10 17 0 15 -2 14 -14 -3 -13 -17 -14 -15 -10 26 3 25 7 47 9
49 3 2 0 12 -5 21 -7 13 -4 24 9 41 23 29 37 89 22 89 -6 0 -11 -16 -11 -35 0
-34 -12 -46 -26 -24 -3 6 -1 16 5 22 6 6 11 19 11 29 0 10 16 36 36 58 38 42
36 55 -3 18 -20 -18 -23 -19 -23 -5 0 9 -5 17 -11 17 -8 0 -8 4 -1 13 5 6 8
30 5 52 -5 48 -13 59 -14 19z"/>
<path d="M3390 2663 c-36 -9 -84 -16 -107 -16 -23 0 -40 -3 -38 -7 2 -4 -20
-19 -50 -35 -59 -30 -135 -104 -135 -133 0 -56 -83 -89 -140 -56 -16 10 -32
26 -35 35 -7 19 -55 55 -55 40 0 -5 5 -13 10 -16 6 -3 10 -19 10 -34 0 -15 8
-35 18 -43 20 -18 72 -32 72 -19 0 4 19 11 41 15 59 9 76 21 84 57 8 36 62 99
112 130 19 12 77 34 130 50 110 33 237 40 286 15 15 -8 27 -11 27 -6 0 17 -71
40 -119 39 -25 0 -75 -8 -111 -16z m-490 -270 c0 -4 -9 3 -20 15 -11 12 -20
29 -20 39 0 12 6 8 20 -15 11 -18 20 -35 20 -39z m37 1 c-3 -3 -12 -4 -19 -1
-8 3 -5 6 6 6 11 1 17 -2 13 -5z"/>
<path d="M5228 2559 c25 -23 20 -43 -9 -34 -11 4 -19 2 -19 -4 0 -6 8 -11 18
-11 11 0 18 -8 18 -22 1 -13 4 -32 7 -43 5 -24 -11 -47 -27 -39 -6 3 0 -3 13
-14 21 -17 23 -25 18 -69 -3 -30 -1 -55 5 -61 16 -16 5 -128 -15 -150 -23 -25
-22 -39 2 -18 10 10 22 32 25 50 5 27 10 32 34 31 21 0 28 5 30 23 2 12 -2 22
-8 22 -7 0 -10 -6 -7 -14 6 -16 -19 -31 -28 -17 -2 5 -6 30 -7 55 0 26 -5 49
-10 52 -4 3 -8 22 -8 42 0 20 -4 44 -9 52 -6 8 -7 18 -4 23 3 6 12 -1 19 -14
21 -39 16 -2 -6 41 -23 46 -26 74 -5 46 13 -17 15 -17 15 -3 0 9 -8 21 -17 26
-17 10 -17 10 -1 11 10 0 26 -10 38 -22 11 -12 22 -19 25 -16 3 3 -9 18 -27
33 -18 15 -33 32 -33 37 0 10 -25 28 -39 28 -6 0 0 -9 12 -21z m36 -275 c3 -8
2 -12 -4 -9 -6 3 -10 10 -10 16 0 14 7 11 14 -7z"/>
<path d="M4792 2550 c0 -14 2 -19 5 -12 2 6 2 18 0 25 -3 6 -5 1 -5 -13z"/>
<path d="M3923 2468 c2 -7 11 -13 20 -13 8 0 19 -4 23 -8 4 -4 17 -7 28 -7 15
1 9 6 -19 20 -47 23 -58 24 -52 8z"/>
<path d="M1433 2370 c2 -58 3 -95 0 -82 -2 12 -9 22 -14 22 -5 0 -8 -3 -7 -7
1 -5 -1 -18 -5 -29 -4 -12 -1 -55 8 -95 9 -47 11 -75 5 -79 -9 -5 -11 -36 -11
-135 0 -11 3 -35 7 -52 4 -23 3 -33 -6 -33 -7 0 -10 8 -7 20 3 11 1 18 -4 14
-5 -3 -10 0 -10 5 -1 6 -2 15 -3 20 0 5 -5 13 -10 18 -5 5 -6 3 -2 -4 4 -7 3
-13 -3 -13 -5 0 -12 6 -14 13 -4 9 -6 9 -6 -1 -1 -8 8 -21 19 -30 23 -20 41
-80 20 -67 -10 6 -11 4 -4 -6 11 -17 6 -51 -10 -62 -7 -6 -5 -7 5 -4 24 8 28
-27 22 -155 -5 -81 -9 -108 -19 -108 -8 0 -14 7 -14 15 0 8 -4 15 -10 15 -5 0
-6 -8 -3 -17 5 -12 2 -15 -10 -10 -9 3 -41 1 -71 -5 -45 -9 -55 -14 -59 -34
-5 -29 13 -32 20 -4 6 21 23 29 68 30 55 1 88 -5 92 -16 2 -7 -6 -10 -22 -7
-14 3 -25 1 -25 -6 0 -5 6 -8 14 -5 8 3 17 0 21 -5 14 -24 23 2 25 76 4 174 8
221 19 241 14 26 14 32 1 32 -5 0 -10 -7 -10 -15 0 -8 -5 -15 -11 -15 -6 0 -9
10 -7 23 2 15 9 21 21 19 16 -3 16 0 5 17 -10 16 -10 23 0 33 16 16 15 43 -1
57 -12 9 -11 20 4 63 18 52 18 120 -1 158 -4 8 -10 36 -13 62 -5 36 -3 46 6
42 8 -3 12 -19 11 -42 l-3 -37 8 35 c9 39 4 240 -5 249 -4 3 -4 -41 -1 -99z
m-1 -326 c-6 -35 -12 -29 -12 14 0 23 3 32 9 24 4 -7 6 -24 3 -38z"/>
<path d="M4823 2458 c-5 -7 -8 -22 -6 -33 2 -11 6 -39 9 -63 4 -29 13 -46 27
-54 20 -10 20 -11 3 -24 -15 -10 -18 -27 -18 -84 1 -46 6 -80 16 -95 13 -19
13 -25 1 -43 -10 -13 -16 -59 -20 -132 -3 -62 -10 -144 -16 -182 -6 -38 -8
-76 -5 -84 5 -12 -5 -18 -25 -16 -4 1 -6 -4 -6 -11 2 -15 -19 -89 -39 -140 -7
-20 -14 -70 -14 -110 -1 -39 -7 -110 -14 -157 -17 -102 -64 -291 -77 -305 -5
-5 -9 -17 -9 -26 0 -10 -5 -30 -12 -46 -6 -15 -13 -45 -14 -66 -1 -21 -7 -43
-12 -50 -9 -12 -21 -59 -25 -105 -1 -12 -9 -27 -17 -32 -13 -9 -7 -14 13 -11
4 0 7 -1 7 -3 0 -4 -39 -112 -72 -199 -6 -16 -22 -35 -35 -44 -12 -8 -23 -24
-23 -34 0 -25 -22 -24 -35 0 -51 100 -77 141 -122 191 -29 32 -53 61 -53 64 0
3 8 6 17 6 13 0 14 3 5 12 -9 9 -15 9 -23 1 -9 -9 -28 2 -76 40 -72 58 -80 63
-107 72 -19 5 -19 6 0 21 17 14 12 15 -61 10 -93 -6 -151 7 -212 48 -23 15
-47 25 -52 21 -6 -3 -22 5 -36 19 -14 15 -28 26 -31 26 -24 0 -328 296 -319
311 9 13 -3 46 -19 52 -11 4 -12 -1 -3 -26 5 -18 16 -44 23 -59 8 -14 11 -28
7 -31 -5 -2 -2 -2 5 0 12 3 36 -18 79 -68 17 -20 71 -69 131 -119 30 -24 58
-54 63 -67 5 -13 14 -23 20 -23 8 0 8 4 -1 15 -11 13 -10 14 4 9 17 -6 18 -9
19 -46 1 -25 64 -95 75 -83 4 4 -6 18 -23 32 -17 14 -22 23 -12 19 15 -5 16
-2 7 13 -8 16 -7 19 8 16 9 -1 16 -7 15 -13 -2 -6 11 -20 27 -32 17 -12 30
-17 30 -11 0 6 -4 11 -8 11 -14 0 -48 29 -34 30 7 0 23 -10 35 -23 13 -12 32
-22 42 -22 13 0 21 -8 23 -22 3 -22 37 -41 50 -29 3 4 -4 9 -16 13 -43 11 -21
21 54 25 66 3 77 0 86 -15 11 -22 12 -21 -26 -34 -17 -5 -32 -15 -34 -21 -2
-8 8 -6 30 5 18 9 41 20 50 25 14 6 35 -6 90 -51 92 -74 181 -168 173 -181 -4
-6 -1 -9 5 -8 6 2 23 -19 39 -47 54 -99 66 -115 81 -113 8 2 16 12 18 23 2 11
9 25 14 30 8 7 8 6 3 -4 -5 -9 -3 -12 5 -9 7 2 26 40 43 83 16 44 38 103 49
130 11 28 22 80 24 116 2 36 11 83 19 103 9 21 13 46 10 55 -3 10 1 24 10 31
8 7 15 25 15 40 0 16 9 49 20 75 11 26 23 65 26 88 3 23 15 71 26 107 14 44
22 109 27 203 5 114 10 141 24 151 9 7 15 15 12 17 -7 7 22 108 35 125 18 21
39 18 33 -6 -3 -11 -9 -17 -14 -14 -5 3 -9 -4 -9 -16 0 -12 4 -19 9 -16 14 9
69 -42 90 -82 17 -33 20 -35 77 -37 33 -1 70 -6 83 -10 20 -6 22 -4 16 17 -5
21 -5 21 8 6 10 -12 30 -18 68 -19 30 -1 61 -7 69 -13 8 -7 35 -21 60 -31 25
-11 48 -23 51 -28 3 -5 9 -1 13 9 4 10 4 15 0 11 -4 -4 -21 2 -38 12 -17 10
-43 21 -58 25 -20 5 -26 11 -22 24 4 10 2 13 -3 7 -9 -11 -28 -11 -90 0 -24 4
-43 11 -43 16 0 5 -7 9 -15 9 -8 0 -15 -4 -15 -9 0 -16 -139 -9 -145 7 -3 9 0
12 9 9 10 -4 13 -1 9 8 -3 8 -9 12 -14 9 -5 -3 -23 11 -40 30 -17 20 -37 36
-45 36 -18 0 -18 19 0 26 8 3 12 12 9 21 -9 24 67 8 162 -34 83 -36 200 -54
260 -39 l27 7 -5 87 c-22 329 -33 412 -57 420 -12 4 -13 2 -4 -9 6 -8 14 -43
18 -79 4 -36 11 -105 17 -155 19 -179 21 -236 9 -251 -25 -30 -187 -9 -271 35
-22 12 -75 27 -117 35 -73 12 -77 14 -74 37 2 13 8 96 13 184 8 112 15 165 25
176 18 20 18 38 -1 59 -21 23 -23 135 -3 158 25 28 28 51 17 100 -22 94 -36
117 -56 90z m37 -73 c5 -32 7 -61 5 -64 -12 -12 -23 19 -28 78 -7 80 9 70 23
-14z"/>
<path d="M1120 2385 c0 -21 -4 -34 -10 -30 -10 6 -26 -42 -17 -52 4 -3 -3 -17
-13 -31 -11 -13 -20 -30 -20 -37 0 -7 -9 -24 -20 -38 -11 -14 -21 -44 -23 -66
-1 -22 -6 -43 -10 -47 -4 -4 -7 -11 -7 -16 0 -5 7 -3 15 6 8 8 18 36 22 63 6
45 26 82 36 65 2 -4 2 -1 0 7 -2 7 5 29 16 47 11 18 17 41 14 52 -3 12 2 25
14 33 20 15 29 64 13 74 -6 4 -10 -9 -10 -30z"/>
<path d="M3959 2399 c-10 -6 -4 -9 19 -9 26 0 35 -6 44 -27 7 -16 36 -53 64
-84 29 -31 59 -72 67 -91 10 -24 30 -45 61 -63 57 -33 76 -59 76 -102 0 -35
-23 -47 -34 -18 -3 8 -13 15 -23 15 -15 0 -15 -1 2 -13 10 -8 15 -19 11 -25
-5 -8 3 -12 22 -12 26 0 30 4 35 33 8 52 -16 93 -74 128 -34 22 -56 44 -66 67
-8 19 -38 60 -67 91 -28 31 -57 68 -64 84 -6 15 -15 27 -19 28 -5 0 -15 2 -24
4 -9 1 -23 -1 -30 -6z"/>
<path d="M1373 2333 c9 -2 17 -8 17 -13 0 -5 7 -7 15 -4 27 11 16 24 -17 23
-18 -1 -25 -3 -15 -6z"/>
<path d="M2350 2321 c-52 -24 -50 -46 9 -76 65 -33 104 -34 99 -2 -2 14 -18
29 -47 44 -24 12 -46 25 -50 28 -12 13 105 -8 120 -21 8 -8 24 -14 35 -13 14
0 15 2 4 6 -8 3 -28 15 -43 25 -15 11 -35 17 -43 14 -9 -3 -23 -2 -32 3 -11 6
-29 3 -52 -8z m96 -72 c9 -15 -43 -10 -81 8 -32 15 -43 32 -30 45 7 7 102 -39
111 -53z"/>
<path d="M5435 2300 c-4 -6 -4 -24 0 -40 4 -17 2 -30 -3 -30 -10 0 -9 -36 1
-46 4 -4 7 -20 7 -34 0 -15 6 -33 14 -39 13 -11 13 -17 0 -46 -10 -25 -11 -41
-4 -61 6 -15 11 -56 11 -92 1 -47 4 -61 12 -53 8 8 7 31 -1 83 -16 93 -17 121
-3 126 16 5 13 33 -5 53 -12 13 -16 41 -18 103 0 47 -2 86 -3 86 -1 0 -5 -5
-8 -10z"/>
<path d="M5239 2258 c-7 -21 -8 -58 -2 -58 4 0 9 14 10 30 1 17 0 30 -2 30 -3
0 -5 -1 -6 -2z"/>
<path d="M2310 2245 c0 -13 49 -90 60 -93 8 -3 5 7 -7 24 -11 16 -24 39 -27
52 -6 18 -26 32 -26 17z"/>
<path d="M2445 2181 c3 -5 -1 -12 -7 -15 -8 -3 -7 -5 2 -3 9 1 41 -25 73 -57
31 -33 57 -54 57 -48 0 6 -5 14 -12 18 -8 5 -5 11 7 20 10 8 16 16 13 19 -3 3
-13 -1 -21 -10 -14 -14 -19 -11 -53 30 -33 38 -76 72 -59 46z"/>
<path d="M4963 2133 c-7 -3 -13 -12 -13 -22 0 -9 -5 -22 -12 -29 -8 -8 -9 -12
-1 -12 6 0 14 6 16 13 3 6 6 2 6 -10 1 -24 15 -31 26 -13 3 6 1 10 -6 10 -8 0
-7 5 2 17 12 15 12 16 -3 10 -12 -4 -18 -2 -18 8 0 24 29 17 42 -10 9 -19 8
-29 -6 -50 -20 -30 -32 -32 -46 -4 -7 11 -14 18 -17 16 -9 -10 31 -67 50 -73
11 -3 24 -1 31 6 8 9 7 11 -4 10 -8 -1 -22 -2 -30 -1 -12 1 -12 4 3 12 9 5 24
23 32 39 14 27 14 32 0 54 -18 27 -33 35 -52 29z"/>
<path d="M1040 2103 c0 -11 -7 -28 -15 -39 -8 -10 -15 -30 -15 -44 -1 -14 -7
-42 -14 -63 -8 -20 -10 -40 -5 -43 16 -10 2 -64 -25 -90 -30 -31 -32 -46 -10
-64 8 -8 20 -22 26 -33 14 -27 16 -88 2 -94 -6 -2 -11 -27 -11 -56 0 -29 -4
-63 -8 -76 -5 -17 -4 -22 6 -19 10 3 15 26 16 74 1 38 2 71 2 73 1 2 7 -1 14
-7 6 -6 11 -28 10 -49 -1 -21 -2 -45 -2 -54 -1 -9 -9 -26 -20 -37 -11 -13 -16
-31 -14 -46 3 -13 0 -27 -6 -30 -6 -4 -11 -14 -11 -22 0 -8 -14 -28 -31 -45
-28 -27 -30 -34 -20 -55 8 -18 18 -24 38 -23 23 1 24 3 6 6 -12 2 -27 11 -34
19 -9 12 -6 20 20 44 17 17 31 36 31 44 0 8 11 17 25 20 14 4 25 11 25 16 0 5
-7 7 -16 3 -13 -5 -15 0 -11 25 3 16 9 38 14 47 9 15 11 15 25 1 14 -14 18
-14 28 -1 8 10 9 15 2 15 -6 0 -9 7 -6 15 4 9 0 15 -9 15 -33 0 -23 96 13 128
8 8 9 11 2 7 -7 -4 -20 -1 -28 6 -8 6 -17 9 -21 5 -3 -3 -2 -6 4 -6 6 0 11
-12 11 -27 0 -26 -1 -26 -15 -7 -7 10 -13 28 -12 39 4 28 -10 66 -31 90 -16
18 -17 22 -4 39 8 11 14 14 14 8 0 -7 5 -12 10 -12 6 0 10 6 9 13 -3 26 1 47
11 47 6 0 10 -7 10 -17 0 -9 3 -13 7 -10 3 4 7 30 8 59 1 29 5 69 9 88 7 32 7
33 -7 16 -8 -11 -12 -27 -10 -35 2 -9 -3 -25 -11 -36 -12 -15 -15 -16 -16 -5
0 14 21 85 40 135 17 43 19 55 10 60 -6 4 -10 -2 -10 -12z m0 -594 c0 -5 -4
-9 -10 -9 -5 0 -10 7 -10 16 0 8 5 12 10 9 6 -3 10 -10 10 -16z"/>
<path d="M3721 2056 c-13 -14 -29 -22 -35 -20 -9 4 -10 -10 -4 -53 5 -32 8
-66 9 -76 0 -13 5 -11 25 12 13 16 24 35 24 42 0 8 -8 5 -18 -9 -21 -28 -32
-20 -32 24 0 24 9 39 35 63 19 17 35 33 35 36 0 12 -18 3 -39 -19z"/>
<path d="M5589 2046 c-11 -12 3 -76 18 -76 8 0 46 -28 84 -62 38 -33 72 -58
76 -55 3 4 -7 17 -23 29 -16 13 -50 42 -77 66 -26 23 -52 42 -57 42 -5 0 -10
14 -12 31 -2 17 -5 28 -9 25z"/>
<path d="M4158 1965 c-21 -32 -27 -35 -75 -35 -28 0 -55 -4 -58 -10 -3 -5 -15
-10 -26 -10 -31 0 -22 -15 11 -17 17 -1 28 2 25 6 -3 5 15 11 40 13 26 2 45
-1 45 -7 1 -5 12 4 25 20 14 17 25 25 25 18 0 -19 55 1 58 22 4 18 -13 35 -35
35 -7 0 -23 -16 -35 -35z m55 19 c11 -11 -5 -34 -24 -34 -22 0 -24 11 -7 28
13 13 22 15 31 6z"/>
<path d="M3773 1939 c-6 -6 -9 -18 -6 -26 7 -19 73 -45 92 -37 11 4 1 10 -28
18 -47 12 -64 32 -37 42 10 4 34 -5 59 -22 97 -65 148 -81 161 -48 4 10 2 13
-7 7 -6 -4 -18 -8 -26 -10 -15 -2 -95 39 -122 63 -22 20 -72 28 -86 13z"/>
<path d="M4240 1899 c-39 -20 -64 -24 -55 -9 9 15 3 13 -49 -15 -56 -30 -56
-30 -56 -8 0 12 -3 14 -11 6 -8 -8 -8 -17 0 -31 6 -11 8 -28 4 -37 -5 -15 -3
-15 16 1 20 17 20 19 4 26 -16 7 -15 8 2 5 17 -2 19 -9 17 -40 -2 -22 1 -37 7
-37 15 0 14 63 -1 78 -8 8 -4 14 18 22 15 6 36 9 46 7 19 -5 115 38 102 45 -5
2 -25 -3 -44 -13z"/>
<path d="M3650 1870 c0 -6 13 -10 29 -10 17 0 33 -4 36 -10 3 -5 11 -10 18
-10 7 0 6 5 -3 14 -19 17 -80 29 -80 16z"/>
<path d="M3754 1839 c3 -17 6 -35 6 -40 0 -5 4 -9 10 -9 5 0 6 8 3 18 -6 15
-5 15 10 3 9 -7 17 -11 17 -9 0 3 18 2 40 -2 41 -8 50 -1 26 19 -11 9 -15 9
-18 -1 -7 -19 -83 14 -82 35 1 9 -3 17 -8 17 -6 0 -8 -13 -4 -31z"/>
<path d="M4015 1824 c-14 -14 -22 -15 -54 -5 -46 13 -61 14 -61 2 0 -5 27 -12
59 -16 52 -6 63 -4 82 14 18 17 19 21 7 21 -9 0 -24 -7 -33 -16z"/>
<path d="M5727 1812 c-27 -28 -36 -62 -17 -62 5 0 7 6 4 14 -3 7 9 25 25 39
17 14 31 28 31 31 0 14 -18 4 -43 -22z"/>
<path d="M205 1687 c-19 -30 -39 -141 -31 -179 3 -16 2 -28 -2 -28 -15 0 -12
-51 3 -56 8 -4 15 -12 15 -20 0 -8 4 -14 9 -14 5 0 7 9 4 20 -3 11 -9 20 -13
20 -4 0 -5 46 -2 103 3 76 9 110 23 136 23 39 18 54 -6 18z"/>
<path d="M1434 1665 c-9 -37 0 -40 13 -5 6 17 7 30 2 30 -5 0 -11 -11 -15 -25z"/>
<path d="M5840 1683 c0 -4 5 -15 10 -23 8 -13 10 -13 10 2 0 9 -4 20 -10 23
-5 3 -10 3 -10 -2z"/>
<path d="M4137 1674 c-11 -18 15 -33 48 -28 17 3 38 5 48 5 9 0 15 4 12 9 -5
9 -68 6 -84 -4 -5 -4 -11 2 -13 11 -2 12 -6 14 -11 7z"/>
<path d="M4210 1617 c0 -18 -11 -29 -42 -45 -74 -36 -101 -44 -108 -31 -5 7
-22 9 -51 4 -24 -5 -37 -10 -29 -13 8 -3 18 -10 22 -16 8 -12 94 7 141 31 15
8 36 11 46 8 13 -4 20 1 24 15 3 11 16 24 29 29 l23 10 -22 0 c-36 1 -26 16
10 16 22 0 45 -10 67 -29 29 -24 40 -27 74 -23 47 7 76 -6 76 -33 0 -11 5 -20
11 -20 6 0 9 7 5 15 -4 11 4 9 24 -7 16 -12 32 -19 35 -17 2 3 -20 22 -50 42
-45 30 -63 36 -100 35 -36 -2 -50 3 -73 25 -21 21 -38 27 -70 27 -37 0 -42 -3
-42 -23z m-168 -89 c-9 -9 -15 -9 -24 0 -9 9 -7 12 12 12 19 0 21 -3 12 -12z"/>
<path d="M3866 1605 c-9 -14 -22 -25 -30 -25 -7 0 -21 -9 -31 -20 -10 -11 -15
-20 -11 -20 14 0 86 51 86 60 0 6 10 15 23 20 22 9 22 9 1 9 -13 1 -29 -10
-38 -24z"/>
<path d="M4110 1609 c-35 -19 -126 -27 -116 -10 9 14 -27 19 -70 10 l-39 -8
35 1 c52 0 60 -1 60 -10 0 -5 -20 -8 -45 -7 -42 2 -45 1 -45 -24 0 -23 -6 -28
-42 -38 -26 -7 -44 -8 -46 -2 -5 13 -22 1 -22 -16 0 -11 6 -12 25 -5 14 5 29
9 33 8 16 -3 82 15 82 23 0 5 -4 9 -10 9 -5 0 -10 5 -10 11 0 6 9 8 23 4 17
-5 19 -4 7 4 -17 12 -16 13 70 12 62 0 140 25 156 50 8 13 -6 9 -46 -12z"/>
<path d="M4969 1606 c7 -8 22 -18 32 -21 14 -5 18 -12 14 -25 -5 -15 -2 -17
14 -13 13 3 23 0 27 -11 4 -11 13 -14 30 -10 13 4 31 1 39 -6 7 -6 40 -14 71
-16 38 -4 62 -11 71 -22 13 -18 18 -5 5 14 -6 10 -28 16 -112 27 -14 2 -29 5
-35 6 -5 1 -3 6 5 12 11 8 8 9 -13 4 -31 -6 -87 13 -87 30 0 5 -17 18 -37 28
-29 15 -34 15 -24 3z"/>
<path d="M3260 1578 c0 -2 9 -28 20 -58 19 -52 20 -53 15 -15 -5 37 -4 39 10
21 8 -11 15 -27 15 -35 0 -11 3 -12 12 -3 9 9 7 16 -7 32 -10 11 -15 23 -12
27 11 10 -13 33 -34 33 -11 0 -19 -1 -19 -2z m35 -26 c-3 -3 -11 0 -18 7 -9
10 -8 11 6 5 10 -3 15 -9 12 -12z"/>
<path d="M5462 1571 c3 -8 16 -18 31 -22 15 -4 34 -14 43 -23 18 -18 34 -21
34 -6 0 6 -7 10 -16 10 -8 0 -13 3 -11 8 3 4 1 16 -4 27 -6 17 -8 18 -8 2 -1
-14 -6 -16 -28 -11 -16 4 -32 12 -36 18 -6 7 -7 6 -5 -3z"/>
<path d="M4422 1563 c-10 -4 -10 -8 -1 -19 17 -20 10 -23 -37 -15 -22 4 -80 6
-128 3 -72 -4 -86 -7 -81 -19 3 -11 1 -13 -10 -9 -8 3 -28 1 -43 -5 -15 -6
-67 -12 -117 -13 -49 -2 -92 -4 -95 -6 -3 -1 -16 -1 -28 0 -13 1 -33 -8 -43
-19 -13 -14 -32 -21 -57 -21 -33 0 -96 -29 -65 -30 6 0 15 5 18 10 3 6 23 10
43 10 50 0 83 10 75 23 -4 6 4 8 23 4 16 -3 36 0 45 6 9 7 37 11 62 9 37 -3
45 -7 41 -20 -5 -15 -4 -15 9 1 8 9 22 17 31 17 9 0 33 7 53 15 32 14 37 14
48 -1 14 -20 37 -10 28 11 -4 12 7 15 53 17 79 3 156 0 163 -7 3 -4 -1 -10 -8
-14 -9 -6 -1 -10 23 -13 20 -2 36 0 36 4 0 4 3 7 8 6 4 -2 8 0 10 5 2 7 -5 7
-26 -1 -23 -8 -26 8 -9 37 17 30 9 44 -21 34z"/>
<path d="M4842 1559 c14 -8 16 -18 11 -54 -5 -40 -4 -43 14 -39 18 5 21 -1 28
-42 4 -32 10 -43 15 -34 5 8 5 21 1 29 -15 29 -22 83 -10 75 8 -5 8 -1 0 12
-19 34 -49 64 -63 64 -8 -1 -7 -4 4 -11z m48 -43 c0 -2 -3 -11 -6 -20 -9 -23
-24 -20 -24 4 0 11 7 20 15 20 8 0 15 -2 15 -4z"/>
<path d="M5856 1485 c4 -8 18 -18 33 -21 14 -3 35 -9 46 -14 50 -22 65 -18 20
4 -27 14 -58 26 -67 26 -10 0 -18 5 -18 10 0 6 -4 10 -10 10 -5 0 -7 -7 -4
-15z"/>
<path d="M5494 1478 c-7 -11 21 -38 40 -38 6 0 0 7 -13 16 -18 13 -20 18 -10
25 10 6 10 9 2 9 -6 0 -15 -5 -19 -12z"/>
<path d="M4761 1441 c-1 -29 1 -32 14 -21 9 7 12 16 7 19 -5 3 -12 13 -15 21
-3 8 -6 0 -6 -19z"/>
<path d="M5015 1450 c3 -5 8 -10 11 -10 2 0 4 5 4 10 0 6 -5 10 -11 10 -5 0
-7 -4 -4 -10z"/>
<path d="M2945 1443 c-11 -2 -49 -10 -85 -19 -91 -21 -108 -24 -170 -34 -30
-5 -77 -16 -105 -24 -27 -9 -78 -21 -112 -26 -56 -9 -120 -36 -321 -133 -48
-23 -61 -17 -67 29 -2 16 -4 31 -4 34 -1 3 -5 -1 -9 -8 -15 -23 -2 -70 22 -77
20 -6 20 -7 -6 -16 -14 -6 -29 -17 -32 -25 -3 -8 19 1 49 21 31 19 57 35 59
35 2 0 38 16 79 35 41 19 78 35 82 35 4 0 19 8 33 18 28 19 159 53 372 96 69
15 155 33 191 41 77 17 143 20 134 5 -3 -5 2 -10 11 -10 14 0 10 -8 -17 -37
-19 -21 -44 -51 -55 -68 -21 -31 -32 -105 -16 -105 5 0 9 15 9 33 -1 38 48
121 65 111 6 -4 8 -3 4 4 -3 6 -2 13 4 17 23 14 8 -34 -15 -49 -16 -11 -24
-24 -23 -40 1 -14 6 -22 10 -20 4 3 8 2 9 -3 4 -32 4 -74 -2 -105 -3 -21 -4
-38 0 -38 3 0 5 -34 4 -75 -1 -53 3 -78 13 -86 9 -8 14 -8 14 -1 0 6 -5 14
-10 17 -6 4 -7 12 -3 18 11 18 12 37 2 37 -5 0 -9 18 -9 39 0 33 4 40 23 44
l22 4 -22 2 c-20 1 -22 6 -20 46 1 25 7 45 12 45 6 0 4 4 -4 9 -9 6 -10 11 -2
15 6 4 11 12 11 17 0 6 -5 7 -11 3 -7 -4 -10 -1 -7 7 3 8 13 16 24 18 10 2 23
9 27 17 14 25 29 15 22 -15 -3 -17 -2 -32 4 -36 6 -3 11 -25 11 -48 0 -23 3
-73 7 -112 6 -61 8 -66 14 -35 l6 35 2 -35 c0 -20 8 -63 17 -95 8 -33 18 -94
20 -135 5 -74 30 -186 46 -205 4 -5 8 -16 8 -25 0 -8 8 -31 18 -50 10 -19 24
-62 31 -95 8 -33 20 -73 28 -88 22 -43 55 -157 49 -172 -3 -8 2 -11 13 -8 9 2
21 19 27 36 9 33 27 40 32 12 2 -9 -2 -14 -10 -13 -19 4 -22 -58 -5 -106 9
-23 18 -56 22 -73 4 -18 11 -33 16 -33 12 0 13 -4 -16 78 -29 82 -32 122 -10
122 8 0 15 -4 15 -10 0 -5 -5 -10 -10 -10 -6 0 -1 -13 11 -29 17 -23 20 -38
16 -67 -5 -28 -3 -34 5 -26 16 16 33 15 20 -1 -13 -16 -5 -30 28 -47 23 -12
24 -12 10 4 -8 11 -13 34 -11 56 3 42 -12 60 -28 33 -9 -15 -10 -13 -11 14 0
17 -4 35 -10 38 -5 3 -10 11 -10 16 0 6 5 7 10 4 16 -10 12 11 -5 25 -8 7 -15
21 -15 30 0 10 -5 20 -10 22 -14 4 20 82 69 155 44 65 156 196 174 202 7 2 29
19 50 38 21 19 49 39 63 45 13 6 24 15 24 20 0 5 -7 5 -16 0 -9 -5 -26 -8 -38
-6 -12 3 -15 1 -8 -2 9 -4 1 -16 -25 -40 -21 -18 -43 -33 -50 -34 -7 0 -16 -7
-21 -16 -8 -14 -10 -14 -21 0 -8 9 -18 16 -24 16 -5 0 -2 -9 9 -21 18 -20 18
-21 -19 -57 -39 -39 -117 -136 -117 -145 0 -4 -11 -23 -25 -43 -14 -20 -25
-43 -25 -51 0 -19 -51 -94 -60 -88 -4 3 -11 22 -15 42 -3 21 -15 53 -26 71
-10 18 -19 39 -19 46 0 19 -44 153 -69 210 -26 58 -41 121 -47 195 -3 30 -10
75 -15 100 -11 54 -38 307 -39 368 l0 43 50 -51 c54 -55 80 -96 73 -116 -3 -7
1 -13 7 -13 13 0 9 27 -12 77 -6 15 -12 34 -12 42 -1 8 -7 16 -14 18 -8 3 -10
-1 -5 -14 3 -10 -16 6 -43 35 -52 55 -80 64 -110 35 -9 -10 -28 -23 -42 -30
-21 -11 -23 -11 -18 3 4 10 2 13 -7 8 -6 -4 3 6 21 23 32 31 39 60 26 111 -6
20 -12 22 -63 21 -31 -1 -65 -3 -76 -6z m217 -201 c2 -37 0 -83 -3 -102 -4
-23 -7 -7 -8 48 0 46 -5 81 -10 78 -4 -3 -6 6 -3 19 8 47 20 25 24 -43z"/>
<path d="M5453 1437 c-27 -12 -31 -33 -5 -22 9 4 22 7 27 6 6 -1 32 -4 60 -6
27 -3 91 -14 142 -25 94 -20 173 -26 173 -12 0 10 122 9 138 -1 17 -11 15 8
-2 22 -10 8 -21 8 -40 1 -40 -15 -77 -12 -98 7 -15 14 -19 14 -16 3 4 -18 -52
-25 -130 -15 -38 5 -55 12 -63 27 -10 19 -9 20 10 15 11 -3 21 -1 21 4 0 6
-18 7 -42 4 -103 -15 -129 -16 -141 -7 -8 6 -20 6 -34 -1z m164 -13 c-3 -3
-12 -4 -19 -1 -8 3 -5 6 6 6 11 1 17 -2 13 -5z"/>
<path d="M4106 1405 c9 -13 24 -27 34 -30 10 -3 21 -12 24 -20 5 -15 52 -12
88 6 11 6 18 5 21 -4 2 -6 8 -9 12 -4 5 4 4 12 -3 19 -8 8 -19 8 -41 -2 -24
-10 -34 -10 -46 0 -8 6 -18 9 -24 6 -5 -3 -23 7 -39 24 -37 36 -48 39 -26 5z"/>
<path d="M991 1376 c-16 -19 -11 -29 8 -17 7 5 12 14 9 21 -3 9 -8 7 -17 -4z"/>
<path d="M2910 1320 c0 -5 -7 -10 -15 -10 -8 0 -15 -9 -15 -19 0 -11 -5 -23
-10 -26 -6 -4 -10 -3 -9 2 4 22 -3 33 -21 33 -11 0 -20 -6 -20 -12 0 -7 -21
-23 -46 -36 -37 -19 -49 -21 -61 -11 -12 11 -14 10 -11 -7 2 -13 -2 -18 -12
-15 -37 9 -102 3 -95 -9 3 -5 -3 -10 -13 -10 -11 0 -25 -6 -31 -14 -7 -8 -23
-17 -37 -20 -14 -4 -22 -10 -19 -15 6 -10 -18 -21 -46 -21 -10 0 -19 -5 -19
-11 0 -11 24 -9 65 6 17 6 16 3 -5 -17 -15 -14 -26 -35 -26 -53 -1 -17 -5 -39
-9 -50 -8 -20 -8 -20 11 0 12 11 19 31 18 46 -1 15 7 37 17 48 10 11 16 27 13
35 -4 10 1 18 12 22 11 4 27 14 36 22 12 10 29 13 53 9 26 -4 35 -2 35 8 0 10
11 14 33 13 18 -1 46 6 62 15 17 9 44 23 62 31 17 9 34 21 37 28 3 7 4 1 1
-15 -4 -19 -1 -26 7 -25 9 2 12 -9 11 -36 -4 -64 19 -27 25 39 3 36 9 55 17
55 8 0 15 6 18 13 4 10 7 10 18 0 9 -9 10 -13 1 -13 -6 0 -19 -16 -27 -36 -19
-45 -19 -50 0 -34 8 7 15 18 15 26 0 7 9 22 21 33 12 11 18 24 14 30 -8 14
-55 14 -55 1z m-270 -120 c0 -5 -7 -7 -15 -4 -8 4 -15 8 -15 10 0 2 7 4 15 4
8 0 15 -4 15 -10z"/>
<path d="M265 1259 c1 -48 -1 -59 -12 -55 -9 4 -11 2 -6 -7 4 -6 6 -20 5 -29
-2 -10 2 -18 9 -18 7 0 10 3 6 6 -3 4 1 20 9 36 11 21 12 33 5 42 -6 7 -8 27
-5 43 3 17 2 33 -4 37 -6 3 -9 -17 -7 -55z"/>
<path d="M980 1268 c0 -10 -7 -18 -15 -18 -17 0 -20 -25 -5 -35 6 -3 10 -17
10 -31 0 -15 -4 -23 -11 -19 -6 4 -8 14 -4 24 5 12 4 13 -6 4 -10 -10 -9 -16
1 -28 11 -13 11 -23 2 -48 -6 -18 -10 -66 -8 -107 3 -76 -7 -113 -42 -153 -21
-24 -25 -96 -6 -104 8 -3 14 -13 14 -24 0 -10 8 -22 18 -28 14 -8 15 -13 5
-30 -7 -11 -10 -28 -6 -37 3 -9 1 -19 -5 -23 -9 -5 -6 -22 8 -60 10 -30 21
-56 24 -58 10 -10 76 -20 76 -12 0 5 -10 9 -22 9 -34 0 -46 11 -63 59 -18 51
-18 51 -5 51 6 0 10 -8 10 -17 0 -15 2 -16 10 -3 14 21 12 30 -5 30 -16 0 -19
20 -9 58 5 15 12 21 22 17 11 -4 12 -2 4 8 -6 7 -7 18 -2 27 4 7 5 23 0 34 -4
12 -4 30 0 41 8 21 17 121 26 273 4 65 2 98 -7 108 -6 8 -8 14 -4 14 4 0 0 11
-9 25 -14 21 -14 25 -2 25 20 0 27 13 15 30 -7 13 -9 12 -9 -2z m-2 -156 c-8
-9 -16 -35 -17 -57 -2 -46 8 -42 14 5 8 62 17 45 11 -20 -9 -93 -28 -190 -37
-190 -17 0 -19 21 -6 52 9 21 13 61 11 110 -2 55 1 88 13 115 12 28 18 33 21
20 2 -10 -3 -26 -10 -35z m-46 -287 c-3 -18 0 -25 12 -25 19 0 21 -16 4 -26
-6 -4 -14 -2 -16 4 -2 7 -9 12 -15 12 -8 0 -7 -4 1 -12 7 -7 13 -23 13 -37 2
-24 2 -24 6 -3 2 12 8 22 13 22 14 0 18 -25 6 -43 -15 -19 -36 -5 -36 24 0 9
-6 19 -14 22 -12 5 -13 35 -1 75 8 24 32 13 27 -13z m24 -12 c-10 -10 -19 5
-10 18 6 11 8 11 12 0 2 -7 1 -15 -2 -18z"/>
<path d="M2435 1220 c3 -5 11 -10 16 -10 6 0 7 5 4 10 -3 6 -11 10 -16 10 -6
0 -7 -4 -4 -10z"/>
<path d="M1372 1204 c3 -16 -5 -18 -74 -17 -84 1 -114 -13 -49 -23 22 -3 42
-13 45 -20 3 -8 13 -14 23 -14 17 1 17 1 0 11 -9 6 -15 14 -12 20 10 14 45 11
45 -5 0 -8 5 -18 11 -22 8 -4 9 1 4 16 -5 16 -4 20 5 15 9 -5 10 -22 5 -59 -4
-28 -9 -69 -10 -91 -5 -93 -18 -151 -39 -174 -17 -20 -18 -23 -4 -18 14 5 18
1 17 -16 -1 -12 1 -42 4 -66 4 -35 1 -52 -18 -81 -13 -21 -25 -48 -27 -61 -2
-25 10 -141 18 -171 3 -11 -10 -34 -35 -61 -23 -24 -41 -49 -41 -54 0 -6 -7
-17 -16 -24 -47 -39 -114 -192 -113 -257 0 -31 2 -33 9 -16 5 12 11 42 15 68
4 25 11 44 15 41 5 -3 6 3 4 12 -3 17 18 56 89 162 25 37 30 41 44 29 15 -11
16 -11 10 5 -7 20 35 82 47 70 3 -3 2 -11 -3 -17 -6 -7 -4 -23 4 -41 12 -30
12 -30 10 15 -2 25 -4 51 -4 58 -1 6 -7 12 -14 12 -9 0 -16 25 -23 81 -9 77
-8 84 15 130 14 27 28 44 32 38 4 -6 16 -8 28 -4 12 4 21 2 21 -4 0 -6 -15
-12 -32 -12 -26 -1 -28 -3 -10 -6 13 -3 36 0 50 5 15 5 46 15 69 22 59 18 95
58 99 112 l3 43 -12 -44 c-7 -25 -18 -46 -25 -49 -7 -2 -10 -7 -7 -12 9 -15
-69 -43 -122 -43 -30 0 -55 2 -58 5 -5 4 -16 78 -18 120 -1 16 3 28 8 27 6 0
8 -8 7 -17 -3 -14 -1 -15 9 -4 11 10 11 16 1 32 -6 11 -11 32 -11 47 1 17 3
21 6 11 5 -21 8 -21 34 -8 10 6 19 21 18 33 l0 22 -9 -22 c-12 -30 -45 -20
-35 11 12 34 14 265 3 272 -5 3 -8 -2 -6 -12z m-79 -31 c-7 -2 -21 -2 -30 0
-10 3 -4 5 12 5 17 0 24 -2 18 -5z"/>
<path d="M2071 1096 c-10 -11 -8 -16 9 -21 21 -7 50 9 50 26 0 14 -47 10 -59
-5z m39 0 c0 -3 -4 -8 -10 -11 -5 -3 -10 -1 -10 4 0 6 5 11 10 11 6 0 10 -2
10 -4z"/>
<path d="M3550 1041 c0 -6 17 -19 38 -27 20 -9 49 -23 64 -30 14 -8 31 -14 38
-14 6 0 26 -11 43 -24 35 -26 100 -56 162 -76 22 -7 45 -16 50 -20 6 -5 25
-10 43 -13 27 -4 32 -3 28 10 -3 8 -6 19 -6 24 0 5 -11 9 -25 9 -14 0 -25 -5
-25 -11 0 -6 9 -8 20 -4 14 4 20 2 20 -9 0 -17 -14 -14 -68 16 -18 10 -41 18
-52 18 -21 0 -124 52 -153 78 -21 18 -14 30 8 12 19 -16 20 -3 1 16 -9 9 -17
10 -21 4 -8 -13 -52 -13 -60 0 -3 6 -15 10 -27 10 -11 0 -33 9 -49 21 -16 11
-29 15 -29 10z"/>
<path d="M4448 1006 c-16 -12 -28 -31 -28 -42 0 -11 -5 -25 -12 -32 -8 -8 -8
-12 -1 -12 16 0 35 26 31 43 -2 8 8 24 22 35 14 11 23 23 20 25 -3 3 -17 -5
-32 -17z"/>
<path d="M4324 920 c-11 -12 -39 -23 -64 -26 -54 -6 -60 -10 -60 -36 0 -13 -5
-18 -14 -15 -9 4 -13 -2 -12 -16 1 -13 -8 -26 -20 -32 -12 -6 -30 -17 -39 -25
-11 -9 -37 -13 -77 -12 -34 2 -66 -2 -74 -9 -9 -7 -31 -9 -57 -6 -35 5 -38 5
-17 -4 14 -6 39 -7 55 -4 17 4 49 8 72 9 34 2 44 -1 49 -16 7 -23 26 -18 95
25 38 23 48 35 43 49 -3 11 0 18 8 18 9 0 10 3 2 8 -11 7 -2 52 10 52 3 0 3
-7 0 -15 -5 -11 7 -9 46 9 51 24 105 66 84 66 -5 0 -19 -9 -30 -20z m-124
-124 c0 -10 -103 -67 -113 -63 -7 3 -1 10 13 16 14 6 39 20 55 30 30 19 45 25
45 17z"/>
<path d="M4250 920 c0 -5 14 -10 30 -10 17 0 30 4 30 8 0 4 -13 9 -30 10 -16
1 -30 -2 -30 -8z"/>
<path d="M1638 873 c-20 -21 -27 -40 -28 -73 -3 -65 -2 -70 15 -70 8 0 15 -4
15 -10 0 -5 12 -9 28 -9 23 2 24 2 5 6 -13 2 -23 8 -23 13 0 5 -8 10 -17 12
-14 3 -17 12 -14 48 3 52 38 96 80 103 24 4 24 4 -5 6 -21 1 -38 -7 -56 -26z"/>
<path d="M4043 842 c-6 -4 18 -7 52 -7 35 0 58 3 52 7 -15 10 -88 10 -104 0z"/>
<path d="M3890 652 c-26 -13 -35 -24 -36 -43 -1 -15 -4 -34 -7 -43 -10 -26 13
-76 37 -82 50 -12 133 67 109 105 -20 31 -41 37 -72 18 -38 -22 -47 -21 -54 3
-5 20 3 25 33 20 8 -1 11 2 7 6 -4 4 3 14 15 21 35 19 8 15 -32 -5z m85 -62
c16 -18 16 -21 2 -44 -19 -28 -72 -57 -91 -50 -18 7 -37 50 -30 69 4 8 14 15
23 15 9 1 27 7 41 15 33 19 34 18 55 -5z"/>
<path d="M1435 647 c-16 -6 -31 -12 -33 -13 -1 0 0 -9 4 -18 3 -9 11 -13 16
-10 7 4 6 9 -1 13 -6 4 3 12 19 18 25 9 33 8 46 -4 14 -14 17 -14 31 0 15 15
15 16 -4 11 -12 -3 -24 -1 -27 5 -8 13 -11 13 -51 -2z"/>
<path d="M1395 582 c-6 -4 -11 -16 -13 -27 -2 -18 -1 -19 11 -3 11 14 15 14
23 3 8 -12 14 -12 42 0 17 8 32 20 32 27 0 9 -3 9 -12 0 -14 -14 -50 -16 -64
-2 -5 5 -14 6 -19 2z"/>
<path d="M3730 388 c0 -13 7 -45 15 -72 8 -27 16 -79 16 -115 1 -57 2 -61 9
-29 7 36 1 92 -15 151 -5 17 -3 27 4 27 6 0 11 5 11 11 0 8 -6 7 -17 -2 -15
-13 -16 -11 -10 19 4 18 2 32 -3 32 -6 0 -10 -10 -10 -22z"/>
<path d="M896 328 c-20 -40 -20 -45 2 -26 9 9 24 18 32 21 11 4 10 6 -4 6 -12
1 -16 6 -12 16 10 27 -2 16 -18 -17z"/>
<path d="M961 314 c-18 -20 -25 -23 -37 -14 -11 10 -14 9 -14 -3 0 -9 5 -19
11 -23 6 -3 8 -16 5 -29 -4 -15 -1 -25 8 -28 12 -5 12 -11 3 -31 -10 -22 -13
-23 -21 -8 -10 17 -14 38 -15 80 -1 12 -5 22 -10 22 -6 0 -8 -10 -5 -22 11
-50 11 -73 1 -89 -8 -13 -8 -24 2 -43 10 -17 12 -42 8 -78 -4 -35 -3 -48 3
-38 5 8 10 32 10 52 0 20 5 40 10 43 6 3 10 16 10 28 1 12 7 33 14 46 10 19
11 30 0 60 -12 34 -11 37 9 45 13 4 28 19 34 32 15 31 2 31 -26 -2z m-49 -169
c2 -19 3 -35 1 -35 -8 0 -23 52 -17 61 9 15 12 11 16 -26z"/>
<path d="M4343 240 c-32 -13 -32 -57 -1 -56 15 1 24 -6 28 -24 4 -15 9 -20 13
-13 4 6 4 19 0 30 -3 10 -3 15 2 11 14 -13 26 -156 13 -164 -4 -3 -8 -10 -8
-16 0 -6 6 -6 15 2 11 9 14 22 10 42 -4 17 -2 35 5 43 10 12 10 18 -1 31 -8 9
-14 22 -15 28 -3 43 -18 96 -28 95 -6 0 -21 -4 -33 -9z m30 -7 c-7 -2 -13 -11
-13 -19 0 -16 -16 -19 -25 -5 -6 10 22 31 40 30 6 0 4 -3 -2 -6z"/>
<path d="M4015 19 c-4 -6 -4 -13 0 -17 4 -4 10 -1 13 7 4 11 6 11 13 0 7 -11
9 -10 9 4 0 19 -25 23 -35 6z"/>
</g>
</svg>
